<?xml version="1.0" encoding="UTF-8"?>
<svg width="60px" height="53px" viewBox="0 0 60 53" version="1.1" xmlns="http://www.w3.org/2000/svg" xmlns:xlink="http://www.w3.org/1999/xlink">
    <title>male-front-shoulder-right-outline</title>
    <g id="Page-1" stroke="none" stroke-width="1" fill="none" fill-rule="evenodd" fill-opacity="0.16">
        <g id="Artboard" transform="translate(-40.000000, -98.000000)" fill="#0091FF" stroke="#0091FF" stroke-width="2">
            <path d="M41.2131528,128.21145 C43.2181024,123.345467 44.759648,119.990108 45.8377895,118.145374 C49.2155717,112.365884 52.7927828,109.006061 55.9940029,107.420426 C63.0948501,103.903217 73.0618197,99.6818428 73.2919759,99.6818428 C76.0768684,99.6818428 79.6907236,102.121479 84.6667384,103.841618 C90.8655806,105.984471 97.9343284,106.942957 98.477699,108.508079 C99.4572512,111.329575 69.073017,117.231045 62.922734,130.687017 C56.7724509,144.14299 52.1919668,147.983687 49.3526796,149.459035 C46.5133924,150.934383 44.842005,144.30505 43.720613,140.664807 C42.9730184,138.237979 42.1371983,134.08686 41.2131528,128.21145 Z" id="male-front-shoulder-right-outline"></path>
        </g>
    </g>
</svg>