<?xml version="1.0" encoding="UTF-8"?>
<svg width="117px" height="124px" viewBox="0 0 117 124" version="1.1" xmlns="http://www.w3.org/2000/svg" xmlns:xlink="http://www.w3.org/1999/xlink">
    <title>male-front-abdomen-outline</title>
    <g id="Page-1" stroke="none" stroke-width="1" fill="none" fill-rule="evenodd" fill-opacity="0.15">
        <g id="Artboard" transform="translate(-63.000000, -142.000000)" fill="#0679FF" stroke="#0091FF" stroke-width="2">
            <path d="M64.6917488,149.669722 C64.4468366,161.090815 64.8071884,170.204289 65.7728044,177.010145 C66.5289766,182.339798 68.5862861,190.110329 70.9259796,200.110624 C71.3580103,201.957205 71.8970058,204.871051 72.5429663,208.852163 C73.28452,212.079642 73.8119977,215.134962 74.1253995,218.018122 C74.4388013,220.901283 74.4388013,224.812466 74.1253995,229.751671 C72.97281,234.500062 72.1649999,238.046579 71.7019692,240.391221 C71.2389385,242.735863 70.7309881,247.443058 70.1781181,254.512806 C91.5921322,261.266709 108.121975,264.64366 119.767646,264.64366 C131.413317,264.64366 147.314564,261.72131 167.471389,255.876608 C168.040965,247.919965 168.302752,243.447287 168.256749,242.458574 C167.783188,232.280564 166.836281,224.898516 167.471389,219.57303 C168.030706,214.883067 168.33332,209.814738 170.464073,202.230101 C170.891595,200.708292 171.951522,198.523222 173.643854,195.674891 C176.014817,187.84821 177.511849,181.626628 178.134951,177.010145 C178.758052,172.393661 178.758052,164.664219 178.134951,153.821817 C173.881598,163.891866 169.439814,169.654492 164.809598,171.109695 C149.30928,175.981198 128.639983,170.059699 119.767646,169.660791 C117.10631,169.541135 112.441057,170.024685 107.847274,171.109695 C102.121449,172.462083 96.1348171,174.480947 89.9614446,174.320371 C84.1745663,174.169848 79.9041983,170.353533 74.9078313,168.129895 C70.8802712,166.337425 67.4749104,160.184034 64.6917488,149.669722 Z" id="male-front-abdomen-outline"></path>
        </g>
    </g>
</svg>