<?xml version="1.0" encoding="UTF-8"?>
<svg width="34px" height="84px" viewBox="0 0 34 84" version="1.1" xmlns="http://www.w3.org/2000/svg" xmlns:xlink="http://www.w3.org/1999/xlink">
    <title>male-font-arm-left-outline</title>
    <g id="Page-1" stroke="none" stroke-width="1" fill="none" fill-rule="evenodd" fill-opacity="0.15">
        <g id="Artboard" transform="translate(-173.000000, -132.000000)" fill="#0091FF" stroke="#0091FF" stroke-width="2">
            <path d="M177.755948,133.80737 C176.420248,132.777244 175.018007,140.283355 175.346399,144.796373 C175.565327,147.805052 176.36851,152.305405 177.755948,158.297434 C178.671777,162.110861 178.671777,166.150632 177.755948,170.416748 C176.382204,176.815922 176.05966,186.113546 175.346399,191.501962 C174.633138,196.890378 173.378399,203.417263 174.362399,208.852163 C175.346399,214.287062 180.773474,214.287062 185.541907,214.77419 C195.777806,215.819858 204.802654,211.268625 204.802654,210.386589 C204.802654,208.447186 205.73417,208.103982 205.73417,201.279388 C205.73417,196.729658 204.751262,192.257825 202.785445,187.863888 C201.479917,179.215724 200.827152,172.556284 200.827152,167.885568 C200.827152,160.879495 200.335138,140.354913 198.859152,138.101574 C197.383166,135.848235 189.081704,150.999161 184.876896,149.80214 C180.672088,148.60512 179.091648,134.837497 177.755948,133.80737 Z" id="male-font-arm-left-outline" transform="translate(189.867085, 174.320371) scale(-1, 1) translate(-189.867085, -174.320371) "></path>
        </g>
    </g>
</svg>