<?xml version="1.0" encoding="UTF-8"?>
<svg width="49px" height="73px" viewBox="0 0 49 73" version="1.1" xmlns="http://www.w3.org/2000/svg" xmlns:xlink="http://www.w3.org/1999/xlink">
    <title>male-front-hand-left-outline</title>
    <g id="Page-1" stroke="none" stroke-width="1" fill="none" fill-rule="evenodd" fill-opacity="0.15">
        <g id="Artboard" transform="translate(-185.000000, -300.000000)" fill="#007BFF" stroke="#0091FF" stroke-width="2">
            <path d="M211.24992,302 C206.986744,305.119934 204.000939,307.925452 202.292505,310.416554 C200.584071,312.907656 198.73646,316.117009 196.749673,320.044613 C194.88836,324.807133 193.543631,327.607603 192.715485,328.446021 C189.402591,331.800011 186.651402,332.10201 186.651402,332.10201 C186.651402,332.10201 185.881513,334.32969 186.651402,335.33871 C187.40623,336.327992 190.807878,336.064032 191.032325,336.064032 C191.246411,336.064032 193.447269,335.815981 196.30656,334.232461 C197.091556,333.797718 198.386801,332.788263 200.192295,331.204095 C199.482496,337.077114 198.984555,341.124554 198.698472,343.346417 C197.403883,353.400845 196.749673,358.784942 196.749673,359.166063 C196.749673,359.533855 196.474794,360.722924 196.749673,362.625679 C196.819259,363.107363 197.080894,363.922622 197.534579,365.071457 C198.832041,365.435494 199.717946,365.575598 200.192295,365.491767 C200.666644,365.407937 201.366714,364.877232 202.292505,363.899653 L203.440935,360.471996 C204.086562,355.713924 204.652584,352.020675 205.139001,349.392247 C205.625417,346.76382 206.475412,342.805408 207.688984,337.517012 C208.06163,336.883871 208.372108,336.567301 208.620419,336.567301 C208.868731,336.567301 209.26578,336.883871 209.811566,337.517012 C208.747904,339.77233 207.90026,343.924296 207.268636,349.972911 C206.637012,356.021526 206.328885,362.937552 206.344255,370.720987 C207.276853,371.358683 208.035574,371.702187 208.620419,371.751497 C209.205264,371.800808 210.081764,371.457304 211.24992,370.720987 C212.025033,369.499287 212.476054,368.428698 212.602982,367.50922 C213.463895,361.272693 213.386095,355.390537 213.87942,352.15481 C214.481845,348.203497 215.187234,343.952027 215.995589,339.400402 C216.989264,339.188778 217.491267,339.366194 217.501596,339.932651 C217.570949,343.735869 216.65505,348.545759 216.545793,349.972911 C215.842007,359.166063 216.545793,367.50922 216.545793,367.50922 C216.545793,367.50922 215.983852,368.460302 216.545793,368.743331 C216.809893,368.876348 217.626648,368.876348 218.99606,368.743331 C219.611309,368.538837 220.056132,368.321128 220.330529,368.090204 C220.604926,367.85928 221.105368,367.430976 221.831853,366.805291 L222.903919,356.239016 L224.778011,338.945747 L226.229511,338.41446 L225.68604,359.166063 C225.8149,359.889288 225.996057,360.324599 226.229511,360.471996 C226.462965,360.619393 226.971273,360.619393 227.754435,360.471996 C228.334799,360.288757 228.763483,360.119998 229.040489,359.965718 C229.317495,359.811439 229.670403,359.544887 230.099215,359.166063 L231.103433,355.601921 L232.123777,336.87807 C232.451554,331.045642 232.615442,326.77565 232.615442,324.068094 C232.615442,321.360538 232.111439,317.760307 231.103433,313.267401 L230.099215,302.447602 C225.985802,302.499875 222.729574,302.499875 220.330529,302.447602 C217.931485,302.395328 214.904615,302.246128 211.24992,302 Z" id="male-front-hand-left-outline" transform="translate(209.462336, 336.878070) scale(-1, 1) translate(-209.462336, -336.878070) "></path>
        </g>
    </g>
</svg>