<?xml version="1.0" encoding="UTF-8"?>
<svg width="68px" height="90px" viewBox="0 0 68 90" version="1.1" xmlns="http://www.w3.org/2000/svg" xmlns:xlink="http://www.w3.org/1999/xlink">
    <title>male-front-head-outline</title>
    <g id="Page-1" stroke="none" stroke-width="1" fill="none" fill-rule="evenodd" fill-opacity="0.15">
        <g id="Artboard" transform="translate(-89.000000, -1.000000)" fill="#0091FF" stroke="#0091FF" stroke-width="2">
            <path d="M95.535768,23.2233348 C96.3146018,17.2109136 105.386476,2.89973196 122.794952,2.89973196 C140.203428,2.89973196 148.385144,16.4184392 149.754043,22.4423008 C150.666643,26.4582086 150.666643,32.589875 149.754043,40.8372999 C152.084384,39.1071447 153.658039,38.9048826 154.475008,40.2305135 C155.350153,41.6505424 155.400972,43.5463775 154.475008,47.5 C154.104358,49.0825794 153.423253,50.7472918 152.776094,53.1974368 C151.266829,58.911525 149.106628,60.8701967 146.295493,59.073452 C145.526926,60.7904066 145.142643,62.373302 145.142643,63.8221383 C145.142643,65.2709745 145.142643,67.1626167 145.142643,69.4970648 C144.169324,73.7556887 143.250419,76.3386603 142.385928,77.2459798 C141.089192,78.6069589 136.829089,82.313627 136.006253,83.5857223 C135.64841,84.1389441 130.358414,88.5842783 128.083542,89.3573275 C127.275274,89.6319937 124.817325,89.6319937 120.709695,89.3573275 C118.802656,89.6911553 116.666219,89.4988669 114.300383,88.7804624 C111.934547,88.0620579 107.740285,83.392575 101.717597,74.7720139 C99.7800457,71.6819063 98.8112703,68.0319478 98.8112703,63.8221383 C98.8112703,59.6123287 98.8112703,58.3382827 98.8112703,60 C96.8886801,60.6369425 95.5372347,59.549846 94.7569342,56.7387106 C93.5864833,52.5220074 89.9193641,44.2316073 91.115336,40.8372999 C92.311308,37.4429924 93.0404196,39.3403548 94.7569342,41.4938084 C96.4734487,43.6472619 94.7569342,29.2357559 95.535768,23.2233348 Z" id="male-front-head-outline"></path>
        </g>
    </g>
</svg>