<?xml version="1.0" encoding="UTF-8"?>
<svg width="60px" height="53px" viewBox="0 0 60 53" version="1.1" xmlns="http://www.w3.org/2000/svg" xmlns:xlink="http://www.w3.org/1999/xlink">
    <title>male-front-shoulder-left-outline copy</title>
    <g id="Page-1" stroke="none" stroke-width="1" fill="none" fill-rule="evenodd" fill-opacity="0.16">
        <g id="Artboard" transform="translate(-144.000000, -98.000000)" fill="#0091FF" stroke="#0091FF" stroke-width="2">
            <path d="M145,128.21145 C147.00495,123.345467 148.546495,119.990108 149.624637,118.145374 C153.002419,112.365884 156.57963,109.006061 159.78085,107.420426 C166.881697,103.903217 176.848667,99.6818428 177.078823,99.6818428 C179.863716,99.6818428 183.477571,102.121479 188.453586,103.841618 C194.652428,105.984471 201.721176,106.942957 202.264546,108.508079 C203.244098,111.329575 172.859864,117.231045 166.709581,130.687017 C160.559298,144.14299 155.978814,147.983687 153.139527,149.459035 C150.30024,150.934383 148.628852,144.30505 147.50746,140.664807 C146.759866,138.237979 145.924046,134.08686 145,128.21145 Z" id="male-front-shoulder-left-outline-copy" transform="translate(173.643854, 124.675782) scale(-1, 1) translate(-173.643854, -124.675782) "></path>
        </g>
    </g>
</svg>