<?xml version="1.0" encoding="UTF-8"?>
<svg width="121px" height="68px" viewBox="0 0 121 68" version="1.1" xmlns="http://www.w3.org/2000/svg" xmlns:xlink="http://www.w3.org/1999/xlink">
    <title>male-front-chest-outline</title>
    <g id="Page-1" stroke="none" stroke-width="1" fill="none" fill-rule="evenodd" fill-opacity="0.16">
        <g id="Artboard" transform="translate(-62.000000, -107.000000)" fill="#0091FF" stroke="#0091FF" stroke-width="2">
            <path d="M64,139.529607 C63.3830243,134.160619 63.6136073,130.553758 64.6917488,128.709024 C68.0695309,122.929534 75.57963,120.324219 78.7808501,118.738583 C85.8816973,115.221375 99.964227,108.951012 100.194383,108.951012 C102.979276,108.951012 113.601799,111 124.241501,111 C126.675988,111 134.715799,107.695798 143.061489,108.951012 C148.909213,109.830525 153.920584,114.779823 161.482004,116.833818 C177.921777,121.299543 180.655657,135.254408 180.912403,135.993939 C181.390637,137.371441 180.318419,163.975134 163.026577,171.552177 C154.286203,175.382086 141.267065,170.862861 129.759156,169.579543 C117.400959,168.201405 106.717085,169.951734 102.829197,171.552177 C88.1583938,177.591386 78.0054283,169.699372 72.4824789,164.963597 C66.9595295,160.227822 67.6288522,155.623207 66.5074603,151.982964 C65.7598656,149.556136 64.9240455,145.405017 64,139.529607 Z" id="male-front-chest-outline"></path>
        </g>
    </g>
</svg>