<?xml version="1.0" encoding="UTF-8"?>
<svg width="102px" height="71px" viewBox="0 0 102 71" version="1.1" xmlns="http://www.w3.org/2000/svg" xmlns:xlink="http://www.w3.org/1999/xlink">
    <title>male-front-groin-outline</title>
    <g id="Page-1" stroke="none" stroke-width="1" fill="none" fill-rule="evenodd" fill-opacity="0.15">
        <g id="Artboard" transform="translate(-68.000000, -254.000000)" fill="#007BFF" stroke="#0091FF" stroke-width="2">
            <path d="M69.7494452,255.375337 C68.958559,255.942628 71.5341579,259.051446 74.7869281,262.932426 C79.7735887,268.882163 87.5596052,277.825951 91.9551633,284.966444 C94.5665825,289.20864 96.0512104,296.717803 99.6332484,303.818258 C101.672865,307.861265 104.443106,312.797533 107.943972,318.627063 C112.478043,321.839217 115.263649,323.472668 116.300789,323.527417 C120.374955,323.742485 124.429783,319.7963 125.716613,318.627063 C130.582007,314.206278 132.534942,309.099874 134.789613,306.330373 C139.464756,300.587712 142.762957,290.874832 145.430381,287.647955 C148.81244,283.556559 152.641153,280.867168 155.39357,277.335605 C165.049165,264.946732 169.310159,258.105635 168.17655,256.812313 C148.521357,262.953458 132.999124,265.954937 121.60985,265.816749 C104.525939,265.609467 71.7527997,253.938361 69.7494452,255.375337 Z" id="male-front-groin-outline"></path>
        </g>
    </g>
</svg>