<?xml version="1.0" encoding="UTF-8"?>
<svg width="40px" height="80px" viewBox="0 0 40 80" version="1.1" xmlns="http://www.w3.org/2000/svg" xmlns:xlink="http://www.w3.org/1999/xlink">
    <title>male-front-forearm-left-outline</title>
    <g id="Page-1" stroke="none" stroke-width="1" fill="none" fill-rule="evenodd" fill-opacity="0.15">
        <g id="Artboard" transform="translate(-172.000000, -207.000000)" fill="#0091FF" stroke="#0091FF" stroke-width="2">
            <path d="M177.857562,208.932115 C176.521862,208.018842 173.697962,215.148528 174.026355,219.149604 C174.245283,221.816989 174.325637,229.366584 174.267419,241.798391 C176.582217,254.481445 177.501862,262.415362 177.026355,265.600144 C176.313094,270.377316 173.636728,283.530595 177.026355,284.758444 C186.479518,288.182732 197.371702,283.590024 197.371702,282.808044 C197.371702,281.08864 198.038777,277.533984 200.204894,271.662511 C202.371011,265.791038 202.483952,267.950338 205.234773,255.315472 C207.985593,242.680607 207.68274,239.941978 207.68274,233.73065 C207.68274,227.519322 211.168035,214.079597 209.692049,212.081869 C208.991873,211.13419 204.46685,214.177443 200.204894,215.28334 C195.482558,216.508697 190.920655,215.841147 188.710518,215.28334 C186.792868,214.799352 183.868165,216.503486 181.972044,215.28334 C179.710565,213.828086 178.584101,209.428879 177.857562,208.932115 Z" id="male-front-forearm-left-outline" transform="translate(192.028196, 247.432025) scale(-1, 1) translate(-192.028196, -247.432025) "></path>
        </g>
    </g>
</svg>