<?xml version="1.0" encoding="UTF-8"?>
<svg width="85px" height="98px" viewBox="0 0 85 98" version="1.1" xmlns="http://www.w3.org/2000/svg" xmlns:xlink="http://www.w3.org/1999/xlink">
    <title>S-1</title>
    <g id="Page-1" stroke="none" stroke-width="1" fill="none" fill-rule="evenodd">
        <g id="Spine/Disabled" transform="translate(-52.000000, -477.000000)" fill="#FFFAF0" stroke="#FEEBC8">
            <g id="Sacral" transform="translate(52.975129, 478.167415)">
                <path d="M63.0148371,70.0594273 C63.0148371,74.9739014 63.38536,78.7384219 64.1264058,81.352989 C65.7175806,84.9516057 65.9937284,88.1168643 67.6277219,91.3821335 C67.9434377,94.357636 77.7701403,98.4544572 77.7701403,91.6944722 C77.7701403,87.1878155 78.6025282,83.7406545 80.2673041,81.352989 C82.7307343,75.9728717 83.6026183,70.7704384 82.882956,65.7456894 C81.6975027,61.7572165 80.9481858,58.6163511 80.6350053,56.3230932 C80.8225216,52.3451374 80.3001957,49.3211178 79.0680276,47.2510345 C77.3596205,44.5606152 76.475387,41.9231107 76.4153274,39.3385209 C76.1970307,32.47251 74.0426943,28.2867562 69.9523182,26.7812594 C64.4721979,25.0835899 62.1597042,21.6933672 63.0148371,16.6105911 C62.54494,12.7049375 59.0663201,10.4643387 52.5789775,9.88879469 C42.7800261,9.51727026 40.7506267,5.09005872 38.6481864,1.67133521 C36.545746,-1.74738829 30.5636244,0.856075058 30.5636244,2.61480494 C30.5636244,3.78729153 30.1158501,4.49043557 29.2203016,4.72423706 C12.7809868,7.45660308 3.43661723,9.72074057 1.18719282,11.5166495 C-2.18694379,14.210513 1.26391705,27.141317 16.2953855,34.2862909 C16.7263017,34.5938342 16.7263017,35.1070385 16.2953855,35.8259037 C11.8670638,45.9479091 20.6688384,51.9633127 42.7007093,53.8721145 C46.9103902,54.1598281 49.6252304,55.3205456 52.5789775,58.9891529 C54.5481423,61.4348911 56.6498769,62.6689878 58.8841814,62.6914431 C60.1538007,63.4897441 61.0273625,64.2491328 61.5048668,64.9696093 C61.9823711,65.6900859 62.4856945,67.3866918 63.0148371,70.0594273 Z" id="S-1"></path>
            </g>
        </g>
    </g>
</svg>