<?xml version="1.0" encoding="UTF-8"?>
<svg width="38px" height="78px" viewBox="0 0 38 78" version="1.1" xmlns="http://www.w3.org/2000/svg" xmlns:xlink="http://www.w3.org/1999/xlink">
    <title>Left Forearm</title>
    <g id="Page-1" stroke="none" stroke-width="1" fill="none" fill-rule="evenodd" fill-opacity="0.25">
        <g id="Male/Front/Focus" transform="translate(-175.000000, -208.000000)" fill="#4299E1" stroke="#4299E1" stroke-width="2">
            <path d="M180.072545,209.321047 C179.036575,211.569405 176.58508,216.040754 176.321608,225.772733 C176.058136,235.504713 175.603077,246.397122 177.754036,263.176688 C179.904995,279.956253 177.717186,283.527626 178.959193,283.684984 C187.44854,284.76056 200.169342,283.590024 200.169342,282.808044 C200.169342,281.08864 201.441726,276.811881 202.792189,271.882155 C204.142653,266.952429 205.097916,263.176688 208.251756,252.124459 C211.405596,241.07223 211.507481,218.766759 210.630617,218.766759 C210.158962,218.766759 210.369016,222.483838 205.77301,224.599127 C202.38142,226.160089 193.990231,217.14808 193.030767,217.14808 C192.320308,217.14808 187.662539,223.537095 186.315103,223.537095 C184.967667,223.537095 180.612653,208.148857 180.072545,209.321047 Z" id="Left-Forearm" transform="translate(193.598102, 246.687820) scale(-1, 1) translate(-193.598102, -246.687820) "></path>
        </g>
    </g>
</svg>