<?xml version="1.0" encoding="UTF-8"?>
<svg width="35px" height="73px" viewBox="0 0 35 73" version="1.1" xmlns="http://www.w3.org/2000/svg" xmlns:xlink="http://www.w3.org/1999/xlink">
    <title>Left Arm</title>
    <g id="Page-1" stroke="none" stroke-width="1" fill="none" fill-rule="evenodd" fill-opacity="0.25">
        <g id="Male/Front/Focus" transform="translate(-172.000000, -132.000000)" fill="#4299E1" stroke="#4299E1" stroke-width="2">
            <path d="M176.480668,164.670323 C174.678096,168.208364 175.519072,175.082288 174.805811,180.470704 C174.09255,185.859121 173.006002,191.845209 173.990002,197.280108 C179.027767,197.280108 180.376683,196.79298 185.145117,197.280108 C195.381016,198.325776 203.756569,204.729906 203.756569,203.84787 C203.756569,201.908467 205.487753,199.979627 205.086123,197.280108 C197.450543,175.807825 199.79877,159.832337 199.79877,152.826264 C197.748415,141.992033 198.259886,136.497412 196.7839,134.244073 C187.643768,147.750927 182.077254,158.515257 178.99502,163.273094 C177.827172,165.075824 176.975983,163.698131 176.480668,164.670323 Z" id="Left-Arm" transform="translate(189.371610, 169.087538) scale(-1, 1) translate(-189.371610, -169.087538) "></path>
        </g>
    </g>
</svg>