<?xml version="1.0" encoding="UTF-8"?>
<svg width="43px" height="98px" viewBox="0 0 43 98" version="1.1" xmlns="http://www.w3.org/2000/svg" xmlns:xlink="http://www.w3.org/1999/xlink">
    <title>Right Lower-Leg</title>
    <g id="Page-1" stroke="none" stroke-width="1" fill="none" fill-rule="evenodd" fill-opacity="0.25">
        <g id="Male/Front/Focus" transform="translate(-73.000000, -458.000000)" fill="#4299E1" stroke="#4299E1" stroke-width="2">
            <path d="M75.8452627,460.205813 C72.0546994,482.940629 74.0198694,503.183603 81.7407725,520.934733 C86.4418683,535.516403 89.4182629,546.548454 90.6699562,554.030886 C95.5656917,553.894811 102.513883,553.826773 111.51453,553.826773 C114.471697,553.826773 110.347967,559.791084 113.351798,513.787674 C113.385732,513.615344 113.418007,513.439977 113.451101,513.265029 C115.812137,500.783569 114.692709,483.097163 110.092815,460.205813 C107.047714,462.72917 104.4396,464.181995 102.268474,464.564286 C96.8733798,465.514252 88.6720567,464.564286 86.0430652,464.564286 C82.1571135,464.564286 78.757846,463.111462 75.8452627,460.205813 Z" id="Right-Lower-Leg"></path>
        </g>
    </g>
</svg>