<?xml version="1.0" encoding="UTF-8"?>
<svg width="62px" height="33px" viewBox="0 0 62 33" version="1.1" xmlns="http://www.w3.org/2000/svg" xmlns:xlink="http://www.w3.org/1999/xlink">
    <title>L-1</title>
    <g id="Page-1" stroke="none" stroke-width="1" fill="none" fill-rule="evenodd">
        <g id="Spine/Disabled" transform="translate(-56.000000, -361.000000)" fill="#FFFFF0" stroke="#FEFCBF">
            <g id="Lumbar" transform="translate(47.107661, 361.493645)">
                <path d="M39.3341555,4.72023742 C30.360121,1.23025831 22.4384566,-0.32444407 15.5691622,0.0561302814 C12.4896052,3.98362976 10.6823138,9.61165402 10.147288,16.940203 C13.9012928,20.5464841 21.9223509,22.612823 34.2104623,23.1392198 C36.0570111,23.1392198 36.9802855,21.8361745 36.9802855,19.230084 C37.1382228,17.0501511 37.9228461,16.0375071 39.3341555,16.1921522 C45.3284464,17.2953941 46.5382879,20.5980161 42.5221597,26.5200948 C41.2674875,29.2941837 43.9484396,24.7281306 48.0589342,29.1564076 C49.1733479,30.0666366 49.6484914,28.9262571 49.4843649,25.735269 C49.7373266,23.5872923 51.586273,23.5171113 55.031204,25.524726 C57.9852228,26.9884122 56.8735132,26.2198199 63.6378785,30.4445165 C70.6171109,34.3441716 70.6171109,21.9185541 67.7172161,19.6515831 C65.6153176,17.7276064 65.2635572,16.5613538 51.8722636,12.7824137 C50.5908407,12.3023703 50.6547357,11.3337113 52.0639488,9.87643663 L54.7645278,6.9101058 C53.1316741,3.52893471 51.2142902,2.44468953 49.012376,3.65737025 C46.7904249,4.48416717 46.8052613,5.82371043 45.4480069,6.9101058 C44.3534441,7.50477937 43.4702882,8.15819076 42.0530319,7.2290521 C41.5224984,6.77506296 40.8319354,5.87848903 40.4701671,5.56078474 C40.0574937,5.19837566 39.6788232,4.91819322 39.3341555,4.72023742 Z" id="L-1"></path>
            </g>
        </g>
    </g>
</svg>