<?xml version="1.0" encoding="UTF-8"?>
<svg width="69px" height="26px" viewBox="0 0 69 26" version="1.1" xmlns="http://www.w3.org/2000/svg" xmlns:xlink="http://www.w3.org/1999/xlink">
    <title>L-4</title>
    <g id="Page-1" stroke="none" stroke-width="1" fill="none" fill-rule="evenodd">
        <g id="Spine/Disabled" transform="translate(-46.000000, -432.000000)" fill="#FFFFF0" stroke="#FEFCBF">
            <g id="Lumbar" transform="translate(47.107661, 361.493645)">
                <path d="M38.2041402,73.2649207 C35.8167808,77.0058032 33.1176504,77.5652384 30.1067492,74.9432263 C23.8582908,74.6312815 0.933823333,73.7417357 0.406465219,78.8839703 C0.0789245517,82.077798 -0.531774515,88.6250532 0.953736376,94.5028724 C3.51722784,97.291128 21.2014057,95.7292175 31.2980097,93.490389 C33.0497438,92.9359323 32.1752669,89.8200173 32.1752669,87.5893082 C32.1752669,85.1092516 37.308739,82.8593467 40.5928089,85.4711399 C41.905823,86.515369 40.692213,90.1598481 40.5928089,93.1064539 C41.4211467,92.5765316 43.2911797,91.7629171 46.0497192,94.8018482 C47.8887455,96.8278022 48.349165,95.1994989 47.4309775,89.9169383 C46.6865126,87.1174823 51.189024,86.6547177 60.9385119,88.5286445 C69.1146853,91.1660995 67.7796175,79.1973839 65.9553394,76.7070929 C64.7654291,75.0827665 63.2807412,74.7483848 61.7655316,74.4923558 C58.2254836,73.8941845 53.592796,74.9022838 47.8674687,77.5166536 C46.3156954,78.0436381 45.0030308,78.1753843 43.929475,77.911892 C42.8559193,77.6483998 42.8559193,76.5085544 43.929475,74.4923558 C44.3872909,73.0821239 43.7011559,72.0560093 41.8710699,71.4140122 C40.040984,70.7720152 38.8186741,71.3889846 38.2041402,73.2649207 Z" id="L-4"></path>
            </g>
        </g>
    </g>
</svg>