<svg width="84" height="85" viewBox="0 0 84 85" fill="none" xmlns="http://www.w3.org/2000/svg">
<rect x="0.5" y="1.05469" width="83" height="83" rx="4.5" fill="#D8E9FB" stroke="#2094FF"/>
<rect x="16.5" y="17.0547" width="51" height="51" rx="4.5" fill="#F8F8FA" stroke="#1E0E62"/>
<path d="M20.0417 40.2217C20.3639 40.2217 20.625 40.4828 20.625 40.805V41.9717H29.375V40.805C29.375 40.4828 29.6362 40.2217 29.9584 40.2217C30.2805 40.2217 30.5417 40.4828 30.5417 40.805V44.305C30.5417 44.6272 30.2805 44.8883 29.9584 44.8883C29.6362 44.8883 29.375 44.6272 29.375 44.305V43.1383H20.625V44.305C20.625 44.6272 20.3639 44.8883 20.0417 44.8883C19.7195 44.8883 19.4584 44.6272 19.4584 44.305V40.805C19.4584 40.4828 19.7195 40.2217 20.0417 40.2217Z" fill="#C7C3D8"/>
<path d="M44.3334 20.596C44.3334 20.9182 44.0722 21.1794 43.75 21.1794L42.5834 21.1794L42.5834 29.9294L43.75 29.9294C44.0722 29.9294 44.3334 30.1905 44.3334 30.5127C44.3334 30.8349 44.0722 31.096 43.75 31.096L40.25 31.096C39.9279 31.096 39.6667 30.8349 39.6667 30.5127C39.6667 30.1905 39.9279 29.9294 40.25 29.9294L41.4167 29.9294L41.4167 21.1794L40.25 21.1794C39.9279 21.1794 39.6667 20.9182 39.6667 20.596C39.6667 20.2739 39.9279 20.0127 40.25 20.0127L43.75 20.0127C44.0722 20.0127 44.3334 20.2739 44.3334 20.596Z" fill="#C7C3D8"/>
<path d="M54.0417 40.2217C54.3639 40.2217 54.625 40.4828 54.625 40.805V41.9717H63.375V40.805C63.375 40.4828 63.6362 40.2217 63.9584 40.2217C64.2805 40.2217 64.5417 40.4828 64.5417 40.805V44.305C64.5417 44.6272 64.2805 44.8883 63.9584 44.8883C63.6362 44.8883 63.375 44.6272 63.375 44.305V43.1383H54.625V44.305C54.625 44.6272 54.3639 44.8883 54.0417 44.8883C53.7195 44.8883 53.4584 44.6272 53.4584 44.305V40.805C53.4584 40.4828 53.7195 40.2217 54.0417 40.2217Z" fill="#C7C3D8"/>
<path d="M44.3334 54.596C44.3334 54.9182 44.0722 55.1794 43.75 55.1794L42.5834 55.1794L42.5834 63.9294L43.75 63.9294C44.0722 63.9294 44.3334 64.1905 44.3334 64.5127C44.3334 64.8349 44.0722 65.096 43.75 65.096L40.25 65.096C39.9279 65.096 39.6667 64.8349 39.6667 64.5127C39.6667 64.1905 39.9279 63.9294 40.25 63.9294L41.4167 63.9294L41.4167 55.1794L40.25 55.1794C39.9279 55.1794 39.6667 54.9182 39.6667 54.596C39.6667 54.2739 39.9279 54.0127 40.25 54.0127L43.75 54.0127C44.0722 54.0127 44.3334 54.2739 44.3334 54.596Z" fill="#C7C3D8"/>
<path d="M71.0417 40.2217C71.3639 40.2217 71.625 40.4828 71.625 40.805V41.9717H80.375V40.805C80.375 40.4828 80.6362 40.2217 80.9584 40.2217C81.2805 40.2217 81.5417 40.4828 81.5417 40.805V44.305C81.5417 44.6272 81.2805 44.8883 80.9584 44.8883C80.6362 44.8883 80.375 44.6272 80.375 44.305V43.1383H71.625V44.305C71.625 44.6272 71.3639 44.8883 71.0417 44.8883C70.7195 44.8883 70.4584 44.6272 70.4584 44.305V40.805C70.4584 40.4828 70.7195 40.2217 71.0417 40.2217Z" fill="#2094FF"/>
<path d="M44.3334 71.596C44.3334 71.9182 44.0722 72.1794 43.75 72.1794L42.5834 72.1794L42.5834 80.9294L43.75 80.9294C44.0722 80.9294 44.3334 81.1905 44.3334 81.5127C44.3334 81.8349 44.0722 82.096 43.75 82.096L40.25 82.096C39.9279 82.096 39.6667 81.8349 39.6667 81.5127C39.6667 81.1905 39.9279 80.9294 40.25 80.9294L41.4167 80.9294L41.4167 72.1794L40.25 72.1794C39.9279 72.1794 39.6667 71.9182 39.6667 71.596C39.6667 71.2739 39.9279 71.0127 40.25 71.0127L43.75 71.0127C44.0722 71.0127 44.3334 71.2739 44.3334 71.596Z" fill="#2094FF"/>
<path d="M3.04171 40.2217C3.36387 40.2217 3.62504 40.4828 3.62504 40.805V41.9717H12.375V40.805C12.375 40.4828 12.6362 40.2217 12.9584 40.2217C13.2805 40.2217 13.5417 40.4828 13.5417 40.805V44.305C13.5417 44.6272 13.2805 44.8883 12.9584 44.8883C12.6362 44.8883 12.375 44.6272 12.375 44.305V43.1383H3.62504V44.305C3.62504 44.6272 3.36387 44.8883 3.04171 44.8883C2.71954 44.8883 2.45837 44.6272 2.45837 44.305V40.805C2.45837 40.4828 2.71954 40.2217 3.04171 40.2217Z" fill="#2094FF"/>
<path d="M44.3334 3.59603C44.3334 3.91819 44.0722 4.17936 43.75 4.17936L42.5834 4.17936L42.5834 12.9294L43.75 12.9294C44.0722 12.9294 44.3334 13.1905 44.3334 13.5127C44.3334 13.8349 44.0722 14.096 43.75 14.096L40.25 14.096C39.9279 14.096 39.6667 13.8349 39.6667 13.5127C39.6667 13.1905 39.9279 12.9294 40.25 12.9294L41.4167 12.9294L41.4167 4.17936L40.25 4.17936C39.9279 4.17936 39.6667 3.91819 39.6667 3.59603C39.6667 3.27386 39.9279 3.0127 40.25 3.0127L43.75 3.0127C44.0722 3.0127 44.3334 3.27386 44.3334 3.59603Z" fill="#2094FF"/>
<rect x="33.5" y="34.0547" width="17" height="17" rx="4.5" fill="#F8F8FA" stroke="#C7C3D8"/>
</svg>
