<?xml version="1.0" encoding="UTF-8"?>
<svg width="68px" height="89px" viewBox="0 0 68 89" version="1.1" xmlns="http://www.w3.org/2000/svg" xmlns:xlink="http://www.w3.org/1999/xlink">
    <title>Head</title>
    <g id="Page-1" stroke="none" stroke-width="1" fill="none" fill-rule="evenodd" fill-opacity="0.25">
        <g id="Male/Front/Active" transform="translate(-90.000000, -2.000000)" fill="#F56565" stroke="#F56565" stroke-width="2">
            <path d="M96.2687279,29.8272255 C95.0459809,14.5618368 109.003952,3.10678876 123.995218,3.10678876 C137.411974,3.10678876 149.179066,8.80823094 150.376435,29.8272255 C150.376435,36.4447423 150.376435,39.7911324 150.376435,39.8663958 C154.381131,37.6680638 156.383478,38.8886598 156.383478,43.5281837 C156.383478,50.4874696 155.010409,50.6835385 152.435787,56.6005781 C150.719373,60.5452712 148.935222,61.2836439 147.083334,58.8156962 C146.011742,68.6293745 145.310063,74.0551249 144.978299,75.0929475 C144.741532,75.8335997 141.688625,78.6658682 137.884021,82.8479974 C136.790364,84.0501759 134.768089,85.7035255 131.817194,87.8080463 C130.489939,88.7539533 128.894488,89.2269069 127.030842,89.2269069 C125.167195,89.2269069 121.990248,89.2269069 117.5,89.2269069 C115.100556,89.3936496 112.724467,88.2652101 110.371734,85.8415882 C108.019001,83.4179663 105.084594,79.2555859 101.568512,73.354447 C100.372559,71.0741733 99.7745831,68.6442904 99.7745831,66.0647985 C99.7745831,63.4853066 99.6380036,61.5886471 99.3648445,60.37482 C97.1638143,60.5481924 95.7241931,59.2083705 95.0459809,56.3553544 C94.0286627,52.0758303 91.1444884,44.9143102 91.6704698,41.0402175 C92.0211241,38.457489 93.5538768,38.330881 96.2687279,40.6603933 C96.2687279,41.3756389 96.2687279,37.764583 96.2687279,29.8272255 Z" id="Head"></path>
        </g>
    </g>
</svg>