<?xml version="1.0" encoding="UTF-8"?>
<svg width="53px" height="58px" viewBox="0 0 53 58" version="1.1" xmlns="http://www.w3.org/2000/svg" xmlns:xlink="http://www.w3.org/1999/xlink">
    <title>Left Shoulder</title>
    <g id="Page-1" stroke="none" stroke-width="1" fill="none" fill-rule="evenodd" fill-opacity="0.25">
        <g id="Male/Front/Active" transform="translate(-153.000000, -108.000000)" fill="#F56565" stroke="#F56565" stroke-width="2">
            <path d="M157.207801,141.551574 C157.926199,129.710024 161.352656,123.125687 162.929227,120.314951 C167.55107,112.075055 176.103829,109.662758 176.333985,109.662758 C179.118878,109.662758 183.447899,111.152544 188.540738,112.174379 C194.9162,113.453561 200.776508,114.363067 204.753218,115.26987 C197.930109,118.172485 191.533534,118.172485 182.92057,130.687017 C174.307606,143.20155 172.507079,147.499945 170.059589,150.563163 C167.6121,153.62638 160.733241,167.402143 159.964176,163.57597 C159.195111,159.749797 156.489404,153.393124 157.207801,141.551574 Z" id="Left-Shoulder" transform="translate(180.920435, 136.952340) scale(-1, 1) translate(-180.920435, -136.952340) "></path>
        </g>
    </g>
</svg>