<?xml version="1.0" encoding="UTF-8"?>
<svg width="56px" height="45px" viewBox="0 0 56 45" version="1.1" xmlns="http://www.w3.org/2000/svg" xmlns:xlink="http://www.w3.org/1999/xlink">
    <title>Th-8</title>
    <g id="Page-1" stroke="none" stroke-width="1" fill="none" fill-rule="evenodd">
        <g id="Spine/Active" transform="translate(-90.000000, -256.000000)" fill="#48BB78" stroke="#48BB78">
            <g id="Thoracic" transform="translate(66.703419, 130.583935)">
                <path d="M56.7795835,130.714851 C55.6293819,132.8996 56.2970464,133.991974 58.7825771,133.991974 C62.5108731,133.991974 67.586783,135.659177 67.586783,139.031328 C67.586783,142.403478 68.1219025,145.82743 70.1073629,147.086797 C73.7796896,151.251633 77.0120293,155.657725 77.825224,161.083266 C78.8895801,168.184527 75.8316936,172.861601 72.8214114,165.640147 C68.9330651,156.172465 66.1082698,153.183745 63.8489074,152.329364 C59.7842917,150.792324 55.7117577,153.183745 55.7117577,152.329364 C55.7117577,144.298874 50.2711234,148.480146 51.1573337,147.086797 C56.8823105,138.40025 50.2711234,136.33745 48.3885151,137.794244 C47.1169275,138.88472 47.332903,140.543724 47.332903,142.179638 C47.332903,145.965923 45.8312993,146.298103 43.7914059,146.48026 C36.2603645,147.152759 30.3943066,146.674738 26.1932321,145.046198 C24.5148811,145.493201 24.0952934,143.277885 24.9344689,138.40025 C25.7736444,133.522616 27.1537593,131.083799 29.0748136,131.083799 C35.9401401,131.104382 40.8456709,130.981399 43.7914059,130.714851 C46.7845018,130.714851 48.8931741,129.643276 50.1174228,127.500125 C51.9836579,126.090781 53.6560689,125.741205 55.1346557,126.451397 C56.6132425,127.161589 57.1615517,128.58274 56.7795835,130.714851 Z" id="Th-8"></path>
            </g>
        </g>
    </g>
</svg>