<?xml version="1.0" encoding="UTF-8"?>
<svg width="92px" height="35px" viewBox="0 0 92 35" version="1.1" xmlns="http://www.w3.org/2000/svg" xmlns:xlink="http://www.w3.org/1999/xlink">
    <title>Neck</title>
    <g id="Page-1" stroke="none" stroke-width="1" fill="none" fill-rule="evenodd" fill-opacity="0.25">
        <g id="Male/Front/Active" transform="translate(-76.000000, -75.000000)" fill="#F56565" stroke="#F56565" stroke-width="2">
            <path d="M99.5211119,85.5456698 C95.1974974,89.0031449 82.1130539,95.3074318 78.1291828,98.315571 C81.7789105,99.5590499 87.3099172,103.07557 92.339245,103.673185 C100.289569,104.617891 107.140968,102.453083 112.216979,104.308878 C116.24861,105.782846 121.523903,108.749434 124.746713,108.749434 C128.892146,108.749434 131.651568,104.838101 135.722721,104.308878 C144.328046,104.838101 147.459131,104.838101 166.041332,98.9250413 C166.041332,98.1198596 159.847265,93.6600691 147.459131,85.5456698 C145.690319,84.4466985 144.873086,82.2140566 145.007432,78.8477441 C145.208951,73.7982755 143.201299,77.2017683 139.966661,80.6553518 C136.732024,84.1089352 131.699017,88.39096 129.344575,89.0031449 C126.990133,89.6153298 121.842975,89.2868296 116.726209,89.2868296 C113.315032,89.2868296 109.707483,86.183994 105.903561,79.9783228 C104.537363,78.1164721 103.681269,77.1855467 103.335277,77.1855467 C102.81629,77.1855467 104.855893,82.1898296 99.5211119,85.5456698 Z" id="Neck"></path>
        </g>
    </g>
</svg>