<?xml version="1.0" encoding="UTF-8"?>
<svg width="54px" height="30px" viewBox="0 0 54 30" version="1.1" xmlns="http://www.w3.org/2000/svg" xmlns:xlink="http://www.w3.org/1999/xlink">
    <title>Th-2</title>
    <g id="Page-1" stroke="none" stroke-width="1" fill="none" fill-rule="evenodd">
        <g id="Spine/Disabled" transform="translate(-83.000000, -146.000000)" fill="#F0FFF4" stroke="#C6F6D5">
            <g id="Thoracic" transform="translate(66.703419, 130.583935)">
                <path d="M34.2265397,19.4303566 C31.3887546,23.2773871 26.9157702,25.8846593 20.8075866,27.2521734 C18.4206351,27.6856008 17.2271594,28.7763211 17.2271594,30.5243343 L17.2271594,34.7082204 C17.5393057,38.2786333 18.6497389,40.0638397 20.5584592,40.0638397 C23.4215396,40.0638397 32.5435732,39.3683861 34.4944659,37.3294094 C35.795061,35.9700917 36.0818497,34.4036421 35.3548319,32.6300608 C35.0640548,30.8683252 34.9186663,29.4155563 34.9186663,28.2717542 C34.2265397,26.1397487 39.6477222,24.2818868 40.3089549,29.0455777 C40.4184615,30.4568342 40.4844055,32.3443818 40.5067871,34.7082204 C43.0018436,32.3485432 44.6013809,33.2222728 45.3053991,37.3294094 C45.5582784,37.7895502 46.2304386,37.6455524 47.3218797,36.897416 C48.6714006,36.0766253 50.4649559,36.0766253 52.7025457,36.897416 C56.0589303,38.1286019 54.6616836,36.9230292 66.5317345,44.0422951 C69.5080237,45.1371027 70.1095621,44.085822 68.3363496,40.8884528 C65.1866726,36.5095548 59.6047576,32.1265126 51.5906047,27.7393261 C49.8101364,26.4380658 48.7357066,24.8643656 48.3673151,23.0182255 C48.0529991,21.7264008 46.0558795,21.7264008 42.3759562,23.0182255 C41.4017009,23.3055407 40.5537941,22.2609375 39.8322358,19.884416 C39.4023316,18.8955671 39.0739037,18.2410263 38.846952,17.9207934 C38.2538001,17.0838456 37.5944197,16.7418689 37.1020738,16.7032248 C36.3271559,16.6424017 35.3686445,17.5514456 34.2265397,19.4303566 Z" id="Th-2"></path>
            </g>
        </g>
    </g>
</svg>