<?xml version="1.0" encoding="UTF-8"?>
<svg width="55px" height="44px" viewBox="0 0 55 44" version="1.1" xmlns="http://www.w3.org/2000/svg" xmlns:xlink="http://www.w3.org/1999/xlink">
    <title>Th-5</title>
    <g id="Page-1" stroke="none" stroke-width="1" fill="none" fill-rule="evenodd">
        <g id="Spine/Disabled" transform="translate(-92.000000, -195.000000)" fill="#F0FFF4" stroke="#C6F6D5">
            <g id="Thoracic" transform="translate(66.703419, 130.583935)">
                <path d="M48.679112,67.4253145 C45.1825093,72.2203077 38.8131018,74.4404336 29.5708895,74.0856921 C27.57135,74.0856921 26.6210917,75.4804571 26.7201145,78.269987 C26.0645873,83.8052495 26.4535128,86.977616 27.886891,87.7870866 C29.5708895,88.7380899 34.9101837,89.6538666 44.5420376,86.7509407 C46.6662819,86.0700497 46.9437623,84.5478302 46.9437623,82.0536957 C46.9437623,79.5595612 46.9444557,77.2171716 47.4573161,76.8998626 C48.2003831,76.4401237 49.9865534,76.921186 50.7965811,77.3884495 C51.3622734,77.7147683 51.2119999,78.8914217 51.6860051,79.7355442 C51.6860051,81.1417005 51.1899811,83.1939456 50.1979333,85.8922794 C53.2925026,84.6932659 55.263492,85.6418694 56.1109015,88.7380899 C57.6755902,88.3873544 59.183572,88.6926133 60.6348468,89.6538666 C63.5598868,91.4707043 68.9605792,97.0961861 76.8369239,106.530312 C77.3421314,106.98278 80.5605381,110.501695 79.3916009,103.961912 C78.2226636,97.4221286 72.7605085,88.2695335 63.2261676,79.7355442 C62.7156129,77.6448728 63.2261676,75.5121863 63.2261676,74.6178044 C63.2261676,73.7234224 61.4785604,72.5861529 57.9721765,73.1602066 C56.7279323,73.1602066 56.367978,73.7116627 55.4027307,72.5861529 C54.4374833,71.4606432 54.967262,70.4358588 54.967262,69.52413 C53.7086101,65.1542955 51.6125601,64.4546903 48.679112,67.4253145 Z" id="Th-5"></path>
            </g>
        </g>
    </g>
</svg>