<?xml version="1.0" encoding="UTF-8"?>
<svg width="55px" height="43px" viewBox="0 0 55 43" version="1.1" xmlns="http://www.w3.org/2000/svg" xmlns:xlink="http://www.w3.org/1999/xlink">
    <title>Th-6</title>
    <g id="Page-1" stroke="none" stroke-width="1" fill="none" fill-rule="evenodd">
        <g id="Spine/Disabled" transform="translate(-93.000000, -215.000000)" fill="#F0FFF4" stroke="#C6F6D5">
            <g id="Thoracic" transform="translate(66.703419, 130.583935)">
                <path d="M49.1366236,86.7509407 C44.5924869,91.5142164 45.7485623,93.2230071 29.9610114,92.4746961 C25.7719536,93.5184088 26.9564521,105.91861 28.6503619,106.393471 C33.1363648,107.206518 40.7686611,107.175026 45.0167314,106.393471 C49.2648017,105.611916 47.0485845,99.395965 47.0485845,98.1335939 C47.0485845,96.8712229 54.4606846,93.9214221 50.7965811,105.886588 C49.2648017,108.875388 53.90192,101.710375 55.6610671,109.636925 C56.130703,110.589981 58.3841667,107.630529 62.0251068,110.436034 C64.6465325,112.455958 66.2400496,113.195166 70.2734916,117.522742 C71.8421616,119.205805 73.7364645,121.326043 76.2062205,124.626125 C79.6454765,127.829018 80.1530268,124.626125 79.6454765,122.285988 C79.1379263,119.945851 77.0043512,111.212991 65.1104445,101.395718 C63.6389665,100.023115 63.3109655,98.1153302 64.1264416,95.672364 C64.441272,92.3323345 62.2983362,91.2664452 57.6976342,92.4746961 C56.3399228,92.7478221 55.7922917,91.3280409 56.0547408,88.2153524 C55.3655682,86.6645919 54.6264092,85.7940994 53.8372638,85.603875 C52.6535459,85.3185383 50.3152413,85.603875 49.1366236,86.7509407 Z" id="Th-6"></path>
            </g>
        </g>
    </g>
</svg>