<?xml version="1.0" encoding="UTF-8"?>
<svg width="54px" height="43px" viewBox="0 0 54 43" version="1.1" xmlns="http://www.w3.org/2000/svg" xmlns:xlink="http://www.w3.org/1999/xlink">
    <title>Th-7</title>
    <g id="Page-1" stroke="none" stroke-width="1" fill="none" fill-rule="evenodd">
        <g id="Spine/Disabled" transform="translate(-93.000000, -235.000000)" fill="#F0FFF4" stroke="#C6F6D5">
            <g id="Thoracic" transform="translate(66.703419, 130.583935)">
                <path d="M49.9885528,107.089684 C49.0770216,107.829991 48.4175996,108.401944 48.010287,108.805544 C46.4516878,110.349934 45.0739709,111.638571 43.647181,111.861687 C39.0213599,112.585055 35.2347029,112.372062 29.5396864,111.861687 C27.9127751,111.580968 27.0993194,112.890918 27.0993194,115.791534 C26.2852651,122.361152 27.2390198,125.910104 29.9605837,126.43839 C31.8455645,126.804285 34.674089,127.349573 37.8037518,127.410473 C39.7589458,127.448519 42.0336179,127.141065 43.647181,126.964583 C48.010287,126.487374 48.98575,126.491309 48.4875004,119.089942 C48.4875004,116.745543 52.236063,117.428934 53.4562555,120.306021 C54.1205017,121.872244 53.573663,124.022845 52.3274716,125.97545 C51.8976996,126.43839 57.0376094,124.914414 56.8115081,129.790813 C56.5854067,134.667212 56.8115081,119.089942 76.0988507,145.005086 C78.761478,150.565359 83.4747863,139.809962 67.9511134,122.77011 C66.5455003,121.39741 66.2137647,119.27228 66.9559067,116.394717 C66.4287832,114.56525 64.7194733,113.460331 61.827977,113.079959 C57.4907326,112.509401 55.6610671,114.572634 55.6610671,109.636925 C54.7336066,105.575058 52.8427685,104.725978 49.9885528,107.089684 Z" id="Th-7"></path>
            </g>
        </g>
    </g>
</svg>