<?xml version="1.0" encoding="UTF-8"?>
<svg width="56px" height="44px" viewBox="0 0 56 44" version="1.1" xmlns="http://www.w3.org/2000/svg" xmlns:xlink="http://www.w3.org/1999/xlink">
    <title>Th-9</title>
    <g id="Page-1" stroke="none" stroke-width="1" fill="none" fill-rule="evenodd">
        <g id="Spine/Disabled" transform="translate(-87.000000, -277.000000)" fill="#F0FFF4" stroke="#C6F6D5">
            <g id="Thoracic" transform="translate(66.703419, 130.583935)">
                <path d="M47.6438022,148.746482 C46.0874914,150.228813 43.7678306,150.969979 40.6848199,150.969979 C36.1529053,150.683676 30.9240919,149.794556 26.3447779,149.422675 C22.7151339,149.422675 20.8889453,154.078461 20.8662122,163.390034 C24.7066951,166.153032 31.3128976,167.310944 40.6848199,166.863771 C41.7169922,166.863771 42.8115496,164.224697 43.9842219,160.258395 C45.1568941,156.292093 52.4896052,161.813583 45.8833628,169.256424 C45.2267446,170.486645 53.3066832,165.789634 53.3066832,173.894794 C52.8631992,178.705574 63.3637913,167.748146 70.3722325,187.814489 C70.3722325,194.826679 83.8022674,180.630716 68.1544231,168.782422 C65.5226044,167.214448 66.2579451,164.277707 66.2579451,161.273184 C65.5226044,158.855994 63.5348895,156.947253 60.0282551,156.947253 C56.3291635,157.439931 54.7455433,156.197655 55.2773945,153.220426 C55.3555746,149.776782 54.9016811,147.836033 53.915714,147.398177 C52.9297469,146.96032 50.8391096,147.409756 47.6438022,148.746482 Z" id="Th-9"></path>
            </g>
        </g>
    </g>
</svg>