<?xml version="1.0" encoding="UTF-8"?>
<svg width="117px" height="119px" viewBox="0 0 117 119" version="1.1" xmlns="http://www.w3.org/2000/svg" xmlns:xlink="http://www.w3.org/1999/xlink">
    <title>Abdomen</title>
    <g id="Page-1" stroke="none" stroke-width="1" fill="none" fill-rule="evenodd" fill-opacity="0.25">
        <g id="Male/Front/Hover" transform="translate(-63.000000, -142.000000)" fill="#A0AEC0" stroke="#A0AEC0" stroke-width="2">
            <path d="M65.0339215,149.669722 C64.7890092,161.090815 65.1493611,170.204289 66.1149771,177.010145 C66.8711492,182.339798 68.9284588,189.708135 71.2681522,199.70843 C71.7001829,201.555012 72.3031996,204.762526 73.0772023,209.330974 C73.6907137,212.239245 74.1541703,215.134962 74.4675721,218.018122 C74.7809739,220.901283 74.7809739,224.812466 74.4675721,229.751671 C73.4666934,235.347639 72.7347387,239.317944 72.271708,241.662586 C71.5771619,245.179549 104.483516,259.60026 121.952023,259.60026 C139.420529,259.60026 168.598922,245.048669 168.598922,242.458574 C168.598922,232.270322 167.178453,224.898516 167.813561,219.57303 C168.372878,214.883067 168.724256,212.219629 170.85501,204.634991 C171.282532,203.113183 172.326204,200.126483 173.986026,195.674891 C176.35699,187.84821 177.854022,181.626628 178.477123,177.010145 C179.100224,172.393661 179.100224,164.664219 178.477123,153.821817 C174.22377,163.891866 169.781986,169.654492 165.151771,171.109695 C149.651452,175.981198 128.982155,170.059699 120.109818,169.660791 C117.448482,169.541135 112.78323,170.024685 108.189446,171.109695 C102.463622,172.462083 96.4769897,174.480947 90.3036172,174.320371 C84.5167389,174.169848 80.2463709,170.353533 75.2500039,168.129895 C71.2224439,166.337425 67.817083,160.184034 65.0339215,149.669722 Z" id="Abdomen"></path>
        </g>
    </g>
</svg>