<?xml version="1.0" encoding="UTF-8"?>
<svg width="55px" height="39px" viewBox="0 0 55 39" version="1.1" xmlns="http://www.w3.org/2000/svg" xmlns:xlink="http://www.w3.org/1999/xlink">
    <title>Th-11</title>
    <g id="Page-1" stroke="none" stroke-width="1" fill="none" fill-rule="evenodd">
        <g id="Spine/Default" transform="translate(-72.000000, -318.000000)" fill="#9AE6B4" stroke="#48BB78">
            <g id="Thoracic" transform="translate(66.703419, 130.583935)">
                <path d="M41.6868668,191.205196 C38.0946737,193.51452 32.2836979,193.51452 24.2539394,191.205196 C19.5893144,190.186992 16.6295922,189.423949 15.3747727,188.916065 C12.4393903,188.213724 10.727739,188.715512 10.2398186,190.421429 C9.27807941,193.30338 8.4624142,194.208102 7.5071874,197.9597 C6.999732,202.666921 1.20766995,206.357225 29.616555,210.098865 C32.7365846,208.159351 32.0904059,206.561049 33.193042,204.141207 C34.2956781,201.721365 34.0819235,201.927249 34.7555708,201.792755 C39.1451379,200.916381 40.1940714,204.141207 39.605737,206.952779 C39.5803812,207.073951 38.7496912,208.390409 38.6900533,208.507888 C37.8644156,209.568539 37.5689381,210.826909 37.8036208,212.282999 C39.5182267,212.563841 40.5940858,214.457188 41.0311982,217.96304 C41.2478378,218.616974 42.1486205,218.021632 43.7335465,216.177015 C45.9543404,214.6091 49.1826875,216.865158 53.4185877,222.945188 C58.45162,229.968645 60.3925586,219.346356 58.932567,215.950552 C57.4725754,212.554748 54.6507338,210.694517 52.3894024,207.994912 C50.7965811,205.573305 51.7940226,201.169244 51.4212792,200.295623 C51.0485359,199.422002 49.9776473,198.867265 47.9440933,197.464976 C46.6597712,196.579339 48.4108569,193.524433 45.6495325,191.205196 C44.6716188,190.383847 43.3507302,190.383847 41.6868668,191.205196 Z" id="Th-11"></path>
            </g>
        </g>
    </g>
</svg>