<?xml version="1.0" encoding="UTF-8"?>
<svg width="55px" height="42px" viewBox="0 0 55 42" version="1.1" xmlns="http://www.w3.org/2000/svg" xmlns:xlink="http://www.w3.org/1999/xlink">
    <title>Th-10</title>
    <g id="Page-1" stroke="none" stroke-width="1" fill="none" fill-rule="evenodd">
        <g id="Spine/Default" transform="translate(-81.000000, -299.000000)" fill="#9AE6B4" stroke="#48BB78">
            <g id="Thoracic" transform="translate(66.703419, 130.583935)">
                <path d="M45.7247841,169.521622 C43.5775407,170.163758 42.6467367,171.077927 40.4632358,171.889299 C38.014701,172.221274 35.9562036,171.892642 33.7965811,171.562652 C29.2642031,170.870106 25.6736799,170.189763 23.0250114,169.521622 C19.4523612,168.570309 17.2595296,169.820753 16.4465164,173.272953 C15.6335033,176.725153 15.2830473,179.844739 15.3951485,182.631712 C17.6751883,185.340902 24.0727192,186.81506 34.5877412,187.054184 C35.8696518,187.054184 36.6785568,185.793976 39.0096351,180.320095 C41.6364428,177.194729 46.4824431,181.998033 43.0583871,186.753733 C42.5362539,187.98898 42.2751874,189.344622 42.2751874,190.820659 C45.7258937,189.745705 47.4512468,191.789503 47.4512468,196.952051 C47.4512468,197.986778 54.1704759,193.201394 61.9481227,207.86705 C63.5319683,210.932324 67.1493516,210.019502 67.7982502,205.115967 C68.4471488,200.212431 67.8596293,194.587134 60.8932374,190.820659 C59.0468724,189.67789 58.5917801,188.662756 60.2699514,185.361269 C61.9481227,182.059783 59.558183,178.432892 56.5387127,178.432892 C54.1092066,178.432892 53.0216322,177.151763 53.2759893,174.589506 C53.4074486,171.639007 52.741486,169.949712 51.2781015,169.521622 C49.0830246,168.879485 47.8720275,168.879485 45.7247841,169.521622 Z" id="Th-10"></path>
            </g>
        </g>
    </g>
</svg>