<?xml version="1.0" encoding="UTF-8" standalone="no"?>
<!DOCTYPE svg PUBLIC "-//W3C//DTD SVG 1.1//EN" "http://www.w3.org/Graphics/SVG/1.1/DTD/svg11.dtd">
<svg width="100%" height="100%" viewBox="0 0 2065 1504" version="1.1" xmlns="http://www.w3.org/2000/svg" xmlns:xlink="http://www.w3.org/1999/xlink" xml:space="preserve" xmlns:serif="http://www.serif.com/" style="fill-rule:evenodd;clip-rule:evenodd;stroke-linejoin:round;stroke-miterlimit:2;">
    <g transform="matrix(1,0,0,1,-242.737,-73.2158)">
        <g transform="matrix(4.16667,0,0,4.16667,0,0)">
            <g transform="matrix(1,0,0,1,126.884,249.921)">
                <path d="M0,22.094L-2.788,48.122L-68.627,48.122L-68.627,46.099L-66.166,46.099C-64.015,46.099 -62.283,45.717 -60.972,44.951C-60.024,44.439 -59.294,43.567 -58.784,42.324C-58.383,41.452 -58.182,39.153 -58.182,35.435L-58.182,-13.344C-58.182,-17.133 -58.383,-19.502 -58.784,-20.452C-59.186,-21.398 -59.997,-22.23 -61.217,-22.94C-62.439,-23.649 -64.088,-24.004 -66.166,-24.004L-68.627,-24.004L-68.627,-26.028L-29.091,-26.028L-29.091,-24.004L-32.317,-24.004C-34.469,-24.004 -36.199,-23.623 -37.513,-22.857C-38.461,-22.345 -39.208,-21.472 -39.755,-20.233C-40.156,-19.357 -40.355,-17.062 -40.355,-13.344L-40.355,33.906C-40.355,37.695 -40.136,40.112 -39.7,41.15C-39.262,42.188 -38.406,42.963 -37.13,43.475C-36.219,43.803 -34.012,43.966 -30.512,43.966L-24.333,43.966C-20.396,43.966 -17.115,43.274 -14.49,41.889C-11.866,40.502 -9.596,38.316 -7.682,35.325C-5.768,32.338 -3.955,27.927 -2.242,22.094L0,22.094Z" style="fill:rgb(139,114,54);fill-rule:nonzero;"/>
            </g>
            <g transform="matrix(1,0,0,1,165.327,293.777)">
                <path d="M0,-65.618L0,-35.434L1.476,-35.434C6.179,-35.434 9.587,-36.91 11.702,-39.862C13.816,-42.817 15.165,-47.172 15.749,-52.934L17.827,-52.934L17.827,-14.106L15.749,-14.106C15.311,-18.336 14.389,-21.8 12.987,-24.498C11.582,-27.196 9.952,-29.009 8.093,-29.938C6.233,-30.867 3.535,-31.334 0,-31.334L0,-10.444C0,-6.359 0.172,-3.863 0.519,-2.951C0.865,-2.04 1.512,-1.292 2.46,-0.709C3.408,-0.126 4.938,0.166 7.053,0.166L11.483,0.166C18.41,0.166 23.959,-1.44 28.134,-4.646C32.308,-7.856 35.306,-12.74 37.13,-19.304L39.153,-19.304L35.818,4.266L-28.272,4.266L-28.272,2.243L-25.811,2.243C-23.66,2.243 -21.928,1.861 -20.616,1.095C-19.668,0.583 -18.94,-0.289 -18.429,-1.532C-18.028,-2.404 -17.827,-4.703 -17.827,-8.421L-17.827,-57.199C-17.827,-60.551 -17.918,-62.613 -18.1,-63.376C-18.466,-64.654 -19.14,-65.636 -20.124,-66.331C-21.51,-67.351 -23.406,-67.86 -25.811,-67.86L-28.272,-67.86L-28.272,-69.884L33.794,-69.884L33.794,-47.955L31.716,-47.955C30.657,-53.315 29.172,-57.161 27.259,-59.495C25.345,-61.826 22.638,-63.541 19.139,-64.636C17.096,-65.29 13.268,-65.618 7.655,-65.618L0,-65.618Z" style="fill:rgb(139,114,54);fill-rule:nonzero;"/>
            </g>
            <g transform="matrix(1,0,0,1,290.716,299.738)">
                <path d="M0,-77.54L0,-51.403L-2.023,-51.403C-4.467,-58.546 -8.13,-63.98 -13.014,-67.699C-17.901,-71.417 -23.24,-73.274 -29.036,-73.274C-34.578,-73.274 -39.19,-71.719 -42.871,-68.601C-46.554,-65.483 -49.16,-61.138 -50.691,-55.559C-52.223,-49.98 -52.988,-44.256 -52.988,-38.387C-52.988,-31.279 -52.151,-25.046 -50.473,-19.686C-48.796,-14.326 -46.09,-10.389 -42.352,-7.875C-38.616,-5.36 -34.177,-4.1 -29.036,-4.1C-27.251,-4.1 -25.419,-4.292 -23.542,-4.674C-21.663,-5.059 -19.741,-5.615 -17.772,-6.342L-17.772,-21.763C-17.772,-24.679 -17.973,-26.567 -18.374,-27.425C-18.775,-28.279 -19.605,-29.054 -20.862,-29.747C-22.119,-30.439 -23.642,-30.788 -25.428,-30.788L-27.341,-30.788L-27.341,-32.811L8.695,-32.811L8.695,-30.788C5.96,-30.604 4.055,-30.232 2.98,-29.667C1.905,-29.099 1.075,-28.161 0.493,-26.851C0.164,-26.155 0,-24.461 0,-21.763L0,-6.342C-4.739,-4.227 -9.67,-2.633 -14.792,-1.559C-19.914,-0.482 -25.228,0.056 -30.731,0.056C-37.769,0.056 -43.609,-0.903 -48.258,-2.816C-52.906,-4.73 -57.008,-7.245 -60.562,-10.362C-64.116,-13.48 -66.897,-16.988 -68.901,-20.89C-71.453,-25.919 -72.728,-31.551 -72.728,-37.787C-72.728,-48.941 -68.81,-58.366 -60.972,-66.057C-53.134,-73.748 -43.273,-77.596 -31.388,-77.596C-27.707,-77.596 -24.389,-77.303 -21.436,-76.721C-19.832,-76.428 -17.235,-75.6 -13.644,-74.233C-10.053,-72.866 -7.929,-72.183 -7.272,-72.183C-6.253,-72.183 -5.304,-72.556 -4.43,-73.304C-3.554,-74.049 -2.752,-75.463 -2.023,-77.54L0,-77.54Z" style="fill:rgb(139,114,54);fill-rule:nonzero;"/>
            </g>
            <g transform="matrix(1,0,0,1,349.228,247.516)">
                <path d="M0,25.372L-11.045,-0.165L-22.422,25.372L0,25.372ZM1.858,29.419L-24.336,29.419L-27.451,36.639C-28.474,39.044 -28.983,41.032 -28.983,42.597C-28.983,44.676 -28.146,46.209 -26.469,47.191C-25.484,47.776 -23.058,48.214 -19.195,48.504L-19.195,50.527L-43.856,50.527L-43.856,48.504C-41.197,48.105 -39.008,47.001 -37.295,45.197C-35.583,43.393 -33.467,39.665 -30.95,34.012L-4.431,-25.155L-3.39,-25.155L23.348,35.654C25.901,41.414 27.998,45.04 29.637,46.537C30.876,47.667 32.627,48.321 34.887,48.504L34.887,50.527L-0.985,50.527L-0.985,48.504L0.491,48.504C3.372,48.504 5.396,48.105 6.561,47.3C7.363,46.717 7.765,45.88 7.765,44.786C7.765,44.129 7.655,43.455 7.437,42.762C7.363,42.434 6.815,41.067 5.795,38.66L1.858,29.419Z" style="fill:rgb(139,114,54);fill-rule:nonzero;"/>
            </g>
            <g transform="matrix(1,0,0,1,464.063,299.738)">
                <path d="M0,-77.54L0,-51.84L-2.133,-51.84C-3.739,-58.546 -6.727,-63.687 -11.102,-67.261C-15.477,-70.834 -20.434,-72.621 -25.975,-72.621C-30.607,-72.621 -34.852,-71.29 -38.718,-68.627C-42.581,-65.965 -45.406,-62.483 -47.193,-58.182C-49.488,-52.677 -50.639,-46.554 -50.639,-39.81C-50.639,-33.175 -49.799,-27.132 -48.122,-21.683C-46.445,-16.231 -43.821,-12.114 -40.247,-9.324C-36.677,-6.535 -32.045,-5.141 -26.359,-5.141C-21.691,-5.141 -17.417,-6.162 -13.536,-8.203C-9.652,-10.244 -5.561,-13.761 -1.26,-18.757L-1.26,-12.359C-5.413,-8.02 -9.744,-4.875 -14.246,-2.926C-18.748,-0.976 -24.008,0 -30.021,0C-37.934,0 -44.96,-1.586 -51.103,-4.757C-57.247,-7.928 -61.983,-12.486 -65.32,-18.429C-68.657,-24.369 -70.325,-30.696 -70.325,-37.405C-70.325,-44.475 -68.473,-51.184 -64.773,-57.526C-61.075,-63.871 -56.079,-68.793 -49.79,-72.292C-43.501,-75.792 -36.822,-77.54 -29.749,-77.54C-24.537,-77.54 -19.032,-76.41 -13.234,-74.15C-9.88,-72.84 -7.747,-72.183 -6.836,-72.183C-5.671,-72.183 -4.659,-72.609 -3.801,-73.467C-2.946,-74.325 -2.39,-75.682 -2.133,-77.54L0,-77.54Z" style="fill:rgb(139,114,54);fill-rule:nonzero;"/>
            </g>
            <g transform="matrix(1,0,0,1,553.743,298.043)">
                <path d="M0,-74.15L0,-72.127C-2.443,-71.798 -4.319,-71.088 -5.632,-69.994C-7.457,-68.465 -10.335,-64.288 -14.273,-57.472L-30.35,-30.622L-30.35,-12.687C-30.35,-8.86 -30.149,-6.481 -29.749,-5.55C-29.347,-4.621 -28.554,-3.801 -27.368,-3.088C-26.185,-2.379 -24.608,-2.024 -22.638,-2.024L-18.482,-2.024L-18.482,0L-60.096,0L-60.096,-2.024L-56.215,-2.024C-54.026,-2.024 -52.296,-2.405 -51.021,-3.171C-50.071,-3.683 -49.326,-4.556 -48.778,-5.798C-48.376,-6.671 -48.175,-8.969 -48.175,-12.687L-48.175,-27.561L-65.622,-59.333C-69.086,-65.601 -71.526,-69.293 -72.949,-70.405C-74.369,-71.517 -76.265,-72.091 -78.634,-72.127L-78.634,-74.15L-43.09,-74.15L-43.09,-72.127L-44.676,-72.127C-46.829,-72.127 -48.332,-71.816 -49.187,-71.198C-50.044,-70.577 -50.473,-69.923 -50.473,-69.231C-50.473,-67.917 -49.015,-64.616 -46.098,-59.333L-32.701,-34.778L-19.358,-57.144C-16.042,-62.614 -14.382,-66.24 -14.382,-68.027C-14.382,-69.012 -14.855,-69.831 -15.805,-70.488C-17.044,-71.399 -19.322,-71.946 -22.638,-72.127L-22.638,-74.15L0,-74.15Z" style="fill:rgb(139,114,54);fill-rule:nonzero;"/>
            </g>
            <g transform="matrix(1,0,0,1,307.531,25.0258)">
                <path d="M0,183.604C-59.589,149.104 -80.732,91.432 -85.559,25.717C-72.486,22.728 -62.318,12.216 -59.77,-0.967L59.769,-0.967C62.318,12.216 72.485,22.728 85.559,25.717C80.732,91.432 59.589,149.104 0,183.604M65.638,-7.454L-65.638,-7.454C-65.638,7.506 -77.567,19.68 -92.431,20.075C-88.302,90.982 -66.332,154.379 0,191.058C66.332,154.379 88.302,90.982 92.431,20.075C77.567,19.68 65.638,7.506 65.638,-7.454" style="fill:rgb(139,114,54);"/>
            </g>
            <g transform="matrix(1,0,0,1,307.531,39.873)">
                <path d="M0,153.909C-41.887,126.858 -64.55,84.494 -71.051,21.113C-61.81,16.268 -54.358,8.465 -49.946,-0.996L49.944,-0.996C54.357,8.465 61.809,16.269 71.051,21.114C64.549,84.494 41.887,126.858 0,153.909M53.579,-6.46L-53.58,-6.46C-57.638,4.501 -66.089,13.307 -76.861,17.813C-70.596,86.446 -46.044,131.98 0,160.369C46.044,131.98 70.596,86.446 76.86,17.814C66.088,13.307 57.636,4.501 53.579,-6.46" style="fill:rgb(139,114,54);"/>
            </g>
            <g transform="matrix(1,0,0,1,313.951,66.2972)">
                <path d="M0,67.061L-0.668,67.061C-4.233,67.061 -6.48,66.894 -7.408,66.56C-8.708,66.04 -9.58,65.251 -10.026,64.192C-10.471,63.134 -10.694,60.674 -10.694,56.812L-10.694,8.689C-10.694,4.901 -10.49,2.562 -10.082,1.671C-9.525,0.408 -8.763,-0.483 -7.798,-1.003C-6.461,-1.783 -4.697,-2.172 -2.507,-2.172L0.78,-2.172L0.78,-4.233L-39.49,-4.233L-39.49,-2.172L-36.984,-2.172C-34.867,-2.172 -33.187,-1.81 -31.943,-1.086C-30.699,-0.362 -29.873,0.483 -29.465,1.448C-29.056,2.413 -28.852,4.827 -28.852,8.689L-28.852,58.372C-28.852,62.16 -29.056,64.499 -29.465,65.39C-29.984,66.652 -30.727,67.543 -31.693,68.063C-33.029,68.843 -34.793,69.233 -36.984,69.233L-39.49,69.233L-39.49,71.294L0,71.294L0,67.061Z" style="fill:rgb(139,114,54);fill-rule:nonzero;"/>
            </g>
            <g transform="matrix(1,0,0,1,342.079,137.592)">
                <path d="M0,-26.513C-1.745,-20.572 -3.593,-16.079 -5.542,-13.034C-7.491,-9.989 -9.803,-7.761 -12.476,-6.35C-15.15,-4.939 -18.492,-4.233 -22.502,-4.233L-27.023,-4.233L-27.023,0L-0.557,0L2.283,-26.513L0,-26.513Z" style="fill:rgb(139,114,54);fill-rule:nonzero;"/>
            </g>
            <g transform="matrix(1,0,0,1,148.389,320.705)">
                <path d="M0,29.111L0,29.951L-16.099,29.951L-16.099,29.111L-15.077,29.111C-14.184,29.111 -13.464,28.951 -12.92,28.634C-12.526,28.423 -12.223,28.058 -12.011,27.543C-11.845,27.181 -11.762,26.226 -11.762,24.683L-11.762,4.427C-11.762,2.854 -11.845,1.871 -12.011,1.476C-12.178,1.082 -12.515,0.738 -13.022,0.442C-13.529,0.149 -14.215,-0.001 -15.077,-0.001L-16.099,-0.001L-16.099,-0.84L0,-0.84L0,-0.001L-1.021,-0.001C-1.914,-0.001 -2.634,0.159 -3.179,0.476C-3.572,0.69 -3.883,1.052 -4.109,1.567C-4.276,1.929 -4.359,2.884 -4.359,4.427L-4.359,24.683C-4.359,26.258 -4.272,27.242 -4.099,27.634C-3.924,28.029 -3.584,28.373 -3.076,28.668C-2.57,28.962 -1.885,29.111 -1.021,29.111L0,29.111Z" style="fill:rgb(139,114,54);fill-rule:nonzero;"/>
            </g>
            <g transform="matrix(1,0,0,1,162.671,351.36)">
                <path d="M0,-31.495L15.19,-12.399L15.19,-25.635C15.19,-27.483 14.926,-28.73 14.396,-29.384C13.669,-30.261 12.451,-30.685 10.74,-30.655L10.74,-31.495L20.913,-31.495L20.913,-30.655C19.61,-30.487 18.737,-30.271 18.291,-30.007C17.844,-29.741 17.495,-29.312 17.246,-28.712C16.996,-28.115 16.871,-27.088 16.871,-25.635L16.871,0L16.099,0L-4.723,-25.635L-4.723,-6.062C-4.723,-4.292 -4.319,-3.095 -3.508,-2.474C-2.699,-1.853 -1.771,-1.544 -0.726,-1.544L0,-1.544L0,-0.704L-10.922,-0.704L-10.922,-1.544C-9.227,-1.56 -8.046,-1.906 -7.381,-2.589C-6.714,-3.268 -6.381,-4.428 -6.381,-6.062L-6.381,-27.792L-7.039,-28.61C-7.69,-29.429 -8.266,-29.965 -8.766,-30.223C-9.264,-30.479 -9.984,-30.623 -10.922,-30.655L-10.922,-31.495L0,-31.495Z" style="fill:rgb(139,114,54);fill-rule:nonzero;"/>
            </g>
            <g transform="matrix(1,0,0,1,219.417,351.36)">
                <path d="M0,-31.495L0,-30.655C-1.12,-30.474 -2.119,-29.874 -2.996,-28.861C-3.632,-28.104 -4.579,-26.326 -5.836,-23.524L-16.439,0L-17.188,0L-27.748,-24.478C-29.02,-27.429 -29.87,-29.162 -30.302,-29.677C-30.734,-30.191 -31.547,-30.519 -32.743,-30.655L-32.743,-31.495L-17.984,-31.495L-17.984,-30.655L-18.483,-30.655C-19.816,-30.655 -20.723,-30.487 -21.209,-30.154C-21.557,-29.927 -21.73,-29.594 -21.73,-29.154C-21.73,-28.882 -21.67,-28.562 -21.549,-28.189C-21.427,-27.819 -21.019,-26.824 -20.322,-25.203L-13.76,-9.877L-7.675,-23.524C-6.949,-25.174 -6.502,-26.28 -6.336,-26.84C-6.169,-27.4 -6.085,-27.877 -6.085,-28.269C-6.085,-28.725 -6.206,-29.125 -6.449,-29.474C-6.691,-29.821 -7.047,-30.087 -7.515,-30.269C-8.167,-30.525 -9.029,-30.655 -10.104,-30.655L-10.104,-31.495L0,-31.495Z" style="fill:rgb(139,114,54);fill-rule:nonzero;"/>
            </g>
            <g transform="matrix(1,0,0,1,234.199,348.882)">
                <path d="M0,-27.245L0,-14.713L0.613,-14.713C2.566,-14.713 3.98,-15.326 4.859,-16.552C5.737,-17.778 6.297,-19.586 6.539,-21.977L7.402,-21.977L7.402,-5.856L6.539,-5.856C6.357,-7.613 5.974,-9.05 5.392,-10.17C4.809,-11.29 4.132,-12.044 3.36,-12.431C2.589,-12.817 1.468,-13.009 0,-13.009L0,-4.334C0,-2.639 0.071,-1.602 0.215,-1.223C0.359,-0.845 0.628,-0.535 1.021,-0.293C1.414,-0.05 2.05,0.07 2.928,0.07L4.768,0.07C7.644,0.07 9.949,-0.597 11.682,-1.927C13.415,-3.26 14.66,-5.289 15.417,-8.013L16.258,-8.013L14.873,1.773L-11.741,1.773L-11.741,0.934L-10.718,0.934C-9.825,0.934 -9.105,0.774 -8.562,0.456C-8.167,0.246 -7.864,-0.119 -7.652,-0.634C-7.486,-0.996 -7.403,-1.951 -7.403,-3.494L-7.403,-23.75C-7.403,-25.142 -7.441,-25.997 -7.517,-26.315C-7.668,-26.845 -7.948,-27.253 -8.356,-27.541C-8.932,-27.965 -9.719,-28.178 -10.718,-28.178L-11.741,-28.178L-11.741,-29.018L14.032,-29.018L14.032,-19.911L13.17,-19.911C12.73,-22.137 12.114,-23.734 11.319,-24.702C10.524,-25.672 9.4,-26.384 7.947,-26.837C7.099,-27.109 5.509,-27.245 3.178,-27.245L0,-27.245Z" style="fill:rgb(139,114,54);fill-rule:nonzero;"/>
            </g>
            <g transform="matrix(1,0,0,1,276.026,351.384)">
                <path d="M0,-32.223L0.249,-21.959L-0.681,-21.959C-1.121,-24.532 -2.199,-26.603 -3.918,-28.168C-5.636,-29.736 -7.494,-30.519 -9.492,-30.519C-11.036,-30.519 -12.259,-30.106 -13.159,-29.283C-14.06,-28.456 -14.511,-27.507 -14.511,-26.433C-14.511,-25.75 -14.351,-25.145 -14.033,-24.614C-13.595,-23.903 -12.891,-23.199 -11.922,-22.503C-11.21,-22.005 -9.568,-21.119 -6.994,-19.848C-3.391,-18.075 -0.962,-16.403 0.295,-14.828C1.536,-13.255 2.157,-11.453 2.157,-9.424C2.157,-6.852 1.154,-4.636 -0.852,-2.783C-2.858,-0.928 -5.405,0 -8.492,0C-9.461,0 -10.377,-0.099 -11.241,-0.296C-12.103,-0.493 -13.186,-0.864 -14.488,-1.41C-15.214,-1.712 -15.813,-1.864 -16.281,-1.864C-16.675,-1.864 -17.091,-1.712 -17.53,-1.41C-17.97,-1.107 -18.325,-0.645 -18.597,-0.024L-19.437,-0.024L-19.437,-11.65L-18.597,-11.65C-17.931,-8.379 -16.649,-5.886 -14.749,-4.167C-12.848,-2.45 -10.801,-1.592 -8.607,-1.592C-6.911,-1.592 -5.56,-2.053 -4.553,-2.975C-3.547,-3.9 -3.043,-4.975 -3.043,-6.201C-3.043,-6.926 -3.236,-7.63 -3.622,-8.312C-4.008,-8.992 -4.595,-9.64 -5.382,-10.253C-6.169,-10.866 -7.562,-11.666 -9.56,-12.65C-12.36,-14.026 -14.373,-15.199 -15.6,-16.169C-16.826,-17.137 -17.768,-18.219 -18.427,-19.416C-19.085,-20.61 -19.414,-21.927 -19.414,-23.367C-19.414,-25.819 -18.515,-27.91 -16.713,-29.634C-14.912,-31.359 -12.64,-32.223 -9.901,-32.223C-8.901,-32.223 -7.932,-32.1 -6.994,-31.86C-6.282,-31.676 -5.416,-31.341 -4.395,-30.85C-3.372,-30.357 -2.657,-30.112 -2.249,-30.112C-1.855,-30.112 -1.545,-30.232 -1.317,-30.474C-1.09,-30.717 -0.878,-31.298 -0.681,-32.223L0,-32.223Z" style="fill:rgb(139,114,54);fill-rule:nonzero;"/>
            </g>
            <g transform="matrix(1,0,0,1,311.017,350.656)">
                <path d="M0,-30.791L0,-22.457L-0.818,-22.457C-1.304,-24.379 -1.839,-25.76 -2.43,-26.6C-3.02,-27.44 -3.831,-28.112 -4.86,-28.61C-5.436,-28.882 -6.442,-29.018 -7.88,-29.018L-10.173,-29.018L-10.173,-5.268C-10.173,-3.692 -10.086,-2.708 -9.912,-2.316C-9.739,-1.922 -9.399,-1.578 -8.891,-1.282C-8.384,-0.989 -7.691,-0.84 -6.813,-0.84L-5.792,-0.84L-5.792,0L-21.914,0L-21.914,-0.84L-20.891,-0.84C-19.998,-0.84 -19.279,-0.999 -18.735,-1.317C-18.34,-1.527 -18.031,-1.893 -17.803,-2.407C-17.636,-2.77 -17.554,-3.724 -17.554,-5.268L-17.554,-29.018L-19.778,-29.018C-21.852,-29.018 -23.359,-28.581 -24.297,-27.701C-25.614,-26.475 -26.447,-24.729 -26.795,-22.457L-27.657,-22.457L-27.657,-30.791L0,-30.791Z" style="fill:rgb(139,114,54);fill-rule:nonzero;"/>
            </g>
            <g transform="matrix(1,0,0,1,336.493,330.354)">
                <path d="M0,9.811L8.358,-10.49L20.89,-10.49L20.89,-9.65L19.89,-9.65C18.984,-9.65 18.256,-9.49 17.712,-9.173C17.334,-8.96 17.03,-8.605 16.803,-8.104C16.638,-7.741 16.553,-6.795 16.553,-5.267L16.553,15.034C16.553,16.609 16.638,17.593 16.803,17.985C16.971,18.379 17.31,18.723 17.824,19.019C18.339,19.312 19.029,19.462 19.89,19.462L20.89,19.462L20.89,20.301L4.815,20.301L4.815,19.462L5.814,19.462C6.721,19.462 7.449,19.302 7.992,18.984C8.371,18.774 8.675,18.409 8.901,17.894C9.067,17.531 9.152,16.577 9.152,15.034L9.152,-7.787L-2.655,20.301L-3.202,20.301L-15.19,-7.584L-15.19,14.103C-15.19,15.617 -15.153,16.548 -15.078,16.894C-14.881,17.651 -14.452,18.27 -13.793,18.747C-13.135,19.222 -12.103,19.462 -10.696,19.462L-10.696,20.301L-21.231,20.301L-21.231,19.462L-20.914,19.462C-20.232,19.478 -19.597,19.366 -19.005,19.131C-18.416,18.896 -17.968,18.585 -17.667,18.19C-17.363,17.795 -17.128,17.244 -16.961,16.532C-16.931,16.366 -16.915,15.593 -16.915,14.215L-16.915,-5.267C-16.915,-6.827 -17,-7.797 -17.166,-8.184C-17.334,-8.57 -17.672,-8.912 -18.187,-9.208C-18.704,-9.501 -19.392,-9.65 -20.256,-9.65L-21.231,-9.65L-21.231,-10.49L-8.651,-10.49L0,9.811Z" style="fill:rgb(139,114,54);fill-rule:nonzero;"/>
            </g>
            <g transform="matrix(1,0,0,1,372.53,348.882)">
                <path d="M0,-27.245L0,-14.713L0.613,-14.713C2.565,-14.713 3.98,-15.326 4.86,-16.552C5.737,-17.778 6.297,-19.586 6.539,-21.977L7.403,-21.977L7.403,-5.856L6.539,-5.856C6.358,-7.613 5.974,-9.05 5.393,-10.17C4.809,-11.29 4.132,-12.044 3.359,-12.431C2.589,-12.817 1.469,-13.009 0,-13.009L0,-4.334C0,-2.639 0.072,-1.602 0.216,-1.223C0.36,-0.845 0.626,-0.535 1.021,-0.293C1.416,-0.05 2.05,0.07 2.93,0.07L4.767,0.07C7.643,0.07 9.949,-0.597 11.682,-1.927C13.415,-3.26 14.66,-5.289 15.417,-8.013L16.257,-8.013L14.873,1.773L-11.741,1.773L-11.741,0.934L-10.717,0.934C-9.827,0.934 -9.107,0.774 -8.56,0.456C-8.168,0.246 -7.864,-0.119 -7.654,-0.634C-7.486,-0.996 -7.403,-1.951 -7.403,-3.494L-7.403,-23.75C-7.403,-25.142 -7.441,-25.997 -7.518,-26.315C-7.667,-26.845 -7.947,-27.253 -8.358,-27.541C-8.933,-27.965 -9.72,-28.178 -10.717,-28.178L-11.741,-28.178L-11.741,-29.018L14.033,-29.018L14.033,-19.911L13.17,-19.911C12.73,-22.137 12.114,-23.734 11.319,-24.702C10.525,-25.672 9.4,-26.384 7.947,-26.837C7.099,-27.109 5.51,-27.245 3.178,-27.245L0,-27.245Z" style="fill:rgb(139,114,54);fill-rule:nonzero;"/>
            </g>
            <g transform="matrix(1,0,0,1,404.092,351.36)">
                <path d="M0,-31.495L15.19,-12.399L15.19,-25.635C15.19,-27.483 14.926,-28.73 14.396,-29.384C13.671,-30.261 12.45,-30.685 10.741,-30.655L10.741,-31.495L20.914,-31.495L20.914,-30.655C19.61,-30.487 18.736,-30.271 18.291,-30.007C17.843,-29.741 17.496,-29.312 17.246,-28.712C16.995,-28.115 16.87,-27.088 16.87,-25.635L16.87,0L16.099,0L-4.724,-25.635L-4.724,-6.062C-4.724,-4.292 -4.319,-3.095 -3.508,-2.474C-2.698,-1.853 -1.77,-1.544 -0.728,-1.544L0,-1.544L0,-0.704L-10.922,-0.704L-10.922,-1.544C-9.227,-1.56 -8.046,-1.906 -7.379,-2.589C-6.713,-3.268 -6.38,-4.428 -6.38,-6.062L-6.38,-27.792L-7.038,-28.61C-7.691,-29.429 -8.264,-29.965 -8.766,-30.223C-9.264,-30.479 -9.984,-30.623 -10.922,-30.655L-10.922,-31.495L0,-31.495Z" style="fill:rgb(139,114,54);fill-rule:nonzero;"/>
            </g>
            <g transform="matrix(1,0,0,1,457.069,350.656)">
                <path d="M0,-30.791L0,-22.457L-0.818,-22.457C-1.304,-24.379 -1.839,-25.76 -2.431,-26.6C-3.02,-27.44 -3.831,-28.112 -4.86,-28.61C-5.436,-28.882 -6.444,-29.018 -7.88,-29.018L-10.173,-29.018L-10.173,-5.268C-10.173,-3.692 -10.088,-2.708 -9.912,-2.316C-9.739,-1.922 -9.397,-1.578 -8.891,-1.282C-8.384,-0.989 -7.691,-0.84 -6.814,-0.84L-5.79,-0.84L-5.79,0L-21.914,0L-21.914,-0.84L-20.89,-0.84C-19.997,-0.84 -19.28,-0.999 -18.733,-1.317C-18.341,-1.527 -18.03,-1.893 -17.803,-2.407C-17.638,-2.77 -17.552,-3.724 -17.552,-5.268L-17.552,-29.018L-19.778,-29.018C-21.852,-29.018 -23.359,-28.581 -24.297,-27.701C-25.614,-26.475 -26.446,-24.729 -26.795,-22.457L-27.659,-22.457L-27.659,-30.791L0,-30.791Z" style="fill:rgb(139,114,54);fill-rule:nonzero;"/>
            </g>
            <g transform="matrix(1,0,0,1,482.227,351.384)">
                <path d="M0,-32.223L0.251,-21.959L-0.682,-21.959C-1.12,-24.532 -2.199,-26.603 -3.916,-28.168C-5.636,-29.736 -7.494,-30.519 -9.491,-30.519C-11.037,-30.519 -12.258,-30.106 -13.159,-29.283C-14.06,-28.456 -14.511,-27.507 -14.511,-26.433C-14.511,-25.75 -14.351,-25.145 -14.033,-24.614C-13.593,-23.903 -12.89,-23.199 -11.922,-22.503C-11.21,-22.005 -9.568,-21.119 -6.995,-19.848C-3.391,-18.075 -0.962,-16.403 0.296,-14.828C1.536,-13.255 2.157,-11.453 2.157,-9.424C2.157,-6.852 1.154,-4.636 -0.853,-2.783C-2.858,-0.928 -5.404,0 -8.494,0C-9.461,0 -10.378,-0.099 -11.239,-0.296C-12.103,-0.493 -13.186,-0.864 -14.487,-1.41C-15.214,-1.712 -15.811,-1.864 -16.281,-1.864C-16.675,-1.864 -17.091,-1.712 -17.531,-1.41C-17.968,-1.107 -18.325,-0.645 -18.597,-0.024L-19.437,-0.024L-19.437,-11.65L-18.597,-11.65C-17.931,-8.379 -16.649,-5.886 -14.748,-4.167C-12.85,-2.45 -10.802,-1.592 -8.606,-1.592C-6.91,-1.592 -5.561,-2.053 -4.553,-2.975C-3.546,-3.9 -3.042,-4.975 -3.042,-6.201C-3.042,-6.926 -3.236,-7.63 -3.623,-8.312C-4.007,-8.992 -4.596,-9.64 -5.382,-10.253C-6.169,-10.866 -7.56,-11.666 -9.56,-12.65C-12.362,-14.026 -14.375,-15.199 -15.601,-16.169C-16.827,-17.137 -17.768,-18.219 -18.427,-19.416C-19.085,-20.61 -19.416,-21.927 -19.416,-23.367C-19.416,-25.819 -18.515,-27.91 -16.713,-29.634C-14.91,-31.359 -12.642,-32.223 -9.901,-32.223C-8.901,-32.223 -7.934,-32.1 -6.995,-31.86C-6.284,-31.676 -5.417,-31.341 -4.393,-30.85C-3.372,-30.357 -2.658,-30.112 -2.247,-30.112C-1.855,-30.112 -1.544,-30.232 -1.317,-30.474C-1.09,-30.717 -0.88,-31.298 -0.682,-32.223L0,-32.223Z" style="fill:rgb(139,114,54);fill-rule:nonzero;"/>
            </g>
            <g transform="matrix(1,0,0,1,129.611,378.428)">
                <path d="M0,-9.145L14.609,0L14.609,-4.869L341.231,-4.869L341.231,0L355.84,-9.145L0,-9.145Z" style="fill:rgb(139,114,54);fill-rule:nonzero;"/>
            </g>
            <g transform="matrix(1,0,0,1,272.11,202.934)">
                <path d="M0,0.594L-199.244,0.594L-199.244,-4.276L-213.853,4.87L5.016,4.87L0,0.594Z" style="fill:rgb(139,114,54);fill-rule:nonzero;"/>
            </g>
            <g transform="matrix(1,0,0,1,539.134,207.804)">
                <path d="M0,-9.145L0,-4.275L-198.776,-4.275L-204.26,0L14.609,0L0,-9.145Z" style="fill:rgb(139,114,54);fill-rule:nonzero;"/>
            </g>
            <g transform="matrix(495.486,0,0,-495.486,58.2571,323.936)">
                <path d="M-0,0.202L-0,0.198L0.005,0.198C0.009,0.198 0.012,0.197 0.015,0.196C0.017,0.194 0.019,0.193 0.02,0.191C0.021,0.189 0.021,0.184 0.021,0.176L0.021,0.078C0.021,0.07 0.021,0.066 0.02,0.064C0.019,0.061 0.017,0.06 0.015,0.059C0.013,0.057 0.009,0.056 0.005,0.056L-0,0.056L-0,0.052L0.133,0.052L0.139,0.105L0.134,0.105C0.131,0.093 0.127,0.084 0.123,0.078C0.119,0.072 0.115,0.068 0.109,0.065C0.104,0.062 0.097,0.061 0.089,0.061L0.077,0.061C0.07,0.061 0.065,0.061 0.064,0.062C0.061,0.063 0.059,0.064 0.058,0.066C0.057,0.068 0.057,0.073 0.057,0.081L0.057,0.176C0.057,0.184 0.057,0.188 0.058,0.19C0.059,0.193 0.061,0.194 0.063,0.196C0.065,0.197 0.069,0.198 0.073,0.198L0.08,0.198L0.08,0.202L-0,0.202Z" style="fill:url(#_Linear1);fill-rule:nonzero;"/>
            </g>
            <g transform="matrix(495.486,0,0,-495.486,58.2571,323.936)">
                <path d="M0.159,0.202L0.159,0.198L0.164,0.198C0.169,0.198 0.173,0.197 0.175,0.195C0.177,0.193 0.179,0.191 0.18,0.189C0.18,0.187 0.18,0.183 0.18,0.176L0.18,0.078C0.18,0.07 0.18,0.066 0.179,0.064C0.178,0.061 0.176,0.06 0.174,0.059C0.172,0.057 0.168,0.056 0.164,0.056L0.159,0.056L0.159,0.052L0.288,0.052L0.295,0.1L0.291,0.1C0.287,0.087 0.281,0.077 0.273,0.07C0.264,0.064 0.253,0.061 0.239,0.061L0.23,0.061C0.226,0.061 0.223,0.061 0.221,0.062C0.219,0.063 0.218,0.065 0.217,0.067C0.216,0.069 0.216,0.074 0.216,0.082L0.216,0.124C0.223,0.124 0.229,0.123 0.232,0.121C0.236,0.119 0.239,0.116 0.242,0.11C0.245,0.105 0.247,0.098 0.248,0.089L0.252,0.089L0.252,0.168L0.248,0.168C0.247,0.156 0.244,0.147 0.24,0.141C0.235,0.135 0.229,0.132 0.219,0.132L0.216,0.132L0.216,0.193L0.232,0.193C0.243,0.193 0.251,0.193 0.255,0.191C0.262,0.189 0.267,0.186 0.271,0.181C0.275,0.176 0.278,0.168 0.28,0.158L0.284,0.158L0.284,0.202L0.159,0.202Z" style="fill:url(#_Linear2);fill-rule:nonzero;"/>
            </g>
            <g transform="matrix(495.486,0,0,-495.486,58.2571,323.936)">
                <path d="M0.346,0.182C0.33,0.167 0.322,0.148 0.322,0.125C0.322,0.113 0.325,0.101 0.33,0.091C0.334,0.083 0.34,0.076 0.347,0.07C0.354,0.063 0.362,0.058 0.372,0.055C0.381,0.051 0.393,0.049 0.407,0.049C0.418,0.049 0.429,0.05 0.439,0.052C0.45,0.054 0.46,0.057 0.469,0.062L0.469,0.093C0.469,0.098 0.469,0.102 0.47,0.103C0.471,0.106 0.473,0.108 0.475,0.109C0.477,0.11 0.481,0.111 0.487,0.111L0.487,0.115L0.414,0.115L0.414,0.111L0.418,0.111C0.421,0.111 0.425,0.11 0.427,0.109C0.43,0.107 0.431,0.106 0.432,0.104C0.433,0.102 0.433,0.099 0.433,0.093L0.433,0.062C0.429,0.06 0.425,0.059 0.422,0.058C0.418,0.057 0.414,0.057 0.411,0.057C0.4,0.057 0.391,0.06 0.384,0.065C0.376,0.07 0.371,0.078 0.367,0.089C0.364,0.099 0.362,0.112 0.362,0.126C0.362,0.138 0.364,0.15 0.367,0.161C0.37,0.172 0.375,0.181 0.383,0.187C0.39,0.194 0.399,0.197 0.411,0.197C0.422,0.197 0.433,0.193 0.443,0.185C0.453,0.178 0.46,0.167 0.465,0.153L0.469,0.153L0.469,0.205L0.465,0.205C0.464,0.201 0.462,0.198 0.46,0.197C0.458,0.195 0.457,0.195 0.454,0.195C0.453,0.195 0.449,0.196 0.442,0.199C0.434,0.201 0.429,0.203 0.426,0.204C0.42,0.205 0.413,0.205 0.406,0.205C0.382,0.205 0.362,0.198 0.346,0.182Z" style="fill:url(#_Linear3);fill-rule:nonzero;"/>
            </g>
            <g transform="matrix(495.486,0,0,-495.486,58.2571,322.404)">
                <path d="M0.578,0.202L0.525,0.082C0.52,0.071 0.515,0.064 0.512,0.06C0.509,0.056 0.504,0.054 0.499,0.053L0.499,0.049L0.549,0.049L0.549,0.053C0.541,0.054 0.536,0.055 0.534,0.056C0.53,0.058 0.529,0.061 0.529,0.065C0.529,0.068 0.53,0.072 0.532,0.077L0.538,0.092L0.591,0.092L0.599,0.073C0.601,0.068 0.602,0.066 0.602,0.065C0.603,0.063 0.603,0.062 0.603,0.061C0.603,0.059 0.602,0.057 0.6,0.056C0.598,0.054 0.594,0.053 0.588,0.053L0.585,0.053L0.585,0.049L0.658,0.049L0.658,0.053C0.653,0.054 0.65,0.055 0.647,0.057C0.644,0.06 0.64,0.068 0.634,0.079L0.58,0.202L0.578,0.202ZM0.565,0.151L0.587,0.1L0.542,0.1L0.565,0.151Z" style="fill:url(#_Linear4);fill-rule:nonzero;"/>
            </g>
            <g transform="matrix(495.486,0,0,-495.486,58.2571,323.936)">
                <path d="M0.815,0.205C0.814,0.202 0.813,0.199 0.811,0.197C0.81,0.195 0.808,0.195 0.805,0.195C0.803,0.195 0.799,0.196 0.792,0.198C0.781,0.203 0.769,0.205 0.759,0.205C0.745,0.205 0.731,0.202 0.719,0.195C0.706,0.188 0.696,0.178 0.688,0.165C0.681,0.152 0.677,0.139 0.677,0.124C0.677,0.111 0.68,0.098 0.687,0.086C0.694,0.074 0.703,0.065 0.716,0.058C0.728,0.052 0.742,0.049 0.758,0.049C0.771,0.049 0.781,0.051 0.79,0.055C0.799,0.059 0.808,0.065 0.816,0.074L0.816,0.087C0.808,0.077 0.8,0.07 0.792,0.065C0.784,0.061 0.775,0.059 0.766,0.059C0.754,0.059 0.745,0.062 0.738,0.068C0.731,0.073 0.725,0.082 0.722,0.093C0.719,0.104 0.717,0.116 0.717,0.129C0.717,0.143 0.719,0.155 0.724,0.166C0.727,0.175 0.733,0.182 0.741,0.187C0.749,0.193 0.757,0.195 0.767,0.195C0.778,0.195 0.788,0.192 0.797,0.185C0.805,0.177 0.811,0.167 0.815,0.153L0.819,0.153L0.819,0.205L0.815,0.205Z" style="fill:url(#_Linear5);fill-rule:nonzero;"/>
            </g>
            <g transform="matrix(495.486,0,0,-495.486,58.2571,323.936)">
                <path d="M0.954,0.202L0.954,0.198C0.961,0.197 0.966,0.196 0.968,0.195C0.97,0.193 0.971,0.192 0.971,0.19C0.971,0.186 0.968,0.179 0.961,0.168L0.934,0.122L0.907,0.172C0.901,0.183 0.898,0.189 0.898,0.192C0.898,0.193 0.899,0.195 0.901,0.196C0.902,0.197 0.905,0.198 0.91,0.198L0.913,0.198L0.913,0.202L0.841,0.202L0.841,0.198C0.846,0.198 0.85,0.197 0.853,0.194C0.856,0.192 0.861,0.185 0.868,0.172L0.903,0.108L0.903,0.078C0.903,0.07 0.902,0.066 0.902,0.064C0.9,0.061 0.899,0.06 0.897,0.059C0.894,0.057 0.891,0.056 0.887,0.056L0.879,0.056L0.879,0.052L0.963,0.052L0.963,0.056L0.954,0.056C0.95,0.056 0.947,0.057 0.945,0.058C0.942,0.06 0.941,0.062 0.94,0.063C0.939,0.065 0.939,0.07 0.939,0.078L0.939,0.114L0.971,0.168C0.979,0.182 0.985,0.19 0.989,0.194C0.991,0.196 0.995,0.197 1,0.198L1,0.202L0.954,0.202Z" style="fill:url(#_Linear6);fill-rule:nonzero;"/>
            </g>
            <g transform="matrix(495.486,0,0,-495.486,58.2571,35.656)">
                <path d="M0.371,0.036C0.371,0.006 0.347,-0.018 0.317,-0.019C0.325,-0.162 0.369,-0.29 0.503,-0.364C0.637,-0.29 0.681,-0.162 0.69,-0.019C0.66,-0.018 0.636,0.006 0.636,0.036L0.371,0.036ZM0.33,-0.03C0.357,-0.024 0.377,-0.003 0.382,0.023L0.624,0.023C0.629,-0.003 0.649,-0.024 0.676,-0.03C0.666,-0.163 0.623,-0.279 0.503,-0.349C0.383,-0.279 0.34,-0.163 0.33,-0.03Z" style="fill:url(#_Linear7);fill-rule:nonzero;"/>
            </g>
            <g transform="matrix(495.486,0,0,-495.486,58.2571,35.655)">
                <path d="M0.395,0.005C0.387,-0.018 0.37,-0.035 0.348,-0.044C0.361,-0.183 0.41,-0.275 0.503,-0.332C0.596,-0.275 0.646,-0.183 0.658,-0.044C0.636,-0.035 0.619,-0.018 0.611,0.005L0.395,0.005ZM0.36,-0.051C0.378,-0.041 0.393,-0.026 0.402,-0.007L0.604,-0.007C0.613,-0.026 0.628,-0.041 0.646,-0.051C0.633,-0.179 0.588,-0.265 0.503,-0.319C0.419,-0.265 0.373,-0.179 0.36,-0.051Z" style="fill:url(#_Linear8);fill-rule:nonzero;"/>
            </g>
            <g transform="matrix(495.486,0,0,-495.486,58.2571,1.655)">
                <path d="M0.436,-0.122L0.436,-0.126L0.441,-0.126C0.446,-0.126 0.449,-0.127 0.452,-0.128C0.454,-0.13 0.456,-0.131 0.457,-0.133C0.457,-0.135 0.458,-0.14 0.458,-0.148L0.458,-0.248C0.458,-0.256 0.457,-0.261 0.457,-0.262C0.456,-0.265 0.454,-0.267 0.452,-0.268C0.449,-0.269 0.446,-0.27 0.441,-0.27L0.436,-0.27L0.436,-0.274L0.516,-0.274L0.516,-0.266L0.515,-0.266C0.508,-0.266 0.503,-0.265 0.501,-0.265C0.498,-0.264 0.497,-0.262 0.496,-0.26C0.495,-0.258 0.494,-0.253 0.494,-0.245L0.494,-0.148C0.494,-0.14 0.495,-0.136 0.496,-0.134C0.497,-0.131 0.498,-0.129 0.5,-0.128C0.503,-0.127 0.507,-0.126 0.511,-0.126L0.518,-0.126L0.518,-0.122L0.436,-0.122Z" style="fill:url(#_Linear9);fill-rule:nonzero;"/>
            </g>
            <g transform="matrix(495.486,0,0,-495.486,58.2571,50.67)">
                <path d="M0.573,-0.122C0.569,-0.134 0.566,-0.143 0.562,-0.149C0.558,-0.155 0.553,-0.16 0.548,-0.163C0.542,-0.165 0.535,-0.167 0.527,-0.167L0.518,-0.167L0.518,-0.175L0.572,-0.175L0.577,-0.122L0.573,-0.122Z" style="fill:url(#_Linear10);fill-rule:nonzero;"/>
            </g>
            <g transform="matrix(495.486,0,0,-495.486,58.2571,472.521)">
                <path d="M0.149,0.308L0.149,0.306L0.151,0.306C0.153,0.306 0.155,0.306 0.156,0.306C0.157,0.305 0.157,0.304 0.158,0.303C0.158,0.303 0.158,0.301 0.158,0.297L0.158,0.257C0.158,0.253 0.158,0.252 0.158,0.251C0.157,0.25 0.157,0.249 0.156,0.249C0.155,0.248 0.153,0.248 0.151,0.248L0.149,0.248L0.149,0.246L0.182,0.246L0.182,0.248L0.18,0.248C0.178,0.248 0.177,0.248 0.176,0.249C0.175,0.249 0.174,0.25 0.174,0.251C0.173,0.251 0.173,0.253 0.173,0.257L0.173,0.297C0.173,0.301 0.173,0.303 0.174,0.303C0.174,0.304 0.175,0.305 0.175,0.305C0.177,0.306 0.178,0.306 0.18,0.306L0.182,0.306L0.182,0.308L0.149,0.308Z" style="fill:url(#_Linear11);fill-rule:nonzero;"/>
            </g>
            <g transform="matrix(495.486,0,0,-495.486,58.2571,473.225)">
                <path d="M0.232,0.31L0.232,0.308C0.236,0.308 0.238,0.307 0.24,0.305C0.241,0.304 0.241,0.301 0.241,0.298L0.241,0.271L0.211,0.31L0.189,0.31L0.189,0.308C0.191,0.308 0.192,0.307 0.193,0.307C0.194,0.306 0.195,0.305 0.197,0.304L0.198,0.302L0.198,0.258C0.198,0.255 0.197,0.253 0.196,0.251C0.194,0.25 0.192,0.249 0.189,0.249L0.189,0.247L0.211,0.247L0.211,0.249L0.209,0.249C0.207,0.249 0.205,0.25 0.204,0.251C0.202,0.252 0.201,0.255 0.201,0.258L0.201,0.298L0.243,0.246L0.245,0.246L0.245,0.298C0.245,0.301 0.245,0.303 0.246,0.304C0.246,0.305 0.247,0.306 0.248,0.307C0.249,0.307 0.25,0.307 0.253,0.308L0.253,0.31L0.232,0.31Z" style="fill:url(#_Linear12);fill-rule:nonzero;"/>
            </g>
            <g transform="matrix(495.486,0,0,-495.486,58.2571,473.225)">
                <path d="M0.305,0.31L0.305,0.308C0.307,0.308 0.309,0.308 0.31,0.307C0.311,0.307 0.312,0.306 0.312,0.305C0.313,0.305 0.313,0.304 0.313,0.303C0.313,0.302 0.313,0.301 0.312,0.3C0.312,0.299 0.311,0.297 0.31,0.293L0.297,0.266L0.284,0.297C0.283,0.3 0.282,0.302 0.282,0.303C0.282,0.304 0.281,0.304 0.281,0.305C0.281,0.306 0.282,0.306 0.282,0.307C0.283,0.307 0.285,0.308 0.288,0.308L0.289,0.308L0.289,0.31L0.259,0.31L0.259,0.308C0.262,0.308 0.263,0.307 0.264,0.306C0.265,0.305 0.267,0.301 0.269,0.295L0.291,0.246L0.292,0.246L0.313,0.293C0.316,0.299 0.318,0.303 0.319,0.304C0.321,0.306 0.323,0.307 0.325,0.308L0.325,0.31L0.305,0.31Z" style="fill:url(#_Linear13);fill-rule:nonzero;"/>
            </g>
            <g transform="matrix(495.486,0,0,-495.486,58.2571,472.521)">
                <path d="M0.331,0.308L0.331,0.306L0.333,0.306C0.335,0.306 0.337,0.306 0.338,0.305C0.339,0.305 0.34,0.304 0.34,0.303C0.34,0.302 0.34,0.3 0.34,0.297L0.34,0.257C0.34,0.253 0.34,0.252 0.34,0.251C0.339,0.25 0.339,0.249 0.338,0.249C0.337,0.248 0.335,0.248 0.333,0.248L0.331,0.248L0.331,0.246L0.385,0.246L0.388,0.266L0.386,0.266C0.385,0.26 0.382,0.256 0.379,0.253C0.375,0.251 0.371,0.249 0.365,0.249L0.361,0.249C0.359,0.249 0.358,0.25 0.357,0.25C0.356,0.251 0.356,0.251 0.356,0.252C0.355,0.253 0.355,0.255 0.355,0.258L0.355,0.276C0.358,0.276 0.36,0.275 0.362,0.275C0.363,0.274 0.365,0.272 0.366,0.27C0.367,0.268 0.368,0.265 0.368,0.261L0.37,0.261L0.37,0.294L0.368,0.294C0.368,0.289 0.367,0.285 0.365,0.283C0.363,0.28 0.36,0.279 0.356,0.279L0.355,0.279L0.355,0.305L0.362,0.305C0.366,0.305 0.369,0.304 0.371,0.304C0.374,0.303 0.376,0.301 0.378,0.299C0.38,0.297 0.381,0.294 0.382,0.29L0.383,0.29L0.383,0.308L0.331,0.308Z" style="fill:url(#_Linear14);fill-rule:nonzero;"/>
            </g>
            <g transform="matrix(495.486,0,0,-495.486,58.2571,472.544)">
                <path d="M0.438,0.31C0.438,0.308 0.437,0.307 0.437,0.306C0.436,0.306 0.436,0.305 0.435,0.305C0.434,0.305 0.433,0.306 0.431,0.307C0.429,0.308 0.427,0.308 0.425,0.309C0.423,0.309 0.422,0.31 0.42,0.31C0.414,0.31 0.409,0.308 0.406,0.304C0.402,0.301 0.4,0.297 0.4,0.292C0.4,0.289 0.401,0.286 0.402,0.284C0.404,0.281 0.406,0.279 0.408,0.277C0.41,0.275 0.415,0.273 0.42,0.27C0.424,0.268 0.427,0.266 0.429,0.265C0.43,0.264 0.431,0.263 0.432,0.261C0.433,0.26 0.433,0.259 0.433,0.257C0.433,0.255 0.432,0.252 0.43,0.251C0.428,0.249 0.426,0.248 0.422,0.248C0.418,0.248 0.414,0.249 0.41,0.253C0.406,0.256 0.403,0.261 0.402,0.268L0.4,0.268L0.4,0.245L0.402,0.245C0.403,0.246 0.403,0.247 0.404,0.247C0.405,0.248 0.406,0.248 0.407,0.248C0.408,0.248 0.409,0.248 0.41,0.247C0.413,0.246 0.415,0.246 0.417,0.245C0.419,0.245 0.42,0.245 0.422,0.245C0.429,0.245 0.434,0.246 0.438,0.25C0.442,0.254 0.444,0.258 0.444,0.264C0.444,0.268 0.443,0.271 0.44,0.274C0.438,0.278 0.433,0.281 0.425,0.285C0.42,0.287 0.417,0.289 0.415,0.29C0.413,0.291 0.412,0.293 0.411,0.294C0.411,0.295 0.41,0.296 0.41,0.298C0.41,0.3 0.411,0.302 0.413,0.304C0.415,0.305 0.417,0.306 0.42,0.306C0.424,0.306 0.428,0.305 0.432,0.301C0.435,0.298 0.437,0.294 0.438,0.289L0.44,0.289L0.44,0.31L0.438,0.31Z" style="fill:url(#_Linear15);fill-rule:nonzero;"/>
            </g>
            <g transform="matrix(495.486,0,0,-495.486,58.2571,472.521)">
                <path d="M0.454,0.308L0.454,0.291L0.456,0.291C0.457,0.296 0.458,0.299 0.461,0.302C0.463,0.304 0.466,0.305 0.47,0.305L0.475,0.305L0.475,0.257C0.475,0.253 0.475,0.252 0.474,0.251C0.474,0.25 0.473,0.249 0.472,0.249C0.471,0.248 0.47,0.248 0.468,0.248L0.466,0.248L0.466,0.246L0.498,0.246L0.498,0.248L0.496,0.248C0.495,0.248 0.493,0.248 0.492,0.249C0.491,0.249 0.49,0.25 0.49,0.251C0.49,0.251 0.49,0.253 0.49,0.257L0.49,0.305L0.494,0.305C0.497,0.305 0.499,0.304 0.5,0.304C0.502,0.303 0.504,0.301 0.505,0.3C0.506,0.298 0.507,0.295 0.508,0.291L0.51,0.291L0.51,0.308L0.454,0.308Z" style="fill:url(#_Linear16);fill-rule:nonzero;"/>
            </g>
            <g transform="matrix(495.486,0,0,-495.486,58.2571,472.521)">
                <path d="M0.578,0.308L0.562,0.267L0.544,0.308L0.519,0.308L0.519,0.306L0.521,0.306C0.522,0.306 0.524,0.306 0.525,0.306C0.526,0.305 0.527,0.304 0.527,0.303C0.527,0.303 0.527,0.301 0.527,0.298L0.527,0.258C0.527,0.255 0.527,0.254 0.527,0.254C0.527,0.252 0.526,0.251 0.526,0.25C0.525,0.249 0.524,0.249 0.523,0.248C0.522,0.248 0.521,0.248 0.519,0.248L0.519,0.248L0.519,0.246L0.54,0.246L0.54,0.248C0.537,0.248 0.535,0.248 0.534,0.249C0.532,0.25 0.532,0.251 0.531,0.253C0.531,0.254 0.531,0.255 0.531,0.258L0.531,0.302L0.555,0.246L0.556,0.246L0.58,0.303L0.58,0.257C0.58,0.253 0.58,0.252 0.58,0.251C0.579,0.25 0.578,0.249 0.578,0.249C0.577,0.248 0.575,0.248 0.573,0.248L0.571,0.248L0.571,0.246L0.604,0.246L0.604,0.248L0.602,0.248C0.6,0.248 0.599,0.248 0.598,0.249C0.596,0.249 0.596,0.25 0.595,0.251C0.595,0.251 0.595,0.253 0.595,0.257L0.595,0.298C0.595,0.301 0.595,0.303 0.595,0.303C0.596,0.304 0.597,0.305 0.597,0.305C0.598,0.306 0.6,0.306 0.602,0.306L0.604,0.306L0.604,0.308L0.578,0.308Z" style="fill:url(#_Linear17);fill-rule:nonzero;"/>
            </g>
            <g transform="matrix(495.486,0,0,-495.486,58.2571,472.521)">
                <path d="M0.611,0.308L0.611,0.306L0.613,0.306C0.615,0.306 0.616,0.306 0.617,0.305C0.618,0.305 0.619,0.304 0.619,0.303C0.619,0.302 0.619,0.3 0.619,0.297L0.619,0.257C0.619,0.253 0.619,0.252 0.619,0.251C0.618,0.25 0.618,0.249 0.617,0.249C0.616,0.248 0.614,0.248 0.613,0.248L0.611,0.248L0.611,0.246L0.664,0.246L0.667,0.266L0.665,0.266C0.664,0.26 0.661,0.256 0.658,0.253C0.654,0.251 0.65,0.249 0.644,0.249L0.64,0.249C0.638,0.249 0.637,0.25 0.636,0.25C0.636,0.251 0.635,0.251 0.635,0.252C0.634,0.253 0.634,0.255 0.634,0.258L0.634,0.276C0.637,0.276 0.639,0.275 0.641,0.275C0.643,0.274 0.644,0.272 0.645,0.27C0.646,0.268 0.647,0.265 0.647,0.261L0.649,0.261L0.649,0.294L0.647,0.294C0.647,0.289 0.646,0.285 0.644,0.283C0.642,0.28 0.639,0.279 0.636,0.279L0.634,0.279L0.634,0.305L0.641,0.305C0.645,0.305 0.649,0.304 0.65,0.304C0.653,0.303 0.656,0.301 0.657,0.299C0.659,0.297 0.66,0.294 0.661,0.29L0.663,0.29L0.663,0.308L0.611,0.308Z" style="fill:url(#_Linear18);fill-rule:nonzero;"/>
            </g>
            <g transform="matrix(495.486,0,0,-495.486,58.2571,473.225)">
                <path d="M0.72,0.31L0.72,0.308C0.723,0.308 0.726,0.307 0.727,0.305C0.728,0.304 0.729,0.301 0.729,0.298L0.729,0.271L0.698,0.31L0.676,0.31L0.676,0.308C0.678,0.308 0.679,0.307 0.68,0.307C0.681,0.306 0.682,0.305 0.684,0.304L0.685,0.302L0.685,0.258C0.685,0.255 0.684,0.253 0.683,0.251C0.682,0.25 0.679,0.249 0.676,0.249L0.676,0.247L0.698,0.247L0.698,0.249L0.697,0.249C0.694,0.249 0.693,0.25 0.691,0.251C0.689,0.252 0.688,0.255 0.688,0.258L0.688,0.298L0.73,0.246L0.732,0.246L0.732,0.298C0.732,0.301 0.732,0.303 0.733,0.304C0.733,0.305 0.734,0.306 0.735,0.307C0.736,0.307 0.738,0.307 0.74,0.308L0.74,0.31L0.72,0.31Z" style="fill:url(#_Linear19);fill-rule:nonzero;"/>
            </g>
            <g transform="matrix(495.486,0,0,-495.486,58.2571,472.521)">
                <path d="M0.749,0.308L0.749,0.291L0.751,0.291C0.752,0.296 0.753,0.299 0.756,0.302C0.758,0.304 0.761,0.305 0.765,0.305L0.769,0.305L0.769,0.257C0.769,0.253 0.769,0.252 0.769,0.251C0.769,0.25 0.768,0.249 0.767,0.249C0.766,0.248 0.765,0.248 0.763,0.248L0.761,0.248L0.761,0.246L0.793,0.246L0.793,0.248L0.791,0.248C0.789,0.248 0.788,0.248 0.787,0.249C0.786,0.249 0.785,0.25 0.785,0.251C0.785,0.251 0.784,0.253 0.784,0.257L0.784,0.305L0.789,0.305C0.792,0.305 0.794,0.304 0.795,0.304C0.797,0.303 0.799,0.301 0.8,0.3C0.801,0.298 0.802,0.295 0.803,0.291L0.805,0.291L0.805,0.308L0.749,0.308Z" style="fill:url(#_Linear20);fill-rule:nonzero;"/>
            </g>
            <g transform="matrix(495.486,0,0,-495.486,58.2571,472.544)">
                <path d="M0.854,0.31C0.854,0.308 0.853,0.307 0.853,0.306C0.853,0.306 0.852,0.305 0.851,0.305C0.85,0.305 0.849,0.306 0.847,0.307C0.845,0.308 0.843,0.308 0.842,0.309C0.84,0.309 0.838,0.31 0.836,0.31C0.83,0.31 0.826,0.308 0.822,0.304C0.818,0.301 0.816,0.297 0.816,0.292C0.816,0.289 0.817,0.286 0.818,0.284C0.82,0.281 0.822,0.279 0.824,0.277C0.827,0.275 0.831,0.273 0.836,0.27C0.84,0.268 0.843,0.266 0.845,0.265C0.846,0.264 0.848,0.263 0.848,0.261C0.849,0.26 0.85,0.259 0.85,0.257C0.85,0.255 0.849,0.252 0.846,0.251C0.844,0.249 0.842,0.248 0.838,0.248C0.834,0.248 0.83,0.249 0.826,0.253C0.822,0.256 0.819,0.261 0.818,0.268L0.816,0.268L0.816,0.245L0.818,0.245C0.819,0.246 0.819,0.247 0.82,0.247C0.821,0.248 0.822,0.248 0.823,0.248C0.824,0.248 0.825,0.248 0.826,0.247C0.829,0.246 0.831,0.246 0.833,0.245C0.835,0.245 0.837,0.245 0.839,0.245C0.845,0.245 0.85,0.246 0.854,0.25C0.858,0.254 0.86,0.258 0.86,0.264C0.86,0.268 0.859,0.271 0.856,0.274C0.854,0.278 0.849,0.281 0.842,0.285C0.836,0.287 0.833,0.289 0.832,0.29C0.83,0.291 0.828,0.293 0.827,0.294C0.827,0.295 0.826,0.296 0.826,0.298C0.826,0.3 0.827,0.302 0.829,0.304C0.831,0.305 0.833,0.306 0.837,0.306C0.841,0.306 0.844,0.305 0.848,0.301C0.851,0.298 0.853,0.294 0.854,0.289L0.856,0.289L0.856,0.31L0.854,0.31Z" style="fill:url(#_Linear21);fill-rule:nonzero;"/>
            </g>
            <g transform="matrix(495.486,0,0,-495.486,58.2571,549.711)">
                <path d="M0.862,0.364L0.144,0.364L0.173,0.346L0.173,0.356L0.833,0.356L0.833,0.346L0.862,0.364Z" style="fill:url(#_Linear22);fill-rule:nonzero;"/>
            </g>
            <g transform="matrix(495.486,0,0,-495.486,58.2571,208.464)">
                <path d="M-0,0.001L0.442,0.001L0.432,0.01L0.029,0.01L0.029,0.02L-0,0.001Z" style="fill:url(#_Linear23);fill-rule:nonzero;"/>
            </g>
            <g transform="matrix(495.486,0,0,-495.486,58.2571,208.464)">
                <path d="M0.971,0.01L0.569,0.01L0.558,0.001L1,0.001L0.971,0.02L0.971,0.01Z" style="fill:url(#_Linear24);fill-rule:nonzero;"/>
            </g>
        </g>
    </g>
    <defs>
        <linearGradient id="_Linear1" x1="0" y1="0" x2="1" y2="0" gradientUnits="userSpaceOnUse" gradientTransform="matrix(1,0,0,-1,0,0.254167)"><stop offset="0" style="stop-color:rgb(237,197,95);stop-opacity:1"/><stop offset="0.23" style="stop-color:rgb(167,112,41);stop-opacity:1"/><stop offset="0.33" style="stop-color:rgb(226,183,86);stop-opacity:1"/><stop offset="0.48" style="stop-color:rgb(235,205,123);stop-opacity:1"/><stop offset="0.58" style="stop-color:rgb(226,183,86);stop-opacity:1"/><stop offset="0.69" style="stop-color:rgb(143,94,37);stop-opacity:1"/><stop offset="1" style="stop-color:rgb(226,183,86);stop-opacity:1"/></linearGradient>
        <linearGradient id="_Linear2" x1="0" y1="0" x2="1" y2="0" gradientUnits="userSpaceOnUse" gradientTransform="matrix(1,0,0,-1,0,0.254167)"><stop offset="0" style="stop-color:rgb(237,197,95);stop-opacity:1"/><stop offset="0.23" style="stop-color:rgb(167,112,41);stop-opacity:1"/><stop offset="0.33" style="stop-color:rgb(226,183,86);stop-opacity:1"/><stop offset="0.48" style="stop-color:rgb(235,205,123);stop-opacity:1"/><stop offset="0.58" style="stop-color:rgb(226,183,86);stop-opacity:1"/><stop offset="0.69" style="stop-color:rgb(143,94,37);stop-opacity:1"/><stop offset="1" style="stop-color:rgb(226,183,86);stop-opacity:1"/></linearGradient>
        <linearGradient id="_Linear3" x1="0" y1="0" x2="1" y2="0" gradientUnits="userSpaceOnUse" gradientTransform="matrix(1,0,0,-1,0,0.254167)"><stop offset="0" style="stop-color:rgb(237,197,95);stop-opacity:1"/><stop offset="0.23" style="stop-color:rgb(167,112,41);stop-opacity:1"/><stop offset="0.33" style="stop-color:rgb(226,183,86);stop-opacity:1"/><stop offset="0.48" style="stop-color:rgb(235,205,123);stop-opacity:1"/><stop offset="0.58" style="stop-color:rgb(226,183,86);stop-opacity:1"/><stop offset="0.69" style="stop-color:rgb(143,94,37);stop-opacity:1"/><stop offset="1" style="stop-color:rgb(226,183,86);stop-opacity:1"/></linearGradient>
        <linearGradient id="_Linear4" x1="0" y1="0" x2="1" y2="0" gradientUnits="userSpaceOnUse" gradientTransform="matrix(1,0,0,-1,0,0.251075)"><stop offset="0" style="stop-color:rgb(237,197,95);stop-opacity:1"/><stop offset="0.23" style="stop-color:rgb(167,112,41);stop-opacity:1"/><stop offset="0.33" style="stop-color:rgb(226,183,86);stop-opacity:1"/><stop offset="0.48" style="stop-color:rgb(235,205,123);stop-opacity:1"/><stop offset="0.58" style="stop-color:rgb(226,183,86);stop-opacity:1"/><stop offset="0.69" style="stop-color:rgb(143,94,37);stop-opacity:1"/><stop offset="1" style="stop-color:rgb(226,183,86);stop-opacity:1"/></linearGradient>
        <linearGradient id="_Linear5" x1="0" y1="0" x2="1" y2="0" gradientUnits="userSpaceOnUse" gradientTransform="matrix(1,0,0,-1,0,0.254167)"><stop offset="0" style="stop-color:rgb(237,197,95);stop-opacity:1"/><stop offset="0.23" style="stop-color:rgb(167,112,41);stop-opacity:1"/><stop offset="0.33" style="stop-color:rgb(226,183,86);stop-opacity:1"/><stop offset="0.48" style="stop-color:rgb(235,205,123);stop-opacity:1"/><stop offset="0.58" style="stop-color:rgb(226,183,86);stop-opacity:1"/><stop offset="0.69" style="stop-color:rgb(143,94,37);stop-opacity:1"/><stop offset="1" style="stop-color:rgb(226,183,86);stop-opacity:1"/></linearGradient>
        <linearGradient id="_Linear6" x1="0" y1="0" x2="1" y2="0" gradientUnits="userSpaceOnUse" gradientTransform="matrix(1,0,0,-1,0,0.254167)"><stop offset="0" style="stop-color:rgb(237,197,95);stop-opacity:1"/><stop offset="0.23" style="stop-color:rgb(167,112,41);stop-opacity:1"/><stop offset="0.33" style="stop-color:rgb(226,183,86);stop-opacity:1"/><stop offset="0.48" style="stop-color:rgb(235,205,123);stop-opacity:1"/><stop offset="0.58" style="stop-color:rgb(226,183,86);stop-opacity:1"/><stop offset="0.69" style="stop-color:rgb(143,94,37);stop-opacity:1"/><stop offset="1" style="stop-color:rgb(226,183,86);stop-opacity:1"/></linearGradient>
        <linearGradient id="_Linear7" x1="0" y1="0" x2="1" y2="0" gradientUnits="userSpaceOnUse" gradientTransform="matrix(1,0,0,-1,0,-0.327646)"><stop offset="0" style="stop-color:rgb(237,197,95);stop-opacity:1"/><stop offset="0.23" style="stop-color:rgb(167,112,41);stop-opacity:1"/><stop offset="0.33" style="stop-color:rgb(226,183,86);stop-opacity:1"/><stop offset="0.48" style="stop-color:rgb(235,205,123);stop-opacity:1"/><stop offset="0.58" style="stop-color:rgb(226,183,86);stop-opacity:1"/><stop offset="0.69" style="stop-color:rgb(143,94,37);stop-opacity:1"/><stop offset="1" style="stop-color:rgb(226,183,86);stop-opacity:1"/></linearGradient>
        <linearGradient id="_Linear8" x1="0" y1="0" x2="1" y2="0" gradientUnits="userSpaceOnUse" gradientTransform="matrix(1,0,0,-1,0,-0.327648)"><stop offset="0" style="stop-color:rgb(237,197,95);stop-opacity:1"/><stop offset="0.23" style="stop-color:rgb(167,112,41);stop-opacity:1"/><stop offset="0.33" style="stop-color:rgb(226,183,86);stop-opacity:1"/><stop offset="0.48" style="stop-color:rgb(235,205,123);stop-opacity:1"/><stop offset="0.58" style="stop-color:rgb(226,183,86);stop-opacity:1"/><stop offset="0.69" style="stop-color:rgb(143,94,37);stop-opacity:1"/><stop offset="1" style="stop-color:rgb(226,183,86);stop-opacity:1"/></linearGradient>
        <linearGradient id="_Linear9" x1="0" y1="0" x2="1" y2="0" gradientUnits="userSpaceOnUse" gradientTransform="matrix(1,0,0,-1,0,-0.396268)"><stop offset="0" style="stop-color:rgb(237,197,95);stop-opacity:1"/><stop offset="0.23" style="stop-color:rgb(167,112,41);stop-opacity:1"/><stop offset="0.33" style="stop-color:rgb(226,183,86);stop-opacity:1"/><stop offset="0.48" style="stop-color:rgb(235,205,123);stop-opacity:1"/><stop offset="0.58" style="stop-color:rgb(226,183,86);stop-opacity:1"/><stop offset="0.69" style="stop-color:rgb(143,94,37);stop-opacity:1"/><stop offset="1" style="stop-color:rgb(226,183,86);stop-opacity:1"/></linearGradient>
        <linearGradient id="_Linear10" x1="0" y1="0" x2="1" y2="0" gradientUnits="userSpaceOnUse" gradientTransform="matrix(1,0,0,-1,0,-0.297345)"><stop offset="0" style="stop-color:rgb(237,197,95);stop-opacity:1"/><stop offset="0.23" style="stop-color:rgb(167,112,41);stop-opacity:1"/><stop offset="0.33" style="stop-color:rgb(226,183,86);stop-opacity:1"/><stop offset="0.48" style="stop-color:rgb(235,205,123);stop-opacity:1"/><stop offset="0.58" style="stop-color:rgb(226,183,86);stop-opacity:1"/><stop offset="0.69" style="stop-color:rgb(143,94,37);stop-opacity:1"/><stop offset="1" style="stop-color:rgb(226,183,86);stop-opacity:1"/></linearGradient>
        <linearGradient id="_Linear11" x1="0" y1="0" x2="1" y2="0" gradientUnits="userSpaceOnUse" gradientTransform="matrix(1,0,0,-1,0,0.554044)"><stop offset="0" style="stop-color:rgb(237,197,95);stop-opacity:1"/><stop offset="0.23" style="stop-color:rgb(167,112,41);stop-opacity:1"/><stop offset="0.33" style="stop-color:rgb(226,183,86);stop-opacity:1"/><stop offset="0.48" style="stop-color:rgb(235,205,123);stop-opacity:1"/><stop offset="0.58" style="stop-color:rgb(226,183,86);stop-opacity:1"/><stop offset="0.69" style="stop-color:rgb(143,94,37);stop-opacity:1"/><stop offset="1" style="stop-color:rgb(226,183,86);stop-opacity:1"/></linearGradient>
        <linearGradient id="_Linear12" x1="0" y1="0" x2="1" y2="0" gradientUnits="userSpaceOnUse" gradientTransform="matrix(1,0,0,-1,0,0.555465)"><stop offset="0" style="stop-color:rgb(237,197,95);stop-opacity:1"/><stop offset="0.23" style="stop-color:rgb(167,112,41);stop-opacity:1"/><stop offset="0.33" style="stop-color:rgb(226,183,86);stop-opacity:1"/><stop offset="0.48" style="stop-color:rgb(235,205,123);stop-opacity:1"/><stop offset="0.58" style="stop-color:rgb(226,183,86);stop-opacity:1"/><stop offset="0.69" style="stop-color:rgb(143,94,37);stop-opacity:1"/><stop offset="1" style="stop-color:rgb(226,183,86);stop-opacity:1"/></linearGradient>
        <linearGradient id="_Linear13" x1="0" y1="0" x2="1" y2="0" gradientUnits="userSpaceOnUse" gradientTransform="matrix(1,0,0,-1,0,0.555465)"><stop offset="0" style="stop-color:rgb(237,197,95);stop-opacity:1"/><stop offset="0.23" style="stop-color:rgb(167,112,41);stop-opacity:1"/><stop offset="0.33" style="stop-color:rgb(226,183,86);stop-opacity:1"/><stop offset="0.48" style="stop-color:rgb(235,205,123);stop-opacity:1"/><stop offset="0.58" style="stop-color:rgb(226,183,86);stop-opacity:1"/><stop offset="0.69" style="stop-color:rgb(143,94,37);stop-opacity:1"/><stop offset="1" style="stop-color:rgb(226,183,86);stop-opacity:1"/></linearGradient>
        <linearGradient id="_Linear14" x1="0" y1="0" x2="1" y2="0" gradientUnits="userSpaceOnUse" gradientTransform="matrix(1,0,0,-1,0,0.554044)"><stop offset="0" style="stop-color:rgb(237,197,95);stop-opacity:1"/><stop offset="0.23" style="stop-color:rgb(167,112,41);stop-opacity:1"/><stop offset="0.33" style="stop-color:rgb(226,183,86);stop-opacity:1"/><stop offset="0.48" style="stop-color:rgb(235,205,123);stop-opacity:1"/><stop offset="0.58" style="stop-color:rgb(226,183,86);stop-opacity:1"/><stop offset="0.69" style="stop-color:rgb(143,94,37);stop-opacity:1"/><stop offset="1" style="stop-color:rgb(226,183,86);stop-opacity:1"/></linearGradient>
        <linearGradient id="_Linear15" x1="0" y1="0" x2="1" y2="0" gradientUnits="userSpaceOnUse" gradientTransform="matrix(1,0,0,-1,0,0.554091)"><stop offset="0" style="stop-color:rgb(237,197,95);stop-opacity:1"/><stop offset="0.23" style="stop-color:rgb(167,112,41);stop-opacity:1"/><stop offset="0.33" style="stop-color:rgb(226,183,86);stop-opacity:1"/><stop offset="0.48" style="stop-color:rgb(235,205,123);stop-opacity:1"/><stop offset="0.58" style="stop-color:rgb(226,183,86);stop-opacity:1"/><stop offset="0.69" style="stop-color:rgb(143,94,37);stop-opacity:1"/><stop offset="1" style="stop-color:rgb(226,183,86);stop-opacity:1"/></linearGradient>
        <linearGradient id="_Linear16" x1="0" y1="0" x2="1" y2="0" gradientUnits="userSpaceOnUse" gradientTransform="matrix(1,0,0,-1,0,0.554044)"><stop offset="0" style="stop-color:rgb(237,197,95);stop-opacity:1"/><stop offset="0.23" style="stop-color:rgb(167,112,41);stop-opacity:1"/><stop offset="0.33" style="stop-color:rgb(226,183,86);stop-opacity:1"/><stop offset="0.48" style="stop-color:rgb(235,205,123);stop-opacity:1"/><stop offset="0.58" style="stop-color:rgb(226,183,86);stop-opacity:1"/><stop offset="0.69" style="stop-color:rgb(143,94,37);stop-opacity:1"/><stop offset="1" style="stop-color:rgb(226,183,86);stop-opacity:1"/></linearGradient>
        <linearGradient id="_Linear17" x1="0" y1="0" x2="1" y2="0" gradientUnits="userSpaceOnUse" gradientTransform="matrix(1,0,0,-1,0,0.554044)"><stop offset="0" style="stop-color:rgb(237,197,95);stop-opacity:1"/><stop offset="0.23" style="stop-color:rgb(167,112,41);stop-opacity:1"/><stop offset="0.33" style="stop-color:rgb(226,183,86);stop-opacity:1"/><stop offset="0.48" style="stop-color:rgb(235,205,123);stop-opacity:1"/><stop offset="0.58" style="stop-color:rgb(226,183,86);stop-opacity:1"/><stop offset="0.69" style="stop-color:rgb(143,94,37);stop-opacity:1"/><stop offset="1" style="stop-color:rgb(226,183,86);stop-opacity:1"/></linearGradient>
        <linearGradient id="_Linear18" x1="0" y1="0" x2="1" y2="0" gradientUnits="userSpaceOnUse" gradientTransform="matrix(1,0,0,-1,0,0.554044)"><stop offset="0" style="stop-color:rgb(237,197,95);stop-opacity:1"/><stop offset="0.23" style="stop-color:rgb(167,112,41);stop-opacity:1"/><stop offset="0.33" style="stop-color:rgb(226,183,86);stop-opacity:1"/><stop offset="0.48" style="stop-color:rgb(235,205,123);stop-opacity:1"/><stop offset="0.58" style="stop-color:rgb(226,183,86);stop-opacity:1"/><stop offset="0.69" style="stop-color:rgb(143,94,37);stop-opacity:1"/><stop offset="1" style="stop-color:rgb(226,183,86);stop-opacity:1"/></linearGradient>
        <linearGradient id="_Linear19" x1="0" y1="0" x2="1" y2="0" gradientUnits="userSpaceOnUse" gradientTransform="matrix(1,0,0,-1,0,0.555465)"><stop offset="0" style="stop-color:rgb(237,197,95);stop-opacity:1"/><stop offset="0.23" style="stop-color:rgb(167,112,41);stop-opacity:1"/><stop offset="0.33" style="stop-color:rgb(226,183,86);stop-opacity:1"/><stop offset="0.48" style="stop-color:rgb(235,205,123);stop-opacity:1"/><stop offset="0.58" style="stop-color:rgb(226,183,86);stop-opacity:1"/><stop offset="0.69" style="stop-color:rgb(143,94,37);stop-opacity:1"/><stop offset="1" style="stop-color:rgb(226,183,86);stop-opacity:1"/></linearGradient>
        <linearGradient id="_Linear20" x1="0" y1="0" x2="1" y2="0" gradientUnits="userSpaceOnUse" gradientTransform="matrix(1,0,0,-1,0,0.554044)"><stop offset="0" style="stop-color:rgb(237,197,95);stop-opacity:1"/><stop offset="0.23" style="stop-color:rgb(167,112,41);stop-opacity:1"/><stop offset="0.33" style="stop-color:rgb(226,183,86);stop-opacity:1"/><stop offset="0.48" style="stop-color:rgb(235,205,123);stop-opacity:1"/><stop offset="0.58" style="stop-color:rgb(226,183,86);stop-opacity:1"/><stop offset="0.69" style="stop-color:rgb(143,94,37);stop-opacity:1"/><stop offset="1" style="stop-color:rgb(226,183,86);stop-opacity:1"/></linearGradient>
        <linearGradient id="_Linear21" x1="0" y1="0" x2="1" y2="0" gradientUnits="userSpaceOnUse" gradientTransform="matrix(1,0,0,-1,0,0.554091)"><stop offset="0" style="stop-color:rgb(237,197,95);stop-opacity:1"/><stop offset="0.23" style="stop-color:rgb(167,112,41);stop-opacity:1"/><stop offset="0.33" style="stop-color:rgb(226,183,86);stop-opacity:1"/><stop offset="0.48" style="stop-color:rgb(235,205,123);stop-opacity:1"/><stop offset="0.58" style="stop-color:rgb(226,183,86);stop-opacity:1"/><stop offset="0.69" style="stop-color:rgb(143,94,37);stop-opacity:1"/><stop offset="1" style="stop-color:rgb(226,183,86);stop-opacity:1"/></linearGradient>
        <linearGradient id="_Linear22" x1="0" y1="0" x2="1" y2="0" gradientUnits="userSpaceOnUse" gradientTransform="matrix(1,0,0,-1,0,0.709831)"><stop offset="0" style="stop-color:rgb(237,197,95);stop-opacity:1"/><stop offset="0.23" style="stop-color:rgb(167,112,41);stop-opacity:1"/><stop offset="0.33" style="stop-color:rgb(226,183,86);stop-opacity:1"/><stop offset="0.48" style="stop-color:rgb(235,205,123);stop-opacity:1"/><stop offset="0.58" style="stop-color:rgb(226,183,86);stop-opacity:1"/><stop offset="0.69" style="stop-color:rgb(143,94,37);stop-opacity:1"/><stop offset="1" style="stop-color:rgb(226,183,86);stop-opacity:1"/></linearGradient>
        <linearGradient id="_Linear23" x1="0" y1="0" x2="1" y2="0" gradientUnits="userSpaceOnUse" gradientTransform="matrix(1,0,0,-1,0,0.0211187)"><stop offset="0" style="stop-color:rgb(237,197,95);stop-opacity:1"/><stop offset="0.23" style="stop-color:rgb(167,112,41);stop-opacity:1"/><stop offset="0.33" style="stop-color:rgb(226,183,86);stop-opacity:1"/><stop offset="0.48" style="stop-color:rgb(235,205,123);stop-opacity:1"/><stop offset="0.58" style="stop-color:rgb(226,183,86);stop-opacity:1"/><stop offset="0.69" style="stop-color:rgb(143,94,37);stop-opacity:1"/><stop offset="1" style="stop-color:rgb(226,183,86);stop-opacity:1"/></linearGradient>
        <linearGradient id="_Linear24" x1="0" y1="0" x2="1" y2="0" gradientUnits="userSpaceOnUse" gradientTransform="matrix(1,0,0,-1,0,0.0211187)"><stop offset="0" style="stop-color:rgb(237,197,95);stop-opacity:1"/><stop offset="0.23" style="stop-color:rgb(167,112,41);stop-opacity:1"/><stop offset="0.33" style="stop-color:rgb(226,183,86);stop-opacity:1"/><stop offset="0.48" style="stop-color:rgb(235,205,123);stop-opacity:1"/><stop offset="0.58" style="stop-color:rgb(226,183,86);stop-opacity:1"/><stop offset="0.69" style="stop-color:rgb(143,94,37);stop-opacity:1"/><stop offset="1" style="stop-color:rgb(226,183,86);stop-opacity:1"/></linearGradient>
    </defs>
</svg>