<?xml version="1.0" encoding="UTF-8"?>
<svg width="68px" height="31px" viewBox="0 0 68 31" version="1.1" xmlns="http://www.w3.org/2000/svg" xmlns:xlink="http://www.w3.org/1999/xlink">
    <title>L-3</title>
    <g id="Page-1" stroke="none" stroke-width="1" fill="none" fill-rule="evenodd">
        <g id="Spine/Disabled" transform="translate(-47.000000, -409.000000)" fill="#FFFFF0" stroke="#FEFCBF">
            <g id="Lumbar" transform="translate(47.107661, 361.493645)">
                <path d="M32.1632439,52.9330565 C27.6883039,50.2888731 18.5782472,49.2640109 4.83307363,49.8584698 C2.03611509,49.8584698 0.560578957,55.6678051 0.406465219,67.2864757 C0.859165208,68.7409132 2.1794376,69.5766589 4.36728239,69.7937128 C7.64904957,70.1192936 18.9402147,70.8230727 28.2464713,70.2717592 C29.4780702,70.2717592 29.8086046,69.9573319 29.9617946,67.2864757 C30.0047062,66.5383154 30.2936548,64.6296494 30.6436783,63.3157194 C31.3985969,61.7320873 42.9436366,60.7547147 38.7750626,69.3881996 C38.4378136,70.576952 38.3935156,71.3658079 38.3935156,72.660001 C38.8092702,72.2176441 39.1215153,71.1015245 40.0472668,71.1015245 C41.4723608,71.1015245 45.1375988,71.809789 43.7477415,75.534558 C41.5495121,81.4257359 46.5050376,72.5760556 45.4731188,69.7937128 C44.4412,67.0113699 59.5241495,69.3881996 63.9666233,70.2717592 C67.2430727,69.0449738 67.2430727,66.3729759 66.9860202,60.757447 C66.8146518,57.013761 62.962648,55.3967959 55.4300086,55.9065517 C50.8769063,57.4189024 47.6440043,57.9797335 45.7313026,57.5890451 C44.4089285,57.5890451 44.4875205,56.357842 45.9670786,53.8954357 C46.4803669,53.0213619 46.6795329,52.3893076 46.5645766,51.9992727 C45.2155647,48.0140839 41.298648,47.8929273 39.0240464,51.4684454 C37.5526425,54.1711444 35.2657083,54.6593481 32.1632439,52.9330565 Z" id="L-3"></path>
            </g>
        </g>
    </g>
</svg>