<?xml version="1.0" encoding="UTF-8"?>
<svg width="56px" height="31px" viewBox="0 0 56 31" version="1.1" xmlns="http://www.w3.org/2000/svg" xmlns:xlink="http://www.w3.org/1999/xlink">
    <title>Th-3</title>
    <g id="Page-1" stroke="none" stroke-width="1" fill="none" fill-rule="evenodd">
        <g id="Spine/Disabled" transform="translate(-86.000000, -163.000000)" fill="#F0FFF4" stroke="#C6F6D5">
            <g id="Thoracic" transform="translate(66.703419, 130.583935)">
                <path d="M39.8302682,35.8840983 C38.1816514,39.5050923 32.7214339,41.8813418 23.4496157,43.0128466 C21.627113,43.2241553 20.7315582,44.1909218 20.7629513,45.913146 C21.1658434,52.0529868 22.8898905,55.1229072 25.9350925,55.1229072 C28.3096725,55.1229072 34.9133745,55.1229072 39.4861712,52.3337219 C40.3378105,51.814263 40.3094222,50.100115 39.8302682,47.1715867 C39.7518246,46.6921491 39.5770592,45.7886784 39.305972,44.4611748 C39.484455,43.6764683 39.7545222,43.1936923 40.1161738,43.0128466 C41.0737597,42.5340012 42.8833345,42.6679862 43.7789387,43.2006735 C44.312044,43.5177537 44.9338235,44.0621444 44.9338235,44.6986159 C44.9338235,48.1361726 44.9338235,50.3155806 44.9338235,51.2368398 C47.7266067,48.0081441 49.5322237,48.8550881 50.3506744,53.7776718 C50.5743393,55.1229072 51.8111339,52.7873468 53.9189563,52.7873468 C55.3241712,52.7873468 56.6831689,53.1993925 57.9959493,54.023484 C61.2923237,55.3784063 65.825053,58.0969615 71.5941371,62.1791495 C71.8973422,62.4236813 75.2820353,64.2271658 73.7616092,59.6750365 C72.7479919,56.6402836 67.8634359,52.2514764 59.1079413,46.5086148 C57.1519746,45.2687344 55.4223129,42.6770156 53.9189563,38.7334584 C52.4636253,37.9393083 50.7051587,38.0336738 48.6435565,39.0165549 C46.4181182,39.5455378 45.3053991,38.9831559 45.3053991,37.3294094 C45.3053991,36.6325936 44.8790605,34.8474721 44.0663547,33.9597713 C43.5824018,33.4311602 42.8935737,33.4311602 42.2694149,33.5130428 C41.8533091,33.5676312 41.0402602,34.357983 39.8302682,35.8840983 Z" id="Th-3"></path>
            </g>
        </g>
    </g>
</svg>