<?xml version="1.0" encoding="UTF-8"?>
<svg width="95px" height="38px" viewBox="0 0 95 38" version="1.1" xmlns="http://www.w3.org/2000/svg" xmlns:xlink="http://www.w3.org/1999/xlink">
    <title>male-front-neck</title>
    <g id="Page-1" stroke="none" stroke-width="1" fill="none" fill-rule="evenodd" fill-opacity="0.15">
        <g id="Artboard" transform="translate(-73.000000, -74.000000)" fill="#0091FF" stroke="#0091FF" stroke-width="2">
            <path d="M102.682349,79.9783228 C102.445647,83.0964599 100.765593,85.4734949 97.6421852,87.1094278 C94.5187775,88.7453607 89.4163366,91.6139327 82.3348625,95.7151439 L76.081366,99.0888537 C83.532686,102.58533 90.0154936,105.013434 95.529789,106.373165 C101.044084,107.732896 110.205696,109.16244 123.014625,110.661796 C133.282397,109.161695 140.92309,107.732151 145.936707,106.373165 C150.950324,105.014178 157.541387,102.586075 165.709897,99.0888537 L148.040072,87.4611386 C145.358212,86.9356334 144.017283,84.4413615 144.017283,79.9783228 C144.017283,75.5152842 143.784739,74.6805482 143.319652,77.474115 C135.681874,84.7288641 131.226936,88.55742 129.954838,88.9597829 C128.046691,89.5633272 122.121125,89.5633272 117.00436,89.5633272 C113.593183,89.5633272 109.778859,86.3683257 105.561388,79.9783228 L102.682349,76.7842714 L102.682349,78.1789961 L102.682349,79.9783228 Z" id="male-front-neck"></path>
        </g>
    </g>
</svg>