<?xml version="1.0" encoding="UTF-8"?>
<svg width="36px" height="42px" viewBox="0 0 36 42" version="1.1" xmlns="http://www.w3.org/2000/svg" xmlns:xlink="http://www.w3.org/1999/xlink">
    <title>male-front-foot-left-outline</title>
    <g id="Page-1" stroke="none" stroke-width="1" fill="none" fill-rule="evenodd" fill-opacity="0.15">
        <g id="Artboard" transform="translate(-123.000000, -577.000000)" fill="#0091FF" stroke="#0091FF" stroke-width="2">
            <path d="M131.602548,592.309113 C130.346345,600.60931 125.144527,603.435182 124.431266,606.212762 C123.718005,608.990343 123.503268,615.944937 126.927504,616.352738 C136.317458,617.471013 154.180749,618.55204 156.253386,615.461727 C158.326023,612.371414 156.253386,581.80554 155.297568,580.835961 C154.658021,580.187206 152.579637,578.405322 150.2745,578.405322 C145.514773,578.405322 148.326031,578.802232 141.681276,578.802232 C135.036521,578.802232 134.855899,578.802232 132.284338,578.802232 C129.712776,578.802232 132.858752,584.008915 131.602548,592.309113 Z" id="male-front-foot-left-outline" transform="translate(140.571320, 597.945787) scale(-1, 1) translate(-140.571320, -597.945787) "></path>
        </g>
    </g>
</svg>