<?xml version="1.0" encoding="UTF-8"?>
<svg width="41px" height="77px" viewBox="0 0 41 77" version="1.1" xmlns="http://www.w3.org/2000/svg" xmlns:xlink="http://www.w3.org/1999/xlink">
    <title>male-front-forearm-right-outline</title>
    <g id="Page-1" stroke="none" stroke-width="1" fill="none" fill-rule="evenodd" fill-opacity="0.15">
        <g id="Artboard" transform="translate(-25.000000, -207.000000)" fill="#0091FF" stroke="#0091FF" stroke-width="2">
            <path d="M32.4929177,208.932115 C31.1572178,208.018842 28.3333183,215.148528 28.6617105,219.149604 C28.8806386,221.816989 28.8806386,228.74503 28.6617105,239.933728 C29.1372177,252.963147 29.1372177,261.070247 28.6617105,264.255028 C27.9484496,269.032201 25.2720842,279.869166 28.6617105,281.097015 C38.1148743,284.521303 48.0266134,281.878995 48.0266134,281.097015 C48.0266134,279.377611 49.3526796,275.425292 51.5187967,269.553819 C52.9628748,265.639503 54.0700257,261.685203 54.8402496,257.690919 C59.8254802,245.858292 62.3180956,237.871536 62.3180956,233.73065 C62.3180956,227.519322 65.8033909,214.079597 64.3274048,212.081869 C63.6272284,211.13419 59.1022055,214.177443 54.8402496,215.28334 C50.1179142,216.508697 45.5560113,215.841147 43.3458744,215.28334 C41.4282241,214.799352 38.5035211,216.503486 36.6074004,215.28334 C34.3459208,213.828086 33.2194565,209.428879 32.4929177,208.932115 Z" id="male-front-forearm-right-outline"></path>
        </g>
    </g>
</svg>