<?xml version="1.0" encoding="UTF-8"?>
<svg width="52px" height="192px" viewBox="0 0 52 192" version="1.1" xmlns="http://www.w3.org/2000/svg" xmlns:xlink="http://www.w3.org/1999/xlink">
    <title>Path 3</title>
    <g id="Page-1" stroke="none" stroke-width="1" fill="none" fill-rule="evenodd" fill-opacity="0.15">
        <g id="Artboard" transform="translate(-23.000000, -101.000000)" fill="#0091FF" stroke="#0091FF" stroke-width="2">
            <path d="M66.5053763,102.570518 C63.6593232,103.100506 46.0961096,110.194402 41.4661517,126.742384 C38.3795131,137.774373 38.3795131,148.047687 41.4661517,157.562328 C41.1340568,161.556764 40.5100946,165.687039 39.5942653,169.953155 C38.2205214,176.352328 36.2287529,188.436668 35.515492,193.825084 C35.0399847,197.417362 33.6757003,202.159744 31.4226387,208.052232 C29.0812338,214.699748 27.9105313,221.004441 27.9105313,226.96631 C27.9105313,232.92818 27.9105313,248.048954 27.9105313,272.328633 L24.5080051,291.793067 L45.5066907,291.793067 C49.7564044,274.304972 53.1186919,262.824252 55.5935532,257.350906 C59.3058452,249.140889 63.5317607,231.905422 63.5317607,224.15087 C63.5317607,216.396318 64.4138793,212.325992 64.4138793,210.386589 C64.4138793,208.447186 66.5053763,206.238221 66.5053763,199.413626 C66.5053763,194.863897 66.2611857,190.859491 65.7728044,187.400408 C64.2787753,179.497709 63.5317607,173.211001 63.5317607,168.540286 C63.5317607,163.86957 63.5317607,153.906783 63.5317607,138.651924 C63.4736205,130.542328 65.8062142,124.733014 70.5295419,121.223984 C77.6145334,115.960438 69.3514294,102.04053 66.5053763,102.570518 Z" id="Path-3"></path>
        </g>
    </g>
</svg>