<?xml version="1.0" encoding="UTF-8"?>
<svg width="48px" height="72px" viewBox="0 0 48 72" version="1.1" xmlns="http://www.w3.org/2000/svg" xmlns:xlink="http://www.w3.org/1999/xlink">
    <title>male-front-hand-right-outline</title>
    <g id="Page-1" stroke="none" stroke-width="1" fill="none" fill-rule="evenodd" fill-opacity="0.15">
        <g id="Artboard" transform="translate(0.000000, -296.000000)" fill="#007BFF" stroke="#0091FF" stroke-width="2">
            <path d="M23.894925,297.185702 C19.6964689,301.197652 16.7430236,304.449178 15.0345893,306.940279 C13.3261549,309.431381 11.4461845,313.227553 9.39467807,318.328796 C7.53336521,321.025662 6.18863596,322.793304 5.36049032,323.631723 C2.04759672,326.985713 -2.33701947e-13,327.120196 -2.33701947e-13,327.120196 C-2.33701947e-13,327.120196 -0.769888451,328.978264 4.01234601e-13,329.987284 C0.75482863,330.976567 3.79740549,331.124244 4.02185308,331.124244 C4.2359386,331.124244 6.09227463,331.001683 8.9515651,329.418163 C9.73656108,328.98342 11.0318062,327.973965 12.8373004,326.389797 C12.1275012,332.262816 11.6295602,336.310256 11.3434774,338.532118 C10.0488882,348.586547 9.39467807,353.970644 9.39467807,354.351765 C9.39467807,354.719557 9.11979974,355.908626 9.39467807,357.81138 C9.46426381,358.293065 9.72589926,359.108324 10.1795844,360.257159 C11.2025855,360.340989 11.9512604,360.340989 12.4256093,360.257159 C12.8999582,360.173329 13.5482754,359.926442 14.3705611,359.5165 L16.0859405,355.657697 C16.7315673,350.899626 17.2975891,347.206377 17.7840059,344.577949 C18.2704227,341.949522 19.1204172,337.99111 20.3339896,332.702714 C20.7066349,332.069573 21.0171132,331.753003 21.2654246,331.753003 C21.513736,331.753003 21.9107849,332.069573 22.4565713,332.702714 C21.3929088,334.958032 20.5452655,339.109998 19.9136415,345.158613 C19.2820174,351.207228 18.9738904,358.123254 18.9892603,365.906689 C19.9218583,366.544385 20.6805797,366.887889 21.2654246,366.937199 C21.8502696,366.98651 22.7267697,366.643006 23.894925,365.906689 C25.0455005,357.480551 25.9220007,351.291825 26.5244254,347.340512 C27.1268501,343.389198 27.8322397,339.137729 28.6405944,334.586104 C29.6342696,334.374479 30.1362719,334.551896 30.1466014,335.118353 C30.2159543,338.921571 29.3000548,343.731461 29.1907984,345.158613 C28.4870119,354.351765 29.1907984,362.694921 29.1907984,362.694921 C29.1907984,362.694921 28.6288576,363.646003 29.1907984,363.929033 C29.454898,364.06205 30.2716537,364.06205 31.6410657,363.929033 C32.2563147,363.724539 32.7011377,363.50683 32.9755347,363.275906 C33.2499317,363.044982 33.5491879,362.636497 33.8733034,362.050452 L35.5489245,351.424718 L37.4230167,334.131449 L38.8745163,333.600162 L38.3310456,354.351765 C38.4599053,355.074989 38.6410622,355.5103 38.8745163,355.657697 C39.1079703,355.805094 39.6162784,355.805094 40.3994405,355.657697 C40.9798038,355.474458 41.4084883,355.305699 41.6854942,355.15142 C41.9625,354.997141 42.3154086,354.730589 42.74422,354.351765 L43.7484384,350.787623 L45.8377895,330.644579 C46.3257142,325.141613 46.5696765,321.036352 46.5696765,318.328796 C46.5696765,315.621239 46.3257142,311.825067 45.8377895,306.940279 L44.4371552,297.633304 C39.1951195,297.685577 35.3745793,297.685577 32.9755347,297.633304 C30.5764901,297.58103 27.5496202,297.431829 23.894925,297.185702 Z" id="male-front-hand-right-outline"></path>
        </g>
    </g>
</svg>