<?xml version="1.0" encoding="UTF-8"?>
<svg width="31px" height="29px" viewBox="0 0 31 29" version="1.1" xmlns="http://www.w3.org/2000/svg" xmlns:xlink="http://www.w3.org/1999/xlink">
    <title>male-front-ankle-right-outline</title>
    <g id="Page-1" stroke="none" stroke-width="1" fill="none" fill-rule="evenodd" fill-opacity="0.15">
        <g id="Artboard" transform="translate(-88.000000, -552.000000)" fill="#0091FF" stroke="#0091FF" stroke-width="2">
            <path d="M89.903929,554.364337 C89.903929,553.01216 97.4260177,554.527093 100.411504,554.364337 C107.692058,553.967433 111.617576,553.180603 111.617576,553.180603 C111.617576,553.180603 111.751248,561.30062 113.461945,565.42901 C114.28184,567.407644 115.240559,570.80654 116.272928,574.854843 C116.676574,576.437688 117.5,578.405322 117.5,579.525649 C117.5,580.645976 112.82449,577.308079 109.644942,577.308079 C107.525244,577.308079 102.480464,577.308079 94.5106032,577.308079 C93.0559316,579.890866 92.2114004,580.256614 91.9770097,578.405322 C91.6254235,575.628385 92.3285958,570.599209 91.9770097,566.521955 C91.6254235,562.444701 89.903929,555.716514 89.903929,554.364337 Z" id="male-front-ankle-right-outline"></path>
        </g>
    </g>
</svg>