<?xml version="1.0" encoding="UTF-8"?>
<svg width="36px" height="88px" viewBox="0 0 36 88" version="1.1" xmlns="http://www.w3.org/2000/svg" xmlns:xlink="http://www.w3.org/1999/xlink">
    <title>male-front-arm-right-outline</title>
    <g id="Page-1" stroke="none" stroke-width="1" fill="none" fill-rule="evenodd" fill-opacity="0.15">
        <g id="Artboard" transform="translate(-31.000000, -129.000000)" fill="#0091FF" stroke="#0091FF" stroke-width="2">
            <path d="M41.4661517,130.759951 C40.1304518,129.729824 39.2658732,139.878157 39.5942653,144.391175 C39.8131934,147.399854 40.4371556,151.790238 41.4661517,157.562328 C41.1340568,161.556764 40.5100946,165.687039 39.5942653,169.953155 C38.2205214,176.352328 36.2287529,188.436668 35.515492,193.825084 C34.8022311,199.2135 31.7819096,205.464531 33.4054944,210.386589 C35.0290792,215.308647 38.6570387,214.651016 43.4254725,215.138144 C53.6613715,216.183812 64.4138793,211.268625 64.4138793,210.386589 C64.4138793,208.447186 65.7728044,206.92666 65.7728044,200.102065 C65.7728044,195.552335 65.7728044,191.472943 65.7728044,187.863888 C64.2787753,179.28812 63.5317607,172.664878 63.5317607,167.994162 C63.5317607,160.988089 65.0077469,136.060709 63.5317607,133.80737 C62.0557746,131.554031 52.0690629,150.999161 47.864255,149.80214 C43.659447,148.60512 42.8018515,131.790078 41.4661517,130.759951 Z" id="male-front-arm-right-outline"></path>
        </g>
    </g>
</svg>