<?xml version="1.0" encoding="UTF-8"?>
<svg width="30px" height="29px" viewBox="0 0 30 29" version="1.1" xmlns="http://www.w3.org/2000/svg" xmlns:xlink="http://www.w3.org/1999/xlink">
    <title>male-front-ankle-left-outline</title>
    <g id="Page-1" stroke="none" stroke-width="1" fill="none" fill-rule="evenodd" fill-opacity="0.15">
        <g id="Artboard" transform="translate(-123.000000, -552.000000)" fill="#0091FF" stroke="#0091FF" stroke-width="2">
            <path d="M124,554.364337 C124,553.01216 131.522089,554.527093 134.507575,554.364337 C141.788129,553.967433 145.713647,553.180603 145.713647,553.180603 C145.713647,553.180603 145.847319,561.30062 147.558016,565.42901 C148.377911,567.407644 149.33663,570.80654 150.368999,574.854843 C150.772645,576.437688 151.596071,578.405322 151.596071,579.525649 C151.596071,580.645976 146.920561,577.308079 143.741013,577.308079 C141.621315,577.308079 136.576535,577.308079 128.606674,577.308079 C127.152003,579.890866 126.307471,580.256614 126.073081,578.405322 C125.721495,575.628385 126.424667,570.599209 126.073081,566.521955 C125.721495,562.444701 124,555.716514 124,554.364337 Z" id="male-front-ankle-left-outline" transform="translate(137.798036, 566.468088) scale(-1, 1) translate(-137.798036, -566.468088) "></path>
        </g>
    </g>
</svg>