<?xml version="1.0" encoding="UTF-8"?>
<svg width="49px" height="73px" viewBox="0 0 49 73" version="1.1" xmlns="http://www.w3.org/2000/svg" xmlns:xlink="http://www.w3.org/1999/xlink">
    <title>Right Hand</title>
    <g id="Page-1" stroke="none" stroke-width="1" fill="none" fill-rule="evenodd" fill-opacity="0.25">
        <g id="Male/Front/Focus" transform="translate(0.000000, -295.000000)" fill="#4299E1" stroke="#4299E1" stroke-width="2">
            <path d="M25.2370976,297.185702 C24.3921802,297.75024 18.7470519,302.721479 16.1844003,306.458131 C14.4759659,308.949233 12.6601161,312.906121 10.7368507,318.328796 C8.87553786,321.025662 7.53080861,322.793304 6.70266297,323.631723 C3.38976936,326.985713 1.34217264,327.120196 1.34217264,327.120196 C1.34217264,327.120196 0.572284194,328.978264 1.34217264,329.987284 C2.09700127,330.976567 5.13957814,331.124244 5.36402572,331.124244 C5.57811124,331.124244 7.43444728,331.001683 10.2937377,329.418163 C11.0787337,328.98342 12.3739788,327.973965 14.179473,326.389797 C13.6923798,329.655338 13.3057918,332.399039 13.019709,334.620901 C11.7251197,344.67533 11.4277563,343.712561 10.9895812,348.163774 C10.5514062,352.614987 10.4435624,355.914834 10.7368507,357.81138 C11.2583413,361.183595 14.4169151,360.543231 15.409945,359.249242 C16.4029749,357.955254 16.4724686,356.661634 17.3714473,352.727356 C18.2704261,348.793079 18.3965533,348.520591 19.1261785,344.577949 C19.8558037,340.635308 20.4027548,334.385298 20.9508148,333.012502 C21.3802971,332.468533 22.5077505,332.06279 23.0138947,333.012502 C23.0138947,336.085691 21.595989,340.70022 20.7370546,350.068391 C19.8781201,359.436561 19.3925794,362.5942 20.0971736,364.919514 C20.8017678,367.244829 23.8365394,366.949467 25.2370976,364.919514 C26.8752365,362.358051 26.8752365,353.351366 27.630281,346.623357 C28.3853255,339.895349 28.5977301,335.208464 29.1479341,334.891027 C29.698138,334.573589 30.0070657,334.532405 30.7498815,334.891027 C31.3539285,335.182653 30.9804046,339.38193 30.532971,345.158613 C29.8210231,354.350363 30.1229313,351.30277 29.6672824,358.485278 C29.2116335,365.667786 34.5648909,363.608662 35.215476,362.050452 C35.8660611,360.492241 35.528171,359.746735 36.5662124,351.114139 C37.6042537,342.481542 38.1777416,334.079105 38.6077341,333.839634 C39.0377265,333.600162 39.441334,333.600162 40.004075,333.839634 C40.566816,334.079105 39.7292012,345.420401 39.7292012,348.856708 C39.7292012,352.293015 39.3419061,353.479062 40.004075,354.351765 C40.6662439,355.224467 42.9811514,355.657697 43.7727133,353.386348 C44.6221865,347.101069 45.7041484,339.08178 46.0884996,336.516418 C46.3447337,334.806177 46.7085546,332.848898 47.1799622,330.644579 C47.6678868,325.141613 47.9118491,321.036352 47.9118491,318.328796 C47.9118491,314.267461 46.5170361,310.616952 46.0884996,306.458131 C45.6599632,302.299311 46.2549741,299.028668 45.7793279,297.633304 C45.3036816,296.237939 37.5692664,297.264112 33.9706995,297.185702 C30.3721325,297.107291 26.0820151,296.621164 25.2370976,297.185702 Z" id="Right-Hand"></path>
        </g>
    </g>
</svg>