<?xml version="1.0" encoding="UTF-8"?>
<svg width="43px" height="21px" viewBox="0 0 43 21" version="1.1" xmlns="http://www.w3.org/2000/svg" xmlns:xlink="http://www.w3.org/1999/xlink">
    <title>C-4</title>
    <g id="Page-1" stroke="none" stroke-width="1" fill="none" fill-rule="evenodd">
        <g id="Spine/Active" transform="translate(-67.000000, -73.000000)" fill="#4299E1" stroke="#4299E1">
            <g id="Cervical" transform="translate(66.249234, 32.350586)">
                <path d="M16.9816114,42.8880474 C16.6180429,43.474514 15.7865417,43.6079087 15.4841715,43.8548314 C15.054437,44.2057629 15.1673654,44.5709646 14.6917283,44.9446783 C14.3998308,45.1740256 13.3214275,45.3042517 12.7176609,44.9446783 C12.3310835,44.714452 12.11353,44.0444159 11.7751746,43.8548314 C11.1750025,43.5185479 10.9169786,43.6608364 10.5753548,43.6608364 C8.77640738,43.6608364 8.95001333,45.6051574 7.5689958,45.6051574 C5.54695002,45.6051574 4.31811962,45.8064511 3.88250461,46.2090384 C2.44927294,45.9727846 1.7326571,46.5269484 1.7326571,47.8715299 C1.7326571,49.2161114 1.7326571,51.253616 1.7326571,53.9840436 C1.76432897,55.3537507 1.97624664,56.2289751 2.36841009,56.6097167 C2.73064503,56.9614014 3.23457416,57.1224152 3.88250461,57.2652689 C6.43269351,57.8275269 11.0755379,57.2652689 13.3869157,57.2652689 C14.6326564,57.2652689 16.2621221,57.1082257 16.9816114,56.6097167 C17.5579019,56.2104252 17.8707309,54.3469036 17.8707309,53.6995892 C17.8707309,53.0933282 18.226695,53.0403701 19.02034,53.0130168 C19.3380595,53.0020665 19.9713498,53.0020665 20.920211,53.0130168 C21.2540684,53.3977723 21.4414752,53.7840737 21.4824315,54.1719212 C21.526698,54.5911149 21.6146203,54.9585678 21.4824315,55.644868 C21.3188397,56.4942075 22.7573242,55.697286 23.1069641,56.6097167 C23.3236161,57.1750979 23.4300468,58.4325162 23.4262562,60.3819713 C23.5897295,61.0768546 24.5648018,60.9598195 26.3514731,60.030866 C29.0314801,58.6374359 33.9082746,57.7794798 39.8720109,60.3819713 C43.8478351,62.1169657 43.8478351,60.8595474 39.8720109,56.6097167 C36.1245144,53.3270443 32.6346365,51.3459017 29.402377,50.6662889 C28.0964685,50.3917094 25.384865,50.3569174 24.446248,50.0944368 C23.4292882,49.8100479 22.9828603,49.2380932 23.1069641,48.3785725 C22.7378133,47.0196456 22.5532379,45.4470669 22.5532379,43.6608364 C22.5532379,42.3959294 21.36941,42.2366611 20.1728561,42.1480597 C19.1254387,42.0705015 18.0470556,42.1084776 17.4051265,42.4882304 C17.2270344,42.5935862 17.0825357,42.7252482 16.9816114,42.8880474 Z" id="C-4"></path>
            </g>
        </g>
    </g>
</svg>