<?xml version="1.0" encoding="UTF-8"?>
<svg width="49px" height="74px" viewBox="0 0 49 74" version="1.1" xmlns="http://www.w3.org/2000/svg" xmlns:xlink="http://www.w3.org/1999/xlink">
    <title>Left-Hand</title>
    <g id="Page-1" stroke="none" stroke-width="1" fill="none" fill-rule="evenodd" fill-opacity="0.25">
        <g id="Male/Front/Active" transform="translate(-186.000000, -300.000000)" fill="#F56565" stroke="#F56565" stroke-width="2">
            <path d="M211.044598,302 C210.017963,302.447602 205.639787,306.679902 203.077136,310.416554 C201.368702,312.907656 199.521091,316.117009 197.534304,320.044613 C195.729787,324.316569 194.392106,326.818201 193.52126,327.549509 C188.446687,331.810966 186.823867,333.66053 187.781484,335.356627 C188.739101,337.052725 191.411624,336.52106 195.658657,334.984355 C197.534304,334.305689 200.976926,330.413332 200.976926,331.204095 C200.976926,331.994858 199.912227,340.013623 199.483103,343.346417 C198.188514,353.400845 197.318417,360.70531 197.534304,362.625679 C197.861482,365.536006 202.115756,367.715588 203.532876,364.106022 C204.839115,355.601921 205.07712,353.238475 205.806746,349.295833 C206.536371,345.353192 207.295648,340.300624 207.844017,338.945747 C208.392386,337.59087 209.891664,337.990891 210.210839,338.41446 C210.530015,338.838029 209.148506,342.126759 208.20107,351.199682 C207.253634,360.272605 206.563198,367.864146 207.425043,370.872611 C209.958071,374.197981 213.208775,371.314394 213.450334,369.523437 C214.292358,363.280545 214.318491,355.500832 214.811816,352.265105 C215.715453,346.338135 215.55274,340.808734 216.096351,340.196887 C216.639962,339.585041 218.091096,339.585041 218.091096,340.196887 C218.091096,344.001603 217.600006,348.540007 217.600006,349.977032 C217.600006,359.170184 216.839334,363.647442 217.600006,366.960682 C218.360678,370.273922 222.531389,370.221512 222.984164,366.124031 C223.286013,363.392376 223.520809,360.097371 223.68855,356.239016 C224.315823,345.129087 224.776491,339.364664 225.070555,338.945747 C225.51165,338.317371 226.75775,338.714159 227.014142,339.30408 C227.270534,339.894001 226.35238,355.369137 227.014142,358.056252 C227.675904,360.743366 230.71878,359.698963 231.454328,356.50542 C232.079701,350.355708 232.564394,343.813258 232.908408,336.87807 C233.323605,330.747691 233.531204,326.328723 233.531204,323.621167 C233.531204,320.91361 233.323605,317.493585 232.908408,313.361092 C232.264517,306.383833 231.589663,302.746003 230.883846,302.447602 C229.82512,302 223.379258,302.07841 219.780691,302 C216.182124,301.92159 212.071234,301.552398 211.044598,302 Z" id="Left-Hand" transform="translate(210.525737, 337.090613) scale(-1, 1) translate(-210.525737, -337.090613) "></path>
        </g>
    </g>
</svg>