<?xml version="1.0" encoding="UTF-8"?>
<svg width="34px" height="77px" viewBox="0 0 34 77" version="1.1" xmlns="http://www.w3.org/2000/svg" xmlns:xlink="http://www.w3.org/1999/xlink">
    <title>Right Arm</title>
    <g id="Page-1" stroke="none" stroke-width="1" fill="none" fill-rule="evenodd" fill-opacity="0.25">
        <g id="Male/Front/Active" transform="translate(-36.000000, -130.000000)" fill="#F56565" stroke="#F56565" stroke-width="2">
            <path d="M42.3281881,160.994162 C40.9544441,167.393336 40.5980286,169.970926 39.2552212,175.713569 C37.9124138,181.456212 37.2179589,187.230782 37.2179589,193.102065 C41.6208684,191.557448 44.9623833,191.557448 50.4093921,193.102065 C60.5768602,195.98527 66.1519623,206.389077 66.1519623,205.507041 C66.1519623,203.567638 68.1149771,200.355208 68.1149771,193.102065 C68.1149771,188.266636 67.7567601,184.520986 67.040326,181.865113 C65.6531727,174.369667 64.959596,168.050951 64.959596,162.908967 C64.959596,155.195991 64.0629834,135.123667 63.663157,133.17354 C53.9094861,151.29196 42.9168423,158.344872 42.3281881,160.994162 Z" id="Right-Arm"></path>
        </g>
    </g>
</svg>