<?xml version="1.0" encoding="UTF-8"?>
<svg width="40px" height="80px" viewBox="0 0 40 80" version="1.1" xmlns="http://www.w3.org/2000/svg" xmlns:xlink="http://www.w3.org/1999/xlink">
    <title>Right-Forearm</title>
    <g id="Page-1" stroke="none" stroke-width="1" fill="none" fill-rule="evenodd" fill-opacity="0.25">
        <g id="Male/Front/Active" transform="translate(-26.000000, -203.000000)" fill="#F56565" stroke="#F56565" stroke-width="2">
            <path d="M34.3442488,204.203379 C33.3145896,203.694762 30.324613,214.531549 29.9388849,219.452792 C29.5531568,224.374035 29.2462624,228.623884 29.1485999,239.637146 C29.0509375,250.650408 28.9338633,256.276525 28.5567129,261.602754 C28.1795625,266.928983 27.4992381,278.709665 28.5567129,280.362711 C36.8408319,281.179913 47.8988432,281.559386 48.7666346,280.362711 C49.6344261,279.166037 49.8257975,276.583885 51.9919146,270.712412 C54.1580317,264.840939 52.8560736,267.998153 56.8864095,256.599515 C60.9167453,245.200876 62.9111385,239.798462 63.6602682,233.73065 C64.409398,227.662838 64.8529421,225.449412 63.376956,223.451684 C62.6767796,222.504005 56.9456144,220.005237 54.3621046,218.287508 C49.8245384,215.270562 47.261088,212.495368 46.5962717,212.495368 C45.9314554,212.495368 41.336644,220.380875 39.2873492,218.921946 C37.2380545,217.463017 35.2180174,204.634991 34.3442488,204.203379 Z" id="Right-Forearm"></path>
        </g>
    </g>
</svg>