<?xml version="1.0" encoding="UTF-8"?>
<svg width="54px" height="29px" viewBox="0 0 54 29" version="1.1" xmlns="http://www.w3.org/2000/svg" xmlns:xlink="http://www.w3.org/1999/xlink">
    <title>Th-1</title>
    <g id="Page-1" stroke="none" stroke-width="1" fill="none" fill-rule="evenodd">
        <g id="Spine/Disabled" transform="translate(-78.000000, -130.000000)" fill="#F0FFF4" stroke="#C6F6D5">
            <g id="Thoracic" transform="translate(66.703419, 130.583935)">
                <path d="M29.573863,1.33444463 C28.2793981,5.3792491 22.8909753,8.98867562 13.4085945,12.1627242 C12.5729262,12.373684 12.1968411,12.898705 12.2803392,13.7377872 C12.0935884,17.9396711 12.9753056,21.2355111 14.9254909,23.6253073 C15.9798356,24.5571277 18.4001668,24.5571277 22.1864846,23.6253073 C25.9942754,22.6591571 28.5237542,21.5687144 29.7749212,20.3539792 C31.0260881,19.139244 30.9182732,17.309989 29.4514765,14.8662141 L28.0185836,12.3142521 C27.578546,9.86303773 28.8953892,9.04583632 31.969113,9.86264789 C34.0706467,10.5568307 35.0244176,13.4327655 34.8304256,18.4904523 C36.6577794,15.7164695 38.3250495,16.1811241 39.8322358,19.884416 C40.553113,20.5884696 41.2383668,20.5884696 41.8879971,19.884416 C42.9973941,19.5015305 44.5749163,19.5015305 46.6205635,19.884416 C49.6890343,20.4587443 53.2004537,22.2948212 62.0434915,26.9161628 C62.6971737,27.2785098 65.3018467,28.0980512 63.7722125,24.3589178 C62.7524564,21.8661622 57.0352401,17.6939168 46.6205635,11.8421819 C43.7960701,10.1619395 41.8117355,8.04417648 40.6675597,5.48889284 C40.5494982,4.91017331 40.0717228,4.66889681 39.2342337,4.76506336 L35.649635,4.76506336 C35.2014813,4.76190944 34.9284115,4.44368025 34.8304256,3.8103758 C34.7324396,3.17707134 34.4710848,2.61038698 34.046361,2.11032271 C33.6766854,1.43646022 33.397301,1.00464528 33.2082078,0.814877921 C32.5199645,0.124180949 32.2321512,-0.0501505149 31.3575757,0.0115264553 C30.7745253,0.0526444354 30.1799544,0.493617159 29.573863,1.33444463 Z" id="Th-1"></path>
            </g>
        </g>
    </g>
</svg>