<?xml version="1.0" encoding="UTF-8"?>
<svg width="29px" height="35px" viewBox="0 0 29 35" version="1.1" xmlns="http://www.w3.org/2000/svg" xmlns:xlink="http://www.w3.org/1999/xlink">
    <title>Left-Ankle</title>
    <g id="Page-1" stroke="none" stroke-width="1" fill="none" fill-rule="evenodd" fill-opacity="0.25">
        <g id="Male/Front/Hover" transform="translate(-124.000000, -552.000000)" fill="#A0AEC0" stroke="#A0AEC0" stroke-width="2">
            <path d="M125.658584,555.235362 C125.658584,554.030886 146.411103,553.503486 146.953612,554.030886 C147.49612,554.558287 147.49612,560.616026 147.970113,563.090219 C148.17132,564.1405 149.74114,569.084234 150.65325,572.936482 C151.553263,576.737638 151.79728,579.452925 151.79728,579.737558 C151.79728,580.310648 148.981109,577.975764 145.724175,577.444117 C142.467241,576.91247 141.100234,576.98242 136.660293,579.164467 C132.220352,581.346515 128.649867,587.928869 128.298281,585.151931 C127.946695,582.374994 127.309404,572.811701 126.957818,568.734448 C126.799411,566.89744 126.832996,563.947257 126.573781,561.449453 C126.257665,558.40336 125.658584,555.897161 125.658584,555.235362 Z" id="Left-Ankle" transform="translate(138.727932, 569.825550) scale(-1, 1) translate(-138.727932, -569.825550) "></path>
        </g>
    </g>
</svg>