<?xml version="1.0" encoding="UTF-8"?>
<svg width="47px" height="21px" viewBox="0 0 47 21" version="1.1" xmlns="http://www.w3.org/2000/svg" xmlns:xlink="http://www.w3.org/1999/xlink">
    <title>C-6</title>
    <g id="Page-1" stroke="none" stroke-width="1" fill="none" fill-rule="evenodd">
        <g id="Spine/Disabled" transform="translate(-69.000000, -101.000000)" fill="#EBF8FF" stroke="#BEE3F8">
            <g id="Cervical" transform="translate(66.249234, 32.350586)">
                <path d="M21.2736869,70.4867203 L19.5847034,71.928673 C19.0862828,72.8038981 18.8370726,73.2415106 18.8370726,73.2415106 C18.8370726,73.2415106 18.4220928,73.6355354 17.5921333,74.4235849 L16.0315425,74.8256738 L14.6487013,74.8256738 L13.4583555,74.8256738 L12.178042,74.8256738 L11.3949835,75.4673092 L10.6204574,76.3882383 L8.97554558,76.8676813 L7.58821297,77.9363873 C6.34929058,77.9363873 5.72982938,77.9363873 5.72982938,77.9363873 C5.72982938,77.9363873 4.95041932,77.9363873 4.95041932,77.9363873 C4.95041932,77.9363873 4.54496367,78.2486551 3.73405238,78.8731905 L3.73405238,81.06444 L4.35957951,84.5333201 L4.95041932,87.0132256 C4.68745216,88.065115 5.56671671,88.5910597 7.58821297,88.5910597 C9.60970923,88.5910597 11.1396522,88.5910597 12.178042,88.5910597 L16.0315425,87.993873 L18.8370726,87.0132256 L20.0375967,86.3939695 C20.5303825,85.9125366 20.7767754,85.2923201 20.7767754,84.5333201 C20.7767754,83.7743202 20.9424125,83.019266 21.2736869,82.2681577 L21.6625489,81.6171336 L22.8720469,81.6171336 L23.9881923,81.6171336 L24.7822587,81.6171336 L25.2711641,81.06444 L25.9685993,81.06444 L27.1639138,81.06444 L27.9025483,81.6171336 C29.3269337,81.9292199 30.2223384,82.7054796 30.5887624,83.9459125 C30.9551865,85.1863454 31.893017,85.6076357 33.4022541,85.2097833 C40.1858117,86.6677186 44.1099387,87.5957485 45.174635,87.993873 C46.2393313,88.3919975 47.1885875,88.5910597 48.0224036,88.5910597 L48.7834642,87.993873 L48.7834642,87.0132256 L48.0224036,86.3939695 C41.8567713,80.9796397 37.1433222,78.0383425 33.8820561,77.570078 C28.9901569,76.8676813 29.0566636,76.8676813 27.1639138,76.8676813 C25.9020806,76.8676813 25.5036425,75.6589577 25.9685993,73.2415106 L25.9685993,71.928673 L24.7822587,70.9869301 L23.9881923,70.4867203 L22.8720469,69.8912663 L21.6625489,69.8912663 L21.2736869,70.4867203 Z" id="C-6"></path>
            </g>
        </g>
    </g>
</svg>