<svg width="35" height="46" fill="none" xmlns="http://www.w3.org/2000/svg"><path fill-rule="evenodd" clip-rule="evenodd" d="M17.5 1C8.402 1 1 8.518 1 17.758c0 3.657 1.137 7.13 3.292 10.046l12.19 16.676a.236.236 0 0 0 .061.052.29.29 0 0 1 .05.04c.61.663 1.49.496 1.923-.092 1.896-2.569 4.645-6.342 7.162-9.797 2.144-2.943 4.12-5.655 5.258-7.197 0 0 0-.003.002-.004l.015-.021A16.817 16.817 0 0 0 34 17.758C34 8.518 26.598 1 17.5 1Zm0 25.581c5.126 0 9.281-4.123 9.281-9.209 0-5.086-4.155-9.21-9.281-9.21s-9.281 4.124-9.281 9.21c0 5.086 4.155 9.21 9.281 9.21Z" fill="#fff"/><path fill-rule="evenodd" clip-rule="evenodd" d="M16.511 44.032 4.658 27.702c-2.094-2.854-3.2-6.256-3.2-9.836 0-9.047 7.197-16.409 16.042-16.409 8.845 0 16.042 7.362 16.042 16.409a16.55 16.55 0 0 1-2.963 9.501l-.015.02-.001.004c-1.107 1.51-3.028 4.166-5.112 7.048-2.448 3.383-5.12 7.077-6.963 9.593-.422.575-1.277.738-1.87.09a.262.262 0 0 0-.048-.04.228.228 0 0 1-.059-.05Zm-.868 1.177a1.615 1.615 0 0 1-.3-.305l-.006-.008L3.482 28.565l-.002-.004C1.201 25.454 0 21.751 0 17.866 0 8.046 7.818 0 17.5 0S35 8.046 35 17.866c0 3.66-1.075 7.178-3.116 10.177l-.007.022-.138.188c-1.1 1.5-3.01 4.142-5.09 7.017l-.017.022-.001.003c-2.446 3.38-5.12 7.078-6.966 9.597-.872 1.189-2.732 1.606-4.022.317Zm.104.076c.005.004.005.004 0 0Zm14.816-17.894a.517.517 0 0 0 .013.005l-.013-.005ZM17.5 25.048a7.563 7.563 0 0 0 7.565-7.56 7.563 7.563 0 0 0-7.565-7.56 7.563 7.563 0 0 0-7.565 7.56 7.563 7.563 0 0 0 7.565 7.56Zm9.023-7.56c0 4.98-4.04 9.018-9.023 9.018s-9.023-4.038-9.023-9.018 4.04-9.017 9.023-9.017 9.023 4.037 9.023 9.017Z" fill="#EF556F"/></svg>