<?xml version="1.0" encoding="UTF-8"?>
<svg width="55px" height="28px" viewBox="0 0 55 28" version="1.1" xmlns="http://www.w3.org/2000/svg" xmlns:xlink="http://www.w3.org/1999/xlink">
    <title>C-7</title>
    <g id="Page-1" stroke="none" stroke-width="1" fill="none" fill-rule="evenodd">
        <g id="Spine/Default" transform="translate(-72.000000, -113.000000)" fill="#90CDF4" stroke="#4299E1">
            <g id="Cervical" transform="translate(66.249234, 32.350586)">
                <path d="M24.420669,82.5751133 C24.4505442,86.4664688 19.4122021,89.7712126 9.30564275,92.4893447 C7.63733349,92.938032 6.93732474,93.9626462 7.2056165,95.5631873 C7.57318503,98.6439724 8.44927213,101.584659 9.83387778,104.385247 C10.655561,106.047234 12.6394011,106.478003 15.7853981,105.677556 C21.063257,103.993191 24.1282818,102.600423 24.9804724,101.499254 C26.2587583,99.8475007 26.4189865,97.8334508 25.4198277,96.4447966 C24.420669,95.0561424 24.420669,94.070888 25.4198277,93.7563696 C26.8941511,93.2922774 29.3193409,93.7846521 29.5792175,96.7882309 C29.7524685,98.7906168 30.2399973,99.3667313 31.0418038,98.5165743 C32.1493667,97.9672697 33.0563468,98.2041437 33.7627441,99.227196 C34.4691414,100.250248 35.3802706,100.250248 36.4961316,99.227196 C38.0987122,97.6771694 40.2376367,97.5798119 42.9129051,98.9351236 C46.9258076,100.968091 49.5425847,102.477352 56.0399872,106.264546 C61.7329048,109.582823 60.1335748,103.778154 59.3828324,102.708852 C58.8823374,101.995985 55.4362439,99.0118236 49.0445518,93.7563696 C46.242695,90.985872 41.3114331,89.2641021 34.2507662,88.5910597 C32.693902,88.4426551 31.6242479,87.3265165 31.0418038,85.242644 C30.4578248,83.1526187 29.4114063,81.9441152 27.9025483,81.6171336 C27.123124,81.4482261 26.3647844,81.1112834 25.7712044,81.2872978 C25.5319647,81.3582397 24.9621147,81.4672708 24.6562384,81.8048411 C24.5444948,81.9281633 24.4659717,82.1849207 24.420669,82.5751133 Z" id="C-7"></path>
            </g>
        </g>
    </g>
</svg>