<?xml version="1.0" encoding="UTF-8"?>
<svg width="44px" height="23px" viewBox="0 0 44 23" version="1.1" xmlns="http://www.w3.org/2000/svg" xmlns:xlink="http://www.w3.org/1999/xlink">
    <title>C-5</title>
    <g id="Page-1" stroke="none" stroke-width="1" fill="none" fill-rule="evenodd">
        <g id="Spine/Active" transform="translate(-67.000000, -88.000000)" fill="#4299E1" stroke="#4299E1">
            <g id="Cervical" transform="translate(66.249234, 32.350586)">
                <path d="M4.27874985,61.5462773 C2.42977154,61.3099858 1.58107395,61.8926505 1.7326571,63.2942715 C1.88424025,64.6958925 1.88424025,67.4560667 1.7326571,71.574794 C1.67838237,73.2133552 2.52707996,74.0326359 4.27874985,74.0326359 C5.63008702,74.0326359 7.3671879,74.1255891 9.30205996,74.0326359 C11.1293028,73.9448533 13.1469743,73.6875796 14.7181868,73.1517143 C17.9531602,72.0484198 18.190428,72.1627675 18.190428,69.8261381 C18.190428,68.9241526 18.1336306,68.1641328 18.4310212,67.785559 C18.9040329,67.1834221 19.8657498,67.2788245 20.2946475,67.2788245 C20.9932005,67.2788245 21.8183276,67.816635 21.8183276,69.2423852 C21.8183276,69.7998402 24.260447,70.0426396 25.1514376,70.8980056 C25.570245,71.3000677 26.0415307,72.3449445 26.5652947,74.0326359 C26.9414099,74.5101718 27.8779808,74.4024522 29.3750075,73.7094771 C31.6205475,72.6700146 35.9391549,72.4259804 41.4033697,76.6915458 C42.853879,77.8238663 43.4411885,77.6128618 43.7399918,77.4062344 C44.4545491,76.9121064 43.6820689,74.075294 43.1521497,73.1517143 C42.7365648,72.4274044 39.5373261,68.2874903 34.9991037,65.7629799 C31.4383096,63.7821908 26.3806834,63.4907651 24.7462899,63.0168922 C23.7051021,62.7150122 23.1025012,62.6098173 22.8720469,61.7698884 C22.4544322,60.2478226 22.9731165,57.7137375 22.2932681,57.1510911 C21.2382557,56.2779568 19.8228364,55.4252653 17.6586139,57.1510911 C15.4943914,58.8769168 15.27783,59.4647699 12.0835982,59.4647699 C9.95411026,59.4647699 8.25526872,60.0219902 6.98707356,61.1364308 L4.27874985,61.5462773 Z" id="C-5"></path>
            </g>
        </g>
    </g>
</svg>