<?xml version="1.0" encoding="UTF-8"?>
<svg width="121px" height="61px" viewBox="0 0 121 61" version="1.1" xmlns="http://www.w3.org/2000/svg" xmlns:xlink="http://www.w3.org/1999/xlink">
    <title>Chest</title>
    <g id="Page-1" stroke="none" stroke-width="1" fill="none" fill-rule="evenodd" fill-opacity="0.25">
        <g id="Male/Front/Hover" transform="translate(-62.000000, -114.000000)" fill="#A0AEC0" stroke="#A0AEC0" stroke-width="2">
            <path d="M64,139.529607 C63.3830243,134.160619 63.6136073,130.553758 64.6917488,128.709024 C68.0695309,122.929534 75.57963,120.324219 78.7808501,118.738583 C85.8816973,115.221375 92.7837353,115.36922 97.1559251,115.27188 C102.548581,115.151821 114.583252,120.688672 125.222954,120.688672 C132.28107,120.688672 133.14374,117.717292 142.258617,116.273116 C148.577891,115.27188 149.318216,115.27188 157.087652,116.273116 C175.215003,118.609162 180.655657,135.254408 180.912403,135.993939 C181.390637,137.371441 180.318419,163.975134 163.026577,171.552177 C154.286203,175.382086 141.267065,170.862861 129.759156,169.579543 C117.400959,168.201405 106.717085,169.951734 102.829197,171.552177 C88.1583938,177.591386 78.0054283,169.699372 72.4824789,164.963597 C66.9595295,160.227822 67.6288522,155.623207 66.5074603,151.982964 C65.7598656,149.556136 64.9240455,145.405017 64,139.529607 Z" id="Chest"></path>
        </g>
    </g>
</svg>