<?xml version="1.0" encoding="UTF-8"?>
<svg width="102px" height="85px" viewBox="0 0 102 85" version="1.1" xmlns="http://www.w3.org/2000/svg" xmlns:xlink="http://www.w3.org/1999/xlink">
    <title>Hip/ Groin</title>
    <g id="Page-1" stroke="none" stroke-width="1" fill="none" fill-rule="evenodd" fill-opacity="0.25">
        <g id="Male/Front/Hover" transform="translate(-69.000000, -240.000000)" fill="#A0AEC0" stroke="#A0AEC0" stroke-width="2">
            <path d="M72.0693773,242.655291 C71.3310465,243.599385 70.4955189,250.099985 71.2338497,255.484957 C72.9742053,261.013721 78.4838529,266.557927 80.0201786,268.437298 C98.2057443,290.683507 96.0508542,296.041354 99.6328921,303.141808 C102.692317,309.206319 106.63982,315.032221 112.212439,321.860685 C115.851075,324.833017 121.813889,324.086853 123.100719,322.917617 C127.966113,318.496832 132.379333,312.237873 136.73113,304.988063 C141.190441,297.559143 144.305775,286.953795 167.194568,263.329936 C169.163269,258.243732 169.769103,251.352184 169.012069,242.655291 C151.705689,254.053294 135.846271,259.701617 121.433814,259.60026 C99.815129,259.448225 78.8110251,246.478972 72.0693773,242.655291 Z" id="Hip/-Groin"></path>
        </g>
    </g>
</svg>