<?xml version="1.0" encoding="UTF-8"?>
<svg width="61px" height="173px" viewBox="0 0 61 173" version="1.1" xmlns="http://www.w3.org/2000/svg" xmlns:xlink="http://www.w3.org/1999/xlink">
    <title>Right Leg</title>
    <g id="Page-1" stroke="none" stroke-width="1" fill="none" fill-rule="evenodd" fill-opacity="0.25">
        <g id="Male/Front/Hover" transform="translate(-57.000000, -253.000000)" fill="#A0AEC0" stroke="#A0AEC0" stroke-width="2">
            <path d="M70.9470426,255.733935 C67.6450895,260.44684 65.994113,267.922931 65.994113,278.162209 C65.994113,281.015123 65.649274,283.68508 64.959596,286.172081 C55.283825,318.854238 57.2796406,357.677678 70.9470426,402.642402 C72.9643437,407.584609 74.0656666,413.208477 74.2510113,419.514005 C90.535192,427.246722 104.002301,426.716534 114.65234,417.923441 C116.063326,416.917554 114.65234,407.710409 114.65234,401.443329 C114.65234,395.176249 113.663014,387.239474 115.922529,370.527922 C118.5,338.250589 114.575003,326.664195 113.017792,323.217848 C111.460581,319.771502 103.836784,312.256702 99.6328921,303.141808 C95.4289999,294.026915 96.3240217,291.171449 91.4801837,284.118314 C88.8118476,280.232938 83.9511087,272.714247 77.1408599,265.769476 C76.0561702,264.663361 73.9915645,261.318181 70.9470426,255.733935 Z" id="Right-Leg"></path>
        </g>
    </g>
</svg>