<?xml version="1.0" encoding="UTF-8"?>
<svg width="128px" height="25px" viewBox="0 0 128 25" version="1.1" xmlns="http://www.w3.org/2000/svg" xmlns:xlink="http://www.w3.org/1999/xlink">
    <title>Clavicle</title>
    <g id="Page-1" stroke="none" stroke-width="1" fill="none" fill-rule="evenodd" fill-opacity="0.25">
        <g id="Male/Front/Focus" transform="translate(-61.000000, -97.000000)" fill="#4299E1" stroke="#4299E1" stroke-width="2">
            <path d="M62.8439132,106.045087 C61.9046009,105.264811 64.5076448,104.205094 68.0088245,102.84462 C69.9100737,102.10584 77.4672955,98.315571 78.7217273,98.315571 C85.6154373,100.434006 85.9052309,105.563536 105.350166,103.510262 C114.460544,102.529693 118.41935,107.193856 120.618811,108.062796 C122.818272,108.931736 124.773548,109.005804 126.741693,108.618224 C128.709837,108.230645 132.030524,104.260497 137.825239,104.260497 C143.619954,104.260497 144.245011,106.146043 165.643498,98.9526737 C166.682918,98.9526737 173.339287,102.311405 185.612606,109.028867 C172.331738,112.591587 162.588695,114.67195 156.383478,115.269955 C147.075653,116.166963 150.061505,113.316205 129.153642,120.304929 C125.321106,121.359667 117.63969,120.342438 106.109392,117.253241 C101.458597,115.293231 95.2647788,114.632136 87.5279381,115.269955 C74.0350509,112.047181 67.7680153,110.703631 62.8439132,106.045087 Z" id="Clavicle"></path>
        </g>
    </g>
</svg>