<?xml version="1.0" encoding="UTF-8"?>
<svg width="62px" height="171px" viewBox="0 0 62 171" version="1.1" xmlns="http://www.w3.org/2000/svg" xmlns:xlink="http://www.w3.org/1999/xlink">
    <title>Left Leg</title>
    <g id="Page-1" stroke="none" stroke-width="1" fill="none" fill-rule="evenodd" fill-opacity="0.25">
        <g id="Male/Front/Focus" transform="translate(-118.000000, -258.000000)" fill="#4299E1" stroke="#4299E1" stroke-width="2">
            <path d="M168.707931,260.660549 C169.120945,270.517188 170.817318,283.028227 173.797051,298.193664 C178.266649,320.94182 182.170051,352.085584 169.327452,397.705145 C166.685088,407.563059 164.954473,415.499346 164.135607,421.514005 C149.586886,429.706651 135.958687,429.176463 123.251011,419.923441 C122.519601,417.572418 126.457212,400.484405 122.213613,381.184367 C117.970014,361.884328 118.871708,331.286593 120.907718,323.944448 C123.100719,322.917617 126.507731,320.42147 130.443901,314.454546 C132.271045,311.68474 135.355582,308.00921 145.314018,289.146554 C148.421219,284.782909 154.013939,278.094223 164.135607,266.313035 C164.871271,265.456754 166.395379,263.572592 168.707931,260.660549 Z" id="Left-Leg"></path>
        </g>
    </g>
</svg>