<?xml version="1.0" encoding="UTF-8"?>
<svg width="36px" height="42px" viewBox="0 0 36 42" version="1.1" xmlns="http://www.w3.org/2000/svg" xmlns:xlink="http://www.w3.org/1999/xlink">
    <title>Right Foot</title>
    <g id="Page-1" stroke="none" stroke-width="1" fill="none" fill-rule="evenodd" fill-opacity="0.25">
        <g id="Male/Front/Focus" transform="translate(-85.000000, -577.000000)" fill="#4299E1" stroke="#4299E1" stroke-width="2">
            <path d="M93.673096,592.300409 C92.4168924,600.600606 87.3993265,603.429874 86.6860656,606.207454 C85.9728047,608.985035 85.9204044,615.048722 87.8110804,615.048722 C92.9688007,617.073246 116.61731,619.759775 118.978074,615.461727 C119.930641,614.041445 119.380795,606.677314 118.5,599.101838 C117.448918,590.061767 118.016532,580.586371 117.5,580.062403 C116.860453,579.413648 111.402892,578.805506 109.123707,578.405322 C106.358039,577.91972 104.953442,577.793094 100.675585,579.125612 C96.3977284,580.45813 94.9691904,582.867102 94.312667,583.438009 C93.6561437,584.008915 94.9292995,584.000212 93.673096,592.300409 Z" id="Right-Foot"></path>
        </g>
    </g>
</svg>