<?xml version="1.0" encoding="UTF-8"?>
<svg width="40px" height="21px" viewBox="0 0 40 21" version="1.1" xmlns="http://www.w3.org/2000/svg" xmlns:xlink="http://www.w3.org/1999/xlink">
    <title>C-1</title>
    <g id="Page-1" stroke="none" stroke-width="1" fill="none" fill-rule="evenodd">
        <g id="Spine/Default" transform="translate(-65.000000, -31.000000)" fill="#D6BCFA" stroke="#9F7AEA">
            <g id="Cervical" transform="translate(66.249234, 32.350586)">
                <path d="M6.938417,0.173649397 C11.2515782,2.08078555 13.5918049,3.24653367 13.959097,3.67089377 C14.3263891,4.09525387 14.6998428,3.87423613 15.0794582,3.00784053 C16.3113213,0.795324106 17.3525214,0.62201927 18.2030586,2.48792603 C19.0535958,4.35383278 19.5757009,5.11909058 19.7693739,4.78369942 L23.6682751,4.78369942 C24.5486999,5.18013346 24.5486999,6.23490933 23.6682751,7.94802703 C22.7878503,9.66114474 23.6640354,11.0615837 26.2968306,12.149344 C26.5522815,12.414793 28.8076221,12.5475175 33.0628525,12.5475175 C37.3180829,12.5475175 38.9433943,14.2516674 37.9387867,17.6599672 C37.8924997,18.5624699 36.6631595,19.0137212 34.2507662,19.0137212 C31.8383729,19.0137212 28.3108758,17.9086203 23.6682751,15.6984185 C22.0416397,15.2010087 20.4712522,15.6158897 18.9571124,16.9430614 C17.4429726,18.2702331 12.8458394,18.054849 5.16571275,16.296909 C4.25543684,16.1781346 3.66773419,15.3338869 3.40260481,13.7641659 C3.00491074,11.4095843 1.66076212,11.0726167 0.896253794,9.4669095 C0.13174547,7.86120234 0.091776102,7.69698471 0.091776102,6.24034206 C0.091776102,4.78369942 -0.865402381,3.24313479 3.40260481,3.67089377 C4.32512329,3.76335275 4.71783631,3.8834743 5.16571275,3.67089377 C6.0992286,3.22780887 4.98967185,0.52094819 5.16571275,0.173649397 C5.28307335,-0.0578831323 5.87397477,-0.0578831323 6.938417,0.173649397 Z" id="C-1"></path>
            </g>
        </g>
    </g>
</svg>