<?xml version="1.0" encoding="UTF-8"?>
<svg width="30px" height="32px" viewBox="0 0 30 32" version="1.1" xmlns="http://www.w3.org/2000/svg" xmlns:xlink="http://www.w3.org/1999/xlink">
    <title>Right-Ankle</title>
    <g id="Page-1" stroke="none" stroke-width="1" fill="none" fill-rule="evenodd" fill-opacity="0.25">
        <g id="Male/Front/Focus" transform="translate(-89.000000, -553.000000)" fill="#4299E1" stroke="#4299E1" stroke-width="2">
            <path d="M90.6699562,554.751863 C90.6699562,553.399686 108.313788,554.364337 111.309975,554.364337 C113.462725,554.364337 113.331791,555.098544 113.331791,558.159156 C113.331791,562.037546 115.363552,568.734448 116.2874,571.178268 C116.860635,572.694624 117.5,578.005285 117.5,579.125612 C117.5,580.245939 112.972146,577.851633 109.792598,577.851633 C106.61305,577.851633 103.465142,578.130576 100.675585,579.125612 C97.8860279,580.120648 94.3081813,584.802485 93.8936631,583.048618 C93.479145,581.294751 92.6707684,570.599209 92.3191823,566.521955 C91.9675962,562.444701 90.6699562,556.10404 90.6699562,554.751863 Z" id="Right-Ankle"></path>
        </g>
    </g>
</svg>