<?xml version="1.0" encoding="UTF-8"?>
<svg width="68px" height="449px" viewBox="0 0 68 449" version="1.1" xmlns="http://www.w3.org/2000/svg" xmlns:xlink="http://www.w3.org/1999/xlink">
    <title>Core</title>
    <g id="Page-1" stroke="none" stroke-width="1" fill="none" fill-rule="evenodd">
        <g id="Spine/Default" transform="translate(-47.000000, -45.000000)" fill="#E2E8F0" stroke="#A0AEC0">
            <path d="M83.5387537,480.78222 C82.4841792,487.513209 77.6237426,490.635228 69.9832862,491.978504 C62.3428298,493.321781 59.7307434,493.321781 52.9751293,490.635228 C35.6793341,410.386967 68.0259922,351.675341 80.773792,314.369768 C93.5215918,277.064194 101.460471,236.322177 87.4655728,173.245397 C72.5560205,120.941646 64.029369,117.091977 69.9832862,46.6302152 C75.1449358,45.0919451 80.773792,45.0919451 83.9305783,50.3616287 C82.4986224,63.0479148 76.2831798,92.8364024 98.2214271,151.397662 C110.10658,185.279095 115.832733,225.181284 114.160735,259.222618 C112.74647,288.016587 105.168436,312.10377 100.5,330.087826 C83.9305783,394.073004 66.7034189,406.235502 83.5387537,480.78222 Z" id="Core"></path>
        </g>
    </g>
</svg>