<svg width="84" height="84" viewBox="0 0 84 84" fill="none" xmlns="http://www.w3.org/2000/svg">
<rect x="0.5" y="0.5" width="83" height="83" rx="4.5" fill="#F8F8FA" stroke="#C7C3D8"/>
<rect x="16.5" y="16.5" width="51" height="51" rx="4.5" fill="#D8E9FB" stroke="#1E0E62"/>
<path d="M20.0417 39.667C20.3639 39.667 20.625 39.9282 20.625 40.2503V41.417H29.375V40.2503C29.375 39.9282 29.6362 39.667 29.9584 39.667C30.2805 39.667 30.5417 39.9282 30.5417 40.2503V43.7503C30.5417 44.0725 30.2805 44.3337 29.9584 44.3337C29.6362 44.3337 29.375 44.0725 29.375 43.7503V42.5837H20.625V43.7503C20.625 44.0725 20.3639 44.3337 20.0417 44.3337C19.7195 44.3337 19.4584 44.0725 19.4584 43.7503V40.2503C19.4584 39.9282 19.7195 39.667 20.0417 39.667Z" fill="#2094FF"/>
<path d="M44.3334 20.0413C44.3334 20.3635 44.0722 20.6247 43.75 20.6247L42.5834 20.6247L42.5834 29.3747L43.75 29.3747C44.0722 29.3747 44.3334 29.6358 44.3334 29.958C44.3334 30.2802 44.0722 30.5413 43.75 30.5413L40.25 30.5413C39.9279 30.5413 39.6667 30.2802 39.6667 29.958C39.6667 29.6358 39.9279 29.3747 40.25 29.3747L41.4167 29.3747L41.4167 20.6247L40.25 20.6247C39.9279 20.6247 39.6667 20.3635 39.6667 20.0413C39.6667 19.7192 39.9279 19.458 40.25 19.458L43.75 19.458C44.0722 19.458 44.3334 19.7192 44.3334 20.0413Z" fill="#2094FF"/>
<path d="M54.0417 39.667C54.3639 39.667 54.625 39.9282 54.625 40.2503V41.417H63.375V40.2503C63.375 39.9282 63.6362 39.667 63.9584 39.667C64.2805 39.667 64.5417 39.9282 64.5417 40.2503V43.7503C64.5417 44.0725 64.2805 44.3337 63.9584 44.3337C63.6362 44.3337 63.375 44.0725 63.375 43.7503V42.5837H54.625V43.7503C54.625 44.0725 54.3639 44.3337 54.0417 44.3337C53.7195 44.3337 53.4584 44.0725 53.4584 43.7503V40.2503C53.4584 39.9282 53.7195 39.667 54.0417 39.667Z" fill="#2094FF"/>
<path d="M44.3334 54.0413C44.3334 54.3635 44.0722 54.6247 43.75 54.6247L42.5834 54.6247L42.5834 63.3747L43.75 63.3747C44.0722 63.3747 44.3334 63.6358 44.3334 63.958C44.3334 64.2802 44.0722 64.5413 43.75 64.5413L40.25 64.5413C39.9279 64.5413 39.6667 64.2802 39.6667 63.958C39.6667 63.6358 39.9279 63.3747 40.25 63.3747L41.4167 63.3747L41.4167 54.6247L40.25 54.6247C39.9279 54.6247 39.6667 54.3635 39.6667 54.0413C39.6667 53.7192 39.9279 53.458 40.25 53.458L43.75 53.458C44.0722 53.458 44.3334 53.7192 44.3334 54.0413Z" fill="#2094FF"/>
<path d="M71.0417 39.667C71.3639 39.667 71.625 39.9282 71.625 40.2503V41.417H80.375V40.2503C80.375 39.9282 80.6362 39.667 80.9584 39.667C81.2805 39.667 81.5417 39.9282 81.5417 40.2503V43.7503C81.5417 44.0725 81.2805 44.3337 80.9584 44.3337C80.6362 44.3337 80.375 44.0725 80.375 43.7503V42.5837H71.625V43.7503C71.625 44.0725 71.3639 44.3337 71.0417 44.3337C70.7195 44.3337 70.4584 44.0725 70.4584 43.7503V40.2503C70.4584 39.9282 70.7195 39.667 71.0417 39.667Z" fill="#C7C3D8"/>
<path d="M44.3334 71.0413C44.3334 71.3635 44.0722 71.6247 43.75 71.6247L42.5834 71.6247L42.5834 80.3747L43.75 80.3747C44.0722 80.3747 44.3334 80.6358 44.3334 80.958C44.3334 81.2802 44.0722 81.5413 43.75 81.5413L40.25 81.5413C39.9279 81.5413 39.6667 81.2802 39.6667 80.958C39.6667 80.6358 39.9279 80.3747 40.25 80.3747L41.4167 80.3747L41.4167 71.6247L40.25 71.6247C39.9279 71.6247 39.6667 71.3635 39.6667 71.0413C39.6667 70.7192 39.9279 70.458 40.25 70.458L43.75 70.458C44.0722 70.458 44.3334 70.7192 44.3334 71.0413Z" fill="#C7C3D8"/>
<path d="M3.04171 39.667C3.36387 39.667 3.62504 39.9282 3.62504 40.2503V41.417H12.375V40.2503C12.375 39.9282 12.6362 39.667 12.9584 39.667C13.2805 39.667 13.5417 39.9282 13.5417 40.2503V43.7503C13.5417 44.0725 13.2805 44.3337 12.9584 44.3337C12.6362 44.3337 12.375 44.0725 12.375 43.7503V42.5837H3.62504V43.7503C3.62504 44.0725 3.36387 44.3337 3.04171 44.3337C2.71954 44.3337 2.45837 44.0725 2.45837 43.7503V40.2503C2.45837 39.9282 2.71954 39.667 3.04171 39.667Z" fill="#C7C3D8"/>
<path d="M44.3334 3.04134C44.3334 3.36351 44.0722 3.62467 43.75 3.62467L42.5834 3.62467L42.5834 12.3747L43.75 12.3747C44.0722 12.3747 44.3334 12.6358 44.3334 12.958C44.3334 13.2802 44.0722 13.5413 43.75 13.5413L40.25 13.5413C39.9279 13.5413 39.6667 13.2802 39.6667 12.958C39.6667 12.6358 39.9279 12.3747 40.25 12.3747L41.4167 12.3747L41.4167 3.62467L40.25 3.62467C39.9279 3.62467 39.6667 3.36351 39.6667 3.04134C39.6667 2.71917 39.9279 2.45801 40.25 2.45801L43.75 2.45801C44.0722 2.45801 44.3334 2.71918 44.3334 3.04134Z" fill="#C7C3D8"/>
<rect x="33.5" y="33.5" width="17" height="17" rx="4.5" fill="#F8F8FA" stroke="#2094FF"/>
</svg>
