<?xml version="1.0" encoding="UTF-8"?>
<svg width="43px" height="21px" viewBox="0 0 43 21" version="1.1" xmlns="http://www.w3.org/2000/svg" xmlns:xlink="http://www.w3.org/1999/xlink">
    <title>C-3</title>
    <g id="Page-1" stroke="none" stroke-width="1" fill="none" fill-rule="evenodd">
        <g id="Spine/Active" transform="translate(-67.000000, -61.000000)" fill="#4299E1" stroke="#4299E1">
            <g id="Cervical" transform="translate(66.249234, 32.350586)">
                <path d="M17.8707309,30.2053231 C17.2838781,31.151966 16.397751,31.7096622 15.2123496,31.8784116 L3.88250461,32.2090384 C2.44927294,31.9727846 1.7326571,32.5269484 1.7326571,33.8715299 C1.7326571,35.2161114 1.7326571,37.253616 1.7326571,39.9840436 C1.53866396,41.7344923 2.2552798,42.6097167 3.88250461,42.6097167 C6.32334184,42.6097167 11.7700892,42.6097167 13.9174703,42.6097167 C15.1632111,42.6097167 16.2621221,42.143377 16.9816114,41.644868 C17.5579019,41.2455765 17.8707309,40.3469036 17.8707309,39.6995892 C17.8707309,38.7292719 18.638106,38.4319365 20.1728561,38.8075828 C21.361551,39.0603358 21.7980762,40.0060975 21.4824315,41.644868 C21.3188397,42.4942075 22.7573242,41.697286 23.1069641,42.6097167 C23.3236161,43.1750979 23.4300468,44.4325162 23.4262562,46.3819713 C23.4337478,47.2254954 24.1561915,47.0966578 25.5935875,45.9954588 C27.7496813,44.3436601 32.9194758,44.505212 38.849385,47.3955326 C42.8026577,49.322413 43.4644569,48.4165996 40.8347825,44.6780926 C36.6845806,40.0600374 32.7927008,37.5240535 29.159143,37.0701409 C25.5255851,36.6162284 23.3236168,36.2390792 22.5532379,35.9386936 C22.5532379,35.2384873 22.5532379,33.995269 22.5532379,32.2090384 C22.5532379,29.5296927 18.7510102,28.7853588 17.8707309,30.2053231 Z" id="C-3"></path>
            </g>
        </g>
    </g>
</svg>