<?xml version="1.0" encoding="UTF-8"?>
<svg width="66px" height="29px" viewBox="0 0 66 29" version="1.1" xmlns="http://www.w3.org/2000/svg" xmlns:xlink="http://www.w3.org/1999/xlink">
    <title>L-2</title>
    <g id="Page-1" stroke="none" stroke-width="1" fill="none" fill-rule="evenodd">
        <g id="Spine/Active" transform="translate(-50.000000, -385.000000)" fill="#ECC94B" stroke="#ECC94B">
            <g id="Lumbar" transform="translate(47.107661, 361.493645)">
                <path d="M34.7191268,28.7422241 C27.113708,25.1967275 17.8657599,24.3232796 8.73149727,24.8122722 C4.64418031,29.3109355 3.29667798,40.2313629 3.75777423,43.5982188 C7.89157503,46.2893129 22.024818,47.6253482 31.9400275,46.8370132 C33.126794,44.7304447 32.8457587,43.3978164 33.2822854,41.2626058 C33.5519541,37.5085922 43.5761284,38.0741489 42.0546854,46.0313172 C41.6407885,46.5684479 41.1897238,47.6089192 40.7014914,49.1527311 C43.5259003,48.1344758 45.5604902,48.8115408 46.8052613,51.1839259 C47.746599,52.3528904 48.5270588,49.6600751 48.5270588,47.8172155 C48.5270588,46.2409988 50.2091183,45.0880538 54.8975614,46.8370132 C59.0270106,48.1135585 61.5913967,49.3895121 62.9979683,49.9141435 C64.4045399,50.4387749 66.7704754,51.7127725 68.3476502,45.5431287 C68.3476502,38.8810414 70.0503721,33.6259039 48.2631385,35.8053738 C46.5168005,35.94246 46.0308414,35.3265299 46.8052613,33.9575834 C47.9235743,31.5277914 48.4095334,29.9789088 48.2631385,29.3109355 C46.8052613,26.9008055 42.7548994,25.4885678 39.846114,30.3795685 C38.3631671,32.7525292 36.2109221,30.470909 34.7191268,28.7422241 Z" id="L-2"></path>
            </g>
        </g>
    </g>
</svg>