<?xml version="1.0" encoding="UTF-8"?>
<svg width="36px" height="42px" viewBox="0 0 36 42" version="1.1" xmlns="http://www.w3.org/2000/svg" xmlns:xlink="http://www.w3.org/1999/xlink">
    <title>Left Foot</title>
    <g id="Page-1" stroke="none" stroke-width="1" fill="none" fill-rule="evenodd" fill-opacity="0.25">
        <g id="Male/Front/Focus" transform="translate(-124.000000, -576.000000)" fill="#4299E1" stroke="#4299E1" stroke-width="2">
            <path d="M134.015945,594.183543 C132.759741,602.48374 128.572382,603.643815 126.559449,606.506847 C124.546517,609.369878 124.084862,615.790834 127.966789,616.352738 C132.350282,616.987244 139.655025,616.94032 144.881099,616.952965 C147.378295,616.959006 148.904377,617.003313 150.830881,616.952965 C153.488987,616.883496 156.216415,616.002974 157.053933,614.916874 C158.435551,613.125181 158.864118,600.79891 158.377605,591.059784 C158.075204,585.006254 158.316825,580.10921 157.950447,579.737558 C157.3109,579.088803 152.090467,575.634212 145.48107,578.064851 C138.871674,580.49549 136.204357,585.765306 135.082208,585.824326 C133.960058,585.883346 135.272148,585.883346 134.015945,594.183543 Z" id="Left-Foot" transform="translate(141.804516, 597.093051) scale(-1, 1) translate(-141.804516, -597.093051) "></path>
        </g>
    </g>
</svg>