<?xml version="1.0" encoding="UTF-8"?>
<svg width="56px" height="36px" viewBox="0 0 56 36" version="1.1" xmlns="http://www.w3.org/2000/svg" xmlns:xlink="http://www.w3.org/1999/xlink">
    <title>Th-12</title>
    <g id="Page-1" stroke="none" stroke-width="1" fill="none" fill-rule="evenodd">
        <g id="Spine/Active" transform="translate(-66.000000, -339.000000)" fill="#48BB78" stroke="#48BB78">
            <g id="Thoracic" transform="translate(66.703419, 130.583935)">
                <path d="M33.0468711,212.554995 C31.5071657,213.429978 30.3223298,213.979854 29.4923634,214.204623 C25.7061588,214.204623 21.8164677,213.86747 17.6933484,212.554995 C11.5837184,210.610173 8.23258765,209.536792 7.6399562,209.334851 C5.19841501,208.815219 3.52477565,209.888601 2.61903813,212.554995 C1.26043185,216.554587 1.89785674,213.616095 0.722023476,219.114108 C0.441491588,220.425831 -0.75197941,223.900078 0.722023476,224.802921 C6.68800366,228.45715 9.28578895,229.143092 22.0939125,231.007096 C24.7561562,231.007096 24.7561562,229.770037 25.7061588,227.590227 C26.1603218,226.548136 26.638303,225.296738 27.1856057,224.035352 C29.4923634,222.639599 33.820731,223.338291 33.7965811,226.796144 C33.7766901,229.644205 29.0782601,233.031527 29.6998834,234.367629 C29.6998834,234.709154 32.4634593,232.315452 35.1024474,237.493582 C35.7033752,237.87815 36.496427,237.147314 37.4816028,235.301074 C39.1365169,234.048415 40.8042813,234.441593 42.484896,236.480606 C44.1655107,238.51962 45.8677027,240.598904 47.5914719,242.718461 C48.8958652,243.845806 50.386955,243.612628 52.0647415,242.018926 C54.5814213,239.628373 56.648119,233.60047 49.5852566,230.790764 C47.6044564,230.363654 45.7068371,229.595537 44.918367,228.445779 C44.3668615,227.641565 44.3668615,226.171423 44.918367,224.035352 C45.4718608,222.104162 44.8301472,220.951738 42.9932264,220.578078 C42.1862791,220.413932 41.6090161,219.440237 41.2327188,218.851188 C40.3290287,217.436566 41.6868668,213.894611 37.8036208,212.282999 C36.7909088,211.862707 35.2053256,211.953372 33.0468711,212.554995 Z" id="Th-12"></path>
            </g>
        </g>
    </g>
</svg>