<?xml version="1.0" encoding="UTF-8"?>
<svg width="55px" height="38px" viewBox="0 0 55 38" version="1.1" xmlns="http://www.w3.org/2000/svg" xmlns:xlink="http://www.w3.org/1999/xlink">
    <title>Th-4</title>
    <g id="Page-1" stroke="none" stroke-width="1" fill="none" fill-rule="evenodd">
        <g id="Spine/Active" transform="translate(-90.000000, -179.000000)" fill="#48BB78" stroke="#48BB78">
            <g id="Thoracic" transform="translate(66.703419, 130.583935)">
                <path d="M44.0294632,52.52413 C41.2631946,55.6641907 35.8265148,57.3620822 27.7194237,57.6178044 C25.7198842,57.6178044 24.7201145,58.8351986 24.7201145,61.269987 C24.6340948,66.0939786 25.1921699,69.0161108 26.39434,70.0363837 C27.4279448,70.9135965 37.91003,71.4549128 43.5692487,67.9407649 C44.4725823,67.365213 44.6259871,65.1416204 44.0294632,61.269987 C44.1998532,60.1807688 44.4560016,59.53039 44.7979085,59.3188507 C45.5409756,58.8591118 46.9876173,59.141269 47.7976451,59.6085325 C48.3633373,59.9348513 48.9666563,60.4258645 49.4406615,61.269987 C49.4406615,62.6761433 49.3212454,64.5285474 49.0824133,66.827199 C51.9688237,64.953261 53.9472497,66.0229892 55.0176913,70.0363837 C56.0669007,69.6514493 57.2905475,69.6514493 58.6886318,70.0363837 C62.8403706,72.7554169 68.4959044,77.6170013 75.6552331,84.6211371 C76.1604406,85.0736049 78.4983151,87.8758297 77.3293778,81.3360465 C76.1604406,74.7962633 69.4013727,67.7303779 60.6383749,61.269987 C59.5689562,60.6830607 59.195569,59.3330867 59.5182132,57.2200652 C59.9669904,55.6800874 58.5666447,54.7837456 55.317176,54.5310398 C54.4876799,54.5310398 53.4207134,54.7482683 52.1162766,55.1827254 C50.785066,55.5664461 50.1194607,54.6802476 50.1194607,52.52413 C48.8608089,48.1542955 46.8308097,48.1542955 44.0294632,52.52413 Z" id="Th-4"></path>
            </g>
        </g>
    </g>
</svg>