<?xml version="1.0" encoding="UTF-8"?>
<svg width="44px" height="21px" viewBox="0 0 44 21" version="1.1" xmlns="http://www.w3.org/2000/svg" xmlns:xlink="http://www.w3.org/1999/xlink">
    <title>C-2</title>
    <g id="Page-1" stroke="none" stroke-width="1" fill="none" fill-rule="evenodd">
        <g id="Spine/Disabled" transform="translate(-67.000000, -49.000000)" fill="#EBF4FF" stroke="#C3DAFE">
            <g id="Cervical" transform="translate(66.249234, 32.350586)">
                <path d="M18.3296994,19.4886946 C18.9422712,19.8630038 19.2429567,20.4751126 19.8190639,20.6855691 C20.4768436,20.9258611 21.5108923,20.7354615 22.1050631,20.6855691 C22.8887285,20.6197649 22.4049168,20.0788426 23.3107867,20.0502582 C27.4526423,19.9195635 29.2078464,19.9195635 34.5576886,22.0252047 C36.2219092,22.6802244 37.7213082,23.7890852 38.8912864,25.1649868 C41.8623312,28.658954 43.4499206,32.7552966 43.3710128,34.5878647 C43.301035,36.2130414 42.257303,36.8119913 41.4282042,36.8119913 C39.6315629,36.8119913 37.9154583,34.8938466 35.1525035,33.7051822 C32.8967286,32.7347142 30.5650393,32.1130963 28.2213352,31.5241099 C26.7063678,31.1433899 24.4832487,31.5908409 23.3107867,30.9622771 C22.4882329,30.5213011 22.0197387,29.991722 21.266664,29.5151942 C20.7357134,29.1792213 21.4780359,27.1333824 20.9861251,26.7879681 C20.0341219,26.1194818 20.5028547,26.2734483 19.1133003,26.2734483 C16.9414735,26.1703571 19.2797832,28.5155422 16.6106225,29.5151942 C15.6785562,29.991069 12.3385253,30.1593886 9.76541293,29.991069 C6.23418197,29.7600742 5.29843297,29.6318494 3.00254477,28.9609026 C1.3950073,28.4911184 1.75085966,26.1886821 1.79986444,24.4724424 C1.84048265,23.0499163 1.9929567,21.5377352 2.16144731,20.41509 C2.28834171,19.5695984 2.54085208,19.0633952 3.00254477,18.5391901 C3.57500252,17.8892224 5.60848635,17.8892224 7.48553533,18.2680478 C10.0608554,18.787798 13.7117038,19.1041765 16.2306078,19.2788712 L18.3296994,19.4886946 Z" id="C-2"></path>
            </g>
        </g>
    </g>
</svg>