<?xml version="1.0" encoding="UTF-8"?>
<svg width="70px" height="31px" viewBox="0 0 70 31" version="1.1" xmlns="http://www.w3.org/2000/svg" xmlns:xlink="http://www.w3.org/1999/xlink">
    <title>L-5</title>
    <g id="Page-1" stroke="none" stroke-width="1" fill="none" fill-rule="evenodd">
        <g id="Spine/Default" transform="translate(-47.000000, -453.000000)" fill="#FAF089" stroke="#ECC94B">
            <g id="Lumbar/Default" transform="translate(47.107661, 361.493645)">
                <path d="M30.9459703,98.3807826 L16.7792476,99.0252631 C9.50472834,99.6182904 4.71684992,100.526952 2.41561231,101.751249 C0.114374698,102.975546 0.69825396,109.275072 4.1672501,120.649826 C10.937444,121.8453 21.0868449,120.766486 34.6154528,117.413383 C36.1209021,116.67377 34.5144515,112.860012 35.2460232,110.111219 C34.8154228,108.523216 46.5111937,103.424852 43.165853,116.67377 C42.9489864,117.136289 44.9913273,117.235717 46.1043654,120.111072 C48.516308,121.03744 50.6947454,121.082478 49.5354008,112.187605 C49.0345856,109.783944 54.3060697,109.190614 65.349853,110.407614 C68.6008617,110.311516 69.6932345,107.559761 68.6269715,102.152349 C67.5607084,96.7449378 64.0173199,94.8167454 57.9968061,96.3677722 C54.8974798,97.8788251 52.0770113,98.9892204 49.5354008,99.698958 C46.9937903,100.408696 46.1461413,99.1083257 46.9924538,95.7978481 C44.4954253,92.5407453 42.2893369,91.9150228 40.3741887,93.9206807 C39.3311728,95.0129893 40.1344395,99.47594 36.9311426,100.256728 C34.7956113,100.777253 32.8005538,100.151938 30.9459703,98.3807826 Z" id="L-5"></path>
            </g>
        </g>
    </g>
</svg>